SplineFontDB: 3.0
FontName: HarmoniaRomanNumeralsEN
FullName: Harmonia Roman Numerals EN
FamilyName: HarmoniaRNEN
Weight: Book

StartChar: .notdef
Encoding: 1114112 -1 0
Width: 1368
VWidth: 2274
Flags: W
LayerCount: 2
Fore
SplineSet
105 -362 m 1,0,-1
 105 1445 l 1,1,-1
 1129 1445 l 1,2,-1
 1129 -362 l 1,3,-1
 105 -362 l 1,0,-1
218 -248 m 1,4,-1
 1014 -248 l 1,5,-1
 1014 1330 l 1,6,-1
 218 1330 l 1,7,-1
 218 -248 l 1,4,-1
EndSplineSet
EndChar

StartChar: quotedbl
Encoding: 34 34 5
Width: 0
VWidth: 2274
Flags: W
LayerCount: 2
Fore
SplineSet
-41 214 m 1,0,-1
 312 214 l 1,1,-1
 312 146 l 1,2,-1
 -41 146 l 1,3,-1
 -41 214 l 1,0,-1
EndSplineSet
EndChar

StartChar: numbersign
Encoding: 35 35 6
Width: 682
VWidth: 2274
Flags: W
LayerCount: 2
Fore
SplineSet
617 -707 m 1,0,-1
 0 -707 l 1,1,-1
 0 -490 l 1,2,-1
 361 -490 l 1,3,-1
 361 1819 l 1,4,-1
 0 1819 l 1,5,-1
 0 2034 l 1,6,-1
 617 2034 l 1,7,-1
 617 -707 l 1,0,-1
EndSplineSet
EndChar

StartChar: dollar
Encoding: 36 36 7
Width: 1368
VWidth: 2274
Flags: W
LayerCount: 2
Fore
SplineSet
692 146 m 1,0,1
 804 149 804 149 865 208 c 128,-1,2
 926 267 926 267 926 366 c 0,3,4
 926 460 926 460 870 511 c 128,-1,5
 814 562 814 562 692 580 c 1,6,-1
 692 146 l 1,0,1
592 1182 m 1,7,8
 486 1178 486 1178 428 1122 c 128,-1,9
 370 1066 370 1066 370 975 c 0,10,11
 370 887 370 887 424.5 837 c 128,-1,12
 479 787 479 787 592 771 c 1,13,-1
 592 1182 l 1,7,8
692 -302 m 1,14,-1
 592 -302 l 1,15,-1
 591 0 l 1,16,17
 489 7 489 7 389.5 28.5 c 128,-1,18
 290 50 290 50 189 91 c 1,19,-1
 189 272 l 1,20,21
 290 211 290 211 391.5 177.5 c 128,-1,22
 493 144 493 144 592 142 c 1,23,-1
 592 600 l 1,24,25
 190 661 190 661 189 963 c 0,26,27
 189 1121 189 1121 294 1214 c 0,28,29
 400 1308 400 1308 592 1322 c 1,30,-1
 592 1556 l 1,31,-1
 692 1556 l 1,32,-1
 694 1322 l 1,33,34
 772 1315 772 1315 853 1301 c 128,-1,35
 934 1287 934 1287 1018 1261 c 1,36,-1
 1018 1086 l 1,37,38
 932 1128 932 1128 853.5 1153 c 128,-1,39
 775 1178 775 1178 692 1182 c 1,40,-1
 692 750 l 1,41,42
 902 720 902 720 1008 623.5 c 128,-1,43
 1114 527 1114 527 1114 370 c 0,44,45
 1114 216 1114 216 998 114 c 1,46,47
 884 12 884 12 694 3 c 1,48,-1
 692 -302 l 1,14,-1
EndSplineSet
EndChar

StartChar: percent
Encoding: 37 37 8
Width: 0
VWidth: 2274
Flags: W
LayerCount: 2
Fore
SplineSet
-90 2106 m 1,0,-1
 362 1487 l 1,1,-1
 210 1487 l 1,2,-1
 -242 2106 l 1,3,-1
 -90 2106 l 1,0,-1
EndSplineSet
EndChar

StartChar: ampersand
Encoding: 38 38 9
Width: 0
VWidth: 2274
Flags: W
LayerCount: 2
Fore
SplineSet
34 1906 m 2,0,1
 44 1906 44 1906 42 1898 c 2,2,-1
 42 1735 l 1,3,-1
 206 1735 l 2,4,5
 216 1735 216 1735 216 1726 c 2,6,-1
 216 1658 l 2,7,8
 216 1650 216 1650 206 1650 c 2,9,-1
 42 1650 l 1,10,-1
 42 1487 l 2,11,12
 42 1477 42 1477 34 1476 c 2,13,-1
 -31 1476 l 2,14,15
 -41 1476 -41 1476 -42 1487 c 2,16,-1
 -42 1650 l 1,17,-1
 -206 1650 l 2,18,19
 -216 1650 -216 1650 -214 1658 c 2,20,-1
 -214 1726 l 2,21,22
 -214 1736 -214 1736 -206 1735 c 2,23,-1
 -42 1735 l 1,24,-1
 -42 1898 l 2,25,26
 -42 1908 -42 1908 -31 1906 c 2,27,-1
 34 1906 l 2,0,1
EndSplineSet
EndChar

StartChar: quotesingle
Encoding: 39 39 10
Width: 825
VWidth: 2274
Flags: W
LayerCount: 2
Fore
SplineSet
380 280 m 1,0,1
 414 246 414 246 462 234.5 c 128,-1,2
 510 223 510 223 562 223 c 0,3,4
 569 223 569 223 574 218.5 c 128,-1,5
 579 214 579 214 579 208 c 2,6,-1
 596 30 l 2,7,8
 596 23 596 23 592 18.5 c 128,-1,9
 588 14 588 14 583 14 c 2,10,-1
 580 14 l 1,11,-1
 402 31 l 2,12,13
 395 31 395 31 391 36.5 c 128,-1,14
 387 42 387 42 387 48 c 0,15,16
 387 98 387 98 376.5 146.5 c 128,-1,17
 366 195 366 195 331 230 c 1,18,19
 297 196 297 196 285.5 147 c 128,-1,20
 274 98 274 98 274 48 c 0,21,22
 274 41 274 41 269 36 c 128,-1,23
 264 31 264 31 259 31 c 2,24,-1
 80 14 l 1,25,-1
 78 14 l 2,26,27
 71 14 71 14 66 19 c 128,-1,28
 61 24 61 24 61 30 c 2,29,-1
 82 208 l 2,30,31
 82 215 82 215 86.5 219 c 128,-1,32
 91 223 91 223 98 223 c 0,33,34
 148 223 148 223 197 234.5 c 128,-1,35
 246 246 246 246 280 280 c 1,36,37
 246 314 246 314 198 325 c 128,-1,38
 150 336 150 336 98 336 c 0,39,40
 91 336 91 336 86.5 341 c 128,-1,41
 82 346 82 346 82 351 c 2,42,-1
 61 530 l 2,43,44
 61 537 61 537 66.5 541.5 c 128,-1,45
 72 546 72 546 78 546 c 2,46,-1
 80 546 l 1,47,-1
 259 528 l 2,48,49
 266 528 266 528 270 523.5 c 128,-1,50
 274 519 274 519 274 512 c 0,51,52
 274 462 274 462 284 414 c 128,-1,53
 294 366 294 366 331 331 c 1,54,55
 365 365 365 365 376 413.5 c 128,-1,56
 387 462 387 462 387 512 c 0,57,58
 387 519 387 519 391.5 523.5 c 128,-1,59
 396 528 396 528 402 528 c 2,60,-1
 580 546 l 1,61,-1
 583 546 l 2,62,63
 590 546 590 546 593 541 c 128,-1,64
 596 536 596 536 596 530 c 2,65,-1
 579 351 l 2,66,67
 579 344 579 344 573.5 340 c 128,-1,68
 568 336 568 336 562 336 c 0,69,70
 512 336 512 336 463 325 c 128,-1,71
 414 314 414 314 380 280 c 1,0,1
EndSplineSet
EndChar

StartChar: parenleft
Encoding: 40 40 11
Width: 0
VWidth: 2274
Flags: W
LayerCount: 2
Fore
SplineSet
30 1646 m 1,0,1
 50 1626 50 1626 78 1620.5 c 128,-1,2
 106 1615 106 1615 135 1615 c 0,3,4
 143 1615 143 1615 142 1603 c 2,5,-1
 152 1502 l 2,6,7
 152 1494 152 1494 146 1495 c 2,8,-1
 144 1495 l 1,9,-1
 42 1502 l 2,10,11
 30 1502 30 1502 30 1510 c 0,12,13
 30 1537 30 1537 25 1567 c 128,-1,14
 20 1597 20 1597 0 1616 c 1,15,16
 -20 1596 -20 1596 -25 1567.5 c 128,-1,17
 -30 1539 -30 1539 -30 1510 c 0,18,19
 -30 1500 -30 1500 -42 1502 c 2,20,-1
 -144 1495 l 1,21,-1
 -146 1495 l 2,22,23
 -153 1495 -153 1495 -152 1502 c 2,24,-1
 -142 1603 l 2,25,26
 -142 1613 -142 1613 -135 1615 c 0,27,28
 -108 1615 -108 1615 -79 1621 c 128,-1,29
 -50 1627 -50 1627 -30 1646 c 1,30,31
 -50 1666 -50 1666 -78 1671 c 128,-1,32
 -106 1676 -106 1676 -135 1676 c 0,33,34
 -143 1676 -143 1676 -142 1687 c 2,35,-1
 -152 1790 l 2,36,37
 -152 1798 -152 1798 -146 1799 c 2,38,-1
 -144 1799 l 1,39,-1
 -42 1789 l 2,40,41
 -30 1789 -30 1789 -30 1778 c 0,42,43
 -30 1751 -30 1751 -25 1723 c 128,-1,44
 -20 1695 -20 1695 0 1675 c 1,45,46
 20 1695 20 1695 25 1723 c 128,-1,47
 30 1751 30 1751 30 1778 c 0,48,49
 30 1788 30 1788 42 1789 c 2,50,-1
 144 1799 l 1,51,-1
 146 1799 l 2,52,53
 153 1799 153 1799 152 1790 c 2,54,-1
 142 1687 l 2,55,56
 142 1677 142 1677 135 1676 c 0,57,58
 108 1676 108 1676 79 1671 c 128,-1,59
 50 1666 50 1666 30 1646 c 1,0,1
EndSplineSet
EndChar

StartChar: parenright
Encoding: 41 41 12
Width: 0
VWidth: 2274
Flags: W
LayerCount: 2
Fore
SplineSet
-114 2120 m 1,0,1
 -100 2127 -100 2127 -82 2127 c 0,2,3
 -68 2127 -68 2127 -54 2120 c 1,4,-1
 -57 1898 l 1,5,-1
 82 1921 l 1,6,-1
 86 1921 l 2,7,8
 96 1921 96 1921 102 1915.5 c 128,-1,9
 108 1910 108 1910 108 1898 c 2,10,-1
 114 1171 l 1,11,12
 100 1163 100 1163 86 1163 c 256,13,14
 72 1163 72 1163 57 1171 c 1,15,-1
 57 1393 l 1,16,-1
 -80 1371 l 1,17,-1
 -82 1371 l 2,18,19
 -106 1371 -106 1371 -106 1390 c 2,20,-1
 -114 2120 l 1,0,1
61 1790 m 1,21,-1
 -57 1770 l 1,22,-1
 -61 1502 l 1,23,-1
 60 1521 l 1,24,-1
 61 1790 l 1,21,-1
EndSplineSet
EndChar

StartChar: asterisk
Encoding: 42 42 13
Width: 0
VWidth: 2274
Flags: W
LayerCount: 2
Fore
SplineSet
20 1522 m 1,0,-1
 20 1509 l 2,1,2
 20 1491 20 1491 21 1472 c 128,-1,3
 22 1453 22 1453 24 1432 c 1,4,5
 44 1448 44 1448 63 1466 c 128,-1,6
 82 1484 82 1484 96 1504.5 c 128,-1,7
 110 1525 110 1525 117.5 1546.5 c 128,-1,8
 125 1568 125 1568 125 1594 c 0,9,10
 125 1608 125 1608 123.5 1622.5 c 128,-1,11
 122 1637 122 1637 116 1647.5 c 128,-1,12
 110 1658 110 1658 100.5 1665 c 128,-1,13
 91 1672 91 1672 78 1672 c 0,14,15
 52 1672 52 1672 38 1650 c 0,16,17
 24 1628 24 1628 22 1598 c 2,18,-1
 20 1522 l 1,0,-1
-24 1514 m 1,19,20
 -50 1484 -50 1484 -82 1459 c 0,21,22
 -116 1434 -116 1434 -146 1406 c 0,23,24
 -156 1396 -156 1396 -164 1383.5 c 128,-1,25
 -172 1371 -172 1371 -186 1371 c 0,26,27
 -196 1371 -196 1371 -203 1376.5 c 128,-1,28
 -210 1382 -210 1382 -210 1394 c 2,29,-1
 -222 2083 l 1,30,31
 -208 2091 -208 2091 -195 2090 c 0,32,33
 -181 2090 -181 2090 -166 2083 c 1,34,-1
 -174 1683 l 1,35,36
 -140 1717 -140 1717 -94 1717 c 0,37,38
 -57 1717 -57 1717 -30 1691 c 1,39,-1
 -37 2083 l 1,40,41
 -23 2091 -23 2091 -7 2090 c 256,42,43
 7 2090 7 2090 22 2083 c 1,44,-1
 14 1683 l 1,45,46
 58 1717 58 1717 114 1717 c 0,47,48
 136 1717 136 1717 157 1707.5 c 128,-1,49
 178 1698 178 1698 192 1682.5 c 128,-1,50
 206 1667 206 1667 214 1647 c 128,-1,51
 222 1627 222 1627 222 1603 c 0,52,53
 222 1566 222 1566 205 1540 c 128,-1,54
 188 1514 188 1514 162 1492 c 128,-1,55
 136 1470 136 1470 105 1450.5 c 128,-1,56
 74 1431 74 1431 46 1406 c 0,57,58
 36 1396 36 1396 27 1383.5 c 128,-1,59
 18 1371 18 1371 3 1371 c 0,60,61
 -7 1371 -7 1371 -14.5 1376.5 c 128,-1,62
 -22 1382 -22 1382 -22 1394 c 2,63,-1
 -24 1514 l 1,19,20
-174 1522 m 1,64,-1
 -174 1509 l 2,65,66
 -174 1471 -174 1471 -172 1431 c 1,67,68
 -138 1465 -138 1465 -113 1506 c 128,-1,69
 -88 1547 -88 1547 -88 1594 c 0,70,71
 -88 1608 -88 1608 -89 1622.5 c 128,-1,72
 -90 1637 -90 1637 -95.5 1647.5 c 128,-1,73
 -101 1658 -101 1658 -108.5 1665 c 128,-1,74
 -116 1672 -116 1672 -128 1672 c 0,75,76
 -150 1672 -150 1672 -162 1650 c 128,-1,77
 -174 1628 -174 1628 -174 1598 c 2,78,-1
 -174 1522 l 1,64,-1
EndSplineSet
EndChar

StartChar: plus
Encoding: 43 43 14
Width: 0
VWidth: 2274
Flags: W
LayerCount: 2
Fore
SplineSet
90 1359 m 2,0,1
 90 1352 90 1352 84 1345 c 128,-1,2
 78 1338 78 1338 67 1338 c 0,3,4
 60 1338 60 1338 55 1344.5 c 128,-1,5
 50 1351 50 1351 50 1359 c 2,6,-1
 50 1530 l 1,7,-1
 -50 1496 l 1,8,-1
 -50 1310 l 2,9,10
 -50 1303 -50 1303 -55 1297.5 c 128,-1,11
 -60 1292 -60 1292 -67 1292 c 0,12,13
 -77 1292 -77 1292 -83.5 1297.5 c 128,-1,14
 -90 1303 -90 1303 -90 1310 c 2,15,-1
 -90 1483 l 1,16,-1
 -132 1466 l 1,17,18
 -142 1463 -142 1463 -150 1469 c 128,-1,19
 -158 1475 -158 1475 -158 1484 c 2,20,-1
 -158 1559 l 2,21,22
 -158 1571 -158 1571 -144 1574 c 2,23,-1
 -90 1594 l 1,24,-1
 -90 1782 l 1,25,-1
 -132 1766 l 2,26,27
 -142 1762 -142 1762 -150 1767.5 c 128,-1,28
 -158 1773 -158 1773 -158 1782 c 2,29,-1
 -158 1858 l 2,30,31
 -158 1868 -158 1868 -144 1875 c 1,32,-1
 -90 1894 l 1,33,-1
 -90 2080 l 2,34,35
 -90 2087 -90 2087 -84 2092.5 c 128,-1,36
 -78 2098 -78 2098 -67 2098 c 0,37,38
 -60 2098 -60 2098 -55 2092 c 128,-1,39
 -50 2086 -50 2086 -50 2080 c 2,40,-1
 -50 1906 l 1,41,-1
 50 1943 l 1,42,-1
 50 2128 l 2,43,44
 50 2135 50 2135 55 2141 c 128,-1,45
 60 2147 60 2147 67 2147 c 0,46,47
 77 2147 77 2147 83.5 2141 c 128,-1,48
 90 2135 90 2135 90 2128 c 2,49,-1
 90 1958 l 1,50,-1
 132 1970 l 1,51,52
 142 1973 142 1973 150 1967.5 c 128,-1,53
 158 1962 158 1962 158 1955 c 2,54,-1
 158 1880 l 2,55,56
 158 1868 158 1868 144 1864 c 2,57,-1
 90 1842 l 1,58,-1
 90 1654 l 1,59,-1
 132 1671 l 2,60,61
 142 1675 142 1675 150 1671 c 0,62,63
 158 1664 158 1664 158 1654 c 2,64,-1
 158 1582 l 2,65,66
 158 1572 158 1572 144 1563 c 1,67,-1
 90 1547 l 1,68,-1
 90 1359 l 2,0,1
-50 1796 m 1,69,-1
 -50 1611 l 1,70,-1
 50 1642 l 1,71,-1
 50 1830 l 1,72,-1
 -50 1796 l 1,69,-1
EndSplineSet
EndChar

StartChar: comma
Encoding: 44 44 15
Width: 0
VWidth: 2274
Flags: W
LayerCount: 2
Fore
SplineSet
-2451 835 m 1,0,-1
 122 835 l 1,1,-1
 122 692 l 1,2,-1
 -2451 692 l 1,3,-1
 -2451 835 l 1,0,-1
EndSplineSet
EndChar

StartChar: hyphen
Encoding: 45 45 16
Width: 775
VWidth: 2274
Flags: W
LayerCount: 2
Fore
SplineSet
158 20 m 2,0,1
 158 13 158 13 156.5 8.5 c 128,-1,2
 155 4 155 4 155 -3 c 0,3,4
 155 -37 155 -37 158.5 -69.5 c 128,-1,5
 162 -102 162 -102 165 -135 c 1,6,7
 199 -108 199 -108 233 -77 c 128,-1,8
 267 -46 267 -46 295 -12 c 128,-1,9
 323 22 323 22 340 61.5 c 128,-1,10
 357 101 357 101 357 144 c 0,11,12
 357 170 357 170 351.5 194 c 128,-1,13
 346 218 346 218 335 238.5 c 128,-1,14
 324 259 324 259 307 270.5 c 128,-1,15
 290 282 290 282 268 282 c 0,16,17
 246 282 246 282 226 272.5 c 128,-1,18
 206 263 206 263 192 246 c 128,-1,19
 178 229 178 229 168.5 205.5 c 128,-1,20
 159 182 159 182 159 158 c 2,21,-1
 158 20 l 2,0,1
60 997 m 1,22,23
 72 1004 72 1004 83.5 1007 c 128,-1,24
 95 1010 95 1010 110 1010 c 256,25,26
 124 1010 124 1010 136 1006 c 128,-1,27
 148 1002 148 1002 159 997 c 1,28,-1
 148 298 l 1,29,30
 226 358 226 358 324 358 c 0,31,32
 365 358 365 358 398.5 342.5 c 128,-1,33
 432 327 432 327 457 298.5 c 128,-1,34
 482 270 482 270 496 234.5 c 128,-1,35
 510 199 510 199 510 158 c 0,36,37
 510 97 510 97 480.5 50 c 128,-1,38
 451 3 451 3 404.5 -35.5 c 128,-1,39
 358 -74 358 -74 305 -108 c 128,-1,40
 252 -142 252 -142 204 -180 c 0,41,42
 194 -188 194 -188 188 -197 c 128,-1,43
 182 -206 182 -206 176 -214 c 128,-1,44
 170 -222 170 -222 162 -227.5 c 128,-1,45
 154 -233 154 -233 142 -233 c 0,46,47
 132 -233 132 -233 122 -231.5 c 128,-1,48
 112 -230 112 -230 103 -226 c 128,-1,49
 94 -222 94 -222 88 -216 c 128,-1,50
 82 -210 82 -210 82 -203 c 2,51,-1
 60 997 l 1,22,23
EndSplineSet
EndChar

StartChar: slash
Encoding: 47 47 18
Width: 1206
VWidth: 2274
Flags: W
LayerCount: 2
Fore
SplineSet
391 253 m 1,0,-1
 594 253 l 1,1,-1
 594 0 l 1,2,-1
 391 0 l 1,3,-1
 391 253 l 1,0,-1
588 402 m 1,4,-1
 398 402 l 1,5,-1
 398 554 l 2,6,7
 398 659 398 659 426 722 c 0,8,9
 440 753 440 753 468 790 c 0,10,11
 495 828 495 828 542 873 c 2,12,-1
 634 963 l 2,13,14
 690 1019 690 1019 716 1063.5 c 128,-1,15
 742 1108 742 1108 742 1159 c 0,16,17
 742 1247 742 1247 674 1303 c 0,18,19
 613 1357 613 1357 502 1356 c 0,20,21
 424 1356 424 1356 334 1321 c 0,22,23
 244 1284 244 1284 146 1219 c 1,24,-1
 146 1406 l 1,25,26
 332 1520 332 1520 538 1521 c 0,27,28
 724 1521 724 1521 830 1423 c 1,29,30
 942 1325 942 1325 945 1167 c 0,31,32
 945 1091 945 1091 908 1022 c 0,33,34
 890 988 890 988 858 949.5 c 128,-1,35
 826 911 826 911 783 869 c 2,36,-1
 694 783 l 2,37,38
 670 761 670 761 654 741.5 c 128,-1,39
 638 722 638 722 627.5 708 c 128,-1,40
 617 694 617 694 610.5 682 c 128,-1,41
 604 670 604 670 600 658 c 0,42,43
 593 636 593 636 590.5 605 c 128,-1,44
 588 574 588 574 588 524 c 2,45,-1
 588 402 l 1,4,-1
EndSplineSet
EndChar

StartChar: zero
Encoding: 48 48 19
Width: 595
VWidth: 2274
Flags: W
LayerCount: 2
Fore
SplineSet
238 1495 m 0,0,1
 177 1495 177 1495 136 1450 c 1,2,3
 94 1408 94 1408 94 1351 c 0,4,5
 94 1294 94 1294 136 1250 c 256,6,7
 178 1210 178 1210 238 1210 c 256,8,9
 298 1210 298 1210 338 1250 c 1,10,11
 380 1291 380 1291 380 1351 c 0,12,13
 380 1408 380 1408 338 1450 c 0,14,15
 298 1495 298 1495 238 1495 c 0,0,1
238 1590 m 0,16,17
 286 1590 286 1590 330 1571 c 128,-1,18
 374 1552 374 1552 406 1518 c 0,19,20
 474 1447 474 1447 474 1351 c 0,21,22
 474 1253 474 1253 406 1182 c 1,23,24
 335 1114 335 1114 236 1114 c 0,25,26
 134 1114 134 1114 67 1182 c 256,27,28
 0 1249 0 1249 0 1351 c 0,29,30
 0 1449 0 1449 71 1521 c 0,31,32
 140 1590 140 1590 238 1590 c 0,16,17
EndSplineSet
EndChar

StartChar: one
Encoding: 49 49 20
Width: 377
VWidth: 2274
Flags: W
LayerCount: 2
Fore
SplineSet
142 1495 m 1,0,-1
 342 1495 l 1,1,-1
 342 0 l 1,2,-1
 142 0 l 1,3,-1
 142 1495 l 1,0,-1
EndSplineSet
EndChar

StartChar: two
Encoding: 50 50 21
Width: 1077
VWidth: 2274
Flags: W
LayerCount: 2
Fore
SplineSet
203 1495 m 1,0,-1
 402 1495 l 1,1,-1
 402 0 l 1,2,-1
 203 0 l 1,3,-1
 203 1495 l 1,0,-1
762 1495 m 1,4,-1
 964 1495 l 1,5,-1
 964 0 l 1,6,-1
 762 0 l 1,7,-1
 762 1495 l 1,4,-1
EndSplineSet
EndChar

StartChar: three
Encoding: 51 51 22
Width: 1691
VWidth: 2274
Flags: W
LayerCount: 2
Fore
SplineSet
203 1495 m 1,0,-1
 402 1495 l 1,1,-1
 402 0 l 1,2,-1
 203 0 l 1,3,-1
 203 1495 l 1,0,-1
762 1495 m 1,4,-1
 964 1495 l 1,5,-1
 964 0 l 1,6,-1
 762 0 l 1,7,-1
 762 1495 l 1,4,-1
1322 1495 m 1,8,-1
 1526 1495 l 1,9,-1
 1526 0 l 1,10,-1
 1322 0 l 1,11,-1
 1322 1495 l 1,8,-1
EndSplineSet
EndChar

StartChar: four
Encoding: 52 52 23
Width: 2184
VWidth: 2274
Flags: W
LayerCount: 2
Fore
SplineSet
203 1495 m 1,0,-1
 402 1495 l 1,1,-1
 402 0 l 1,2,-1
 203 0 l 1,3,-1
 203 1495 l 1,0,-1
1167 0 m 1,4,-1
 596 1495 l 1,5,-1
 806 1495 l 1,6,-1
 1280 236 l 1,7,-1
 1755 1495 l 1,8,-1
 1965 1495 l 1,9,-1
 1394 0 l 1,10,-1
 1167 0 l 1,4,-1
EndSplineSet
EndChar

StartChar: five
Encoding: 53 53 24
Width: 1540
VWidth: 2274
Flags: W
LayerCount: 2
Fore
SplineSet
587 0 m 1,0,-1
 16 1495 l 1,1,-1
 226 1495 l 1,2,-1
 700 236 l 1,3,-1
 1175 1495 l 1,4,-1
 1385 1495 l 1,5,-1
 814 0 l 1,6,-1
 587 0 l 1,0,-1
EndSplineSet
EndChar

StartChar: six
Encoding: 54 54 25
Width: 1914
VWidth: 2274
Flags: W
LayerCount: 2
Fore
SplineSet
587 0 m 1,0,-1
 16 1495 l 1,1,-1
 226 1495 l 1,2,-1
 700 236 l 1,3,-1
 1175 1495 l 1,4,-1
 1385 1495 l 1,5,-1
 814 0 l 1,6,-1
 587 0 l 1,0,-1
1518 1495 m 1,7,-1
 1721 1495 l 1,8,-1
 1721 0 l 1,9,-1
 1518 0 l 1,10,-1
 1518 1495 l 1,7,-1
EndSplineSet
EndChar

StartChar: seven
Encoding: 55 55 26
Width: 2531
VWidth: 2274
Flags: W
LayerCount: 2
Fore
SplineSet
587 0 m 1,0,-1
 16 1495 l 1,1,-1
 226 1495 l 1,2,-1
 700 236 l 1,3,-1
 1175 1495 l 1,4,-1
 1385 1495 l 1,5,-1
 814 0 l 1,6,-1
 587 0 l 1,0,-1
1518 1495 m 1,7,-1
 1721 1495 l 1,8,-1
 1721 0 l 1,9,-1
 1518 0 l 1,10,-1
 1518 1495 l 1,7,-1
2079 1495 m 1,11,-1
 2282 1495 l 1,12,-1
 2282 0 l 1,13,-1
 2079 0 l 1,14,-1
 2079 1495 l 1,11,-1
EndSplineSet
EndChar

StartChar: eight
Encoding: 56 56 27
Width: 0
VWidth: 2274
Flags: W
LayerCount: 2
Fore
SplineSet
-790 843 m 1,0,-1
 42 843 l 1,1,-1
 42 702 l 1,2,-1
 -790 702 l 1,3,-1
 -790 843 l 1,0,-1
EndSplineSet
EndChar

StartChar: nine
Encoding: 57 57 28
Width: 595
VWidth: 2274
Flags: W
LayerCount: 2
Fore
SplineSet
425 1499 m 0,0,1
 475 1438 475 1438 474 1351 c 0,2,3
 474 1253 474 1253 406 1182 c 1,4,5
 335 1114 335 1114 236 1114 c 0,6,7
 158 1114 158 1114 102 1150 c 1,8,9
 10 1052 l 1,10,-1
 -46 1108 l 1,11,-1
 46 1206 l 1,12,13
 0 1266 0 1266 0 1351 c 0,14,15
 0 1449 0 1449 71 1521 c 0,16,17
 142 1592 142 1592 238 1590 c 0,18,19
 282 1590 282 1590 331 1570 c 0,20,21
 361 1558 361 1558 365 1552 c 1,22,-1
 470 1664 l 1,23,-1
 528 1611 l 1,24,-1
 425 1499 l 1,25,26
114 1280 m 1,27,-1
 298 1483 l 1,28,29
 276 1493 276 1493 238 1495 c 0,30,31
 235 1495 235 1495 233 1495 c 0,32,33
 176 1495 176 1495 136 1450 c 1,34,35
 94 1408 94 1408 94 1351 c 0,36,37
 96 1311 96 1311 114 1280 c 1,27,-1
170 1227 m 1,38,39
 200 1213 200 1213 238 1210 c 0,40,41
 298 1210 298 1210 338 1250 c 1,42,43
 380 1291 380 1291 380 1351 c 0,44,45
 380 1397 380 1397 358 1431 c 1,46,-1
 170 1227 l 1,38,39
EndSplineSet
EndChar

StartChar: colon
Encoding: 58 58 29
Width: 0
VWidth: 2274
Flags: W
LayerCount: 2
Fore
SplineSet
90 -122 m 2,0,1
 90 -129 90 -129 84 -135.5 c 128,-1,2
 78 -142 78 -142 67 -142 c 0,3,4
 60 -142 60 -142 55 -136.5 c 128,-1,5
 50 -131 50 -131 50 -122 c 2,6,-1
 50 50 l 1,7,-1
 -50 16 l 1,8,-1
 -50 -170 l 2,9,10
 -50 -177 -50 -177 -55 -182.5 c 128,-1,11
 -60 -188 -60 -188 -67 -188 c 0,12,13
 -77 -188 -77 -188 -83.5 -183 c 128,-1,14
 -90 -178 -90 -178 -90 -170 c 2,15,-1
 -90 3 l 1,16,-1
 -132 -14 l 1,17,18
 -142 -17 -142 -17 -150 -12 c 128,-1,19
 -158 -7 -158 -7 -158 4 c 2,20,-1
 -158 78 l 2,21,22
 -158 90 -158 90 -144 94 c 2,23,-1
 -90 114 l 1,24,-1
 -90 302 l 1,25,-1
 -132 286 l 2,26,27
 -142 282 -142 282 -150 287.5 c 128,-1,28
 -158 293 -158 293 -158 302 c 2,29,-1
 -158 378 l 2,30,31
 -158 388 -158 388 -144 395 c 1,32,-1
 -90 414 l 1,33,-1
 -90 600 l 2,34,35
 -90 607 -90 607 -84 612.5 c 128,-1,36
 -78 618 -78 618 -67 618 c 0,37,38
 -60 618 -60 618 -55 612 c 128,-1,39
 -50 606 -50 606 -50 600 c 2,40,-1
 -50 426 l 1,41,-1
 50 462 l 1,42,-1
 50 648 l 2,43,44
 50 655 50 655 55 660.5 c 128,-1,45
 60 666 60 666 67 666 c 0,46,47
 77 666 77 666 83.5 660.5 c 128,-1,48
 90 655 90 655 90 648 c 2,49,-1
 90 478 l 1,50,-1
 132 490 l 1,51,52
 142 493 142 493 150 487.5 c 128,-1,53
 158 482 158 482 158 474 c 2,54,-1
 158 400 l 2,55,56
 158 388 158 388 144 384 c 2,57,-1
 90 362 l 1,58,-1
 90 174 l 1,59,-1
 132 189 l 2,60,61
 142 193 142 193 150 189 c 0,62,63
 158 182 158 182 158 174 c 2,64,-1
 158 102 l 2,65,66
 158 92 158 92 144 82 c 1,67,-1
 90 67 l 1,68,-1
 90 -122 l 2,0,1
-50 316 m 1,69,-1
 -50 131 l 1,70,-1
 50 162 l 1,71,-1
 50 350 l 1,72,-1
 -50 316 l 1,69,-1
EndSplineSet
EndChar

StartChar: semicolon
Encoding: 59 59 30
Width: 545
VWidth: 2274
Flags: W
LayerCount: 2
Fore
SplineSet
105 678 m 1,0,-1
 253 678 l 1,1,-1
 253 496 l 1,2,-1
 105 496 l 1,3,-1
 105 678 l 1,0,-1
105 222 m 1,4,-1
 253 222 l 1,5,-1
 253 41 l 1,6,-1
 105 41 l 1,7,-1
 105 222 l 1,4,-1
EndSplineSet
EndChar

StartChar: less
Encoding: 60 60 31
Width: 0
VWidth: 2274
Flags: W
LayerCount: 2
Fore
SplineSet
-80 -720 m 2,0,1
 -80 -723 -80 -723 -81 -726 c 0,2,3
 -82 -729 -82 -729 -82 -734 c 0,4,5
 -82 -752 -82 -752 -80 -774 c 128,-1,6
 -78 -796 -78 -796 -78 -818 c 1,7,8
 -56 -800 -56 -800 -34 -780 c 128,-1,9
 -12 -760 -12 -760 5 -739.5 c 128,-1,10
 22 -719 22 -719 33 -694 c 0,11,12
 43 -670 43 -670 44 -643 c 0,13,14
 44 -613 44 -613 30 -580 c 0,15,16
 16 -553 16 -553 -12 -553 c 0,17,18
 -42 -553 -42 -553 -60 -576.5 c 128,-1,19
 -78 -600 -78 -600 -78 -630 c 2,20,-1
 -80 -720 l 2,0,1
-142 -102 m 1,21,22
 -124 -90 -124 -90 -110 -90 c 0,23,24
 -96 -90 -96 -90 -78 -102 c 1,25,-1
 -88 -544 l 1,26,27
 -62 -526 -62 -526 -34.5 -516 c 128,-1,28
 -7 -506 -7 -506 26 -506 c 0,29,30
 76 -506 76 -506 110 -542 c 256,31,32
 141 -580 141 -580 142 -630 c 0,33,34
 142 -668 142 -668 124 -699 c 128,-1,35
 106 -730 106 -730 77 -754.5 c 128,-1,36
 48 -779 48 -779 14 -800.5 c 128,-1,37
 -20 -822 -20 -822 -50 -847 c 0,38,39
 -66 -859 -66 -859 -71 -869 c 0,40,41
 -78 -881 -78 -881 -90 -881 c 0,42,43
 -102 -881 -102 -881 -115 -875.5 c 128,-1,44
 -128 -870 -128 -870 -128 -862 c 2,45,-1
 -142 -102 l 1,21,22
EndSplineSet
EndChar

StartChar: equal
Encoding: 61 61 32
Width: 885
VWidth: 2274
Flags: W
LayerCount: 2
Fore
SplineSet
387 -174 m 2,0,1
 387 -186 387 -186 378.5 -195 c 128,-1,2
 370 -204 370 -204 357 -204 c 0,3,4
 345 -204 345 -204 336 -195 c 128,-1,5
 327 -186 327 -186 327 -174 c 2,6,-1
 327 98 l 1,7,-1
 170 42 l 1,8,-1
 170 -250 l 2,9,10
 170 -264 170 -264 160 -272 c 128,-1,11
 150 -280 150 -280 138 -280 c 0,12,13
 124 -280 124 -280 116 -270 c 0,14,15
 108 -263 108 -263 108 -250 c 2,16,-1
 108 22 l 1,17,-1
 38 -3 l 2,18,19
 24 -10 24 -10 12 0 c 128,-1,20
 0 10 0 10 0 24 c 2,21,-1
 0 138 l 2,22,23
 0 148 0 148 6 156.5 c 128,-1,24
 12 165 12 165 20 166 c 2,25,-1
 108 199 l 1,26,-1
 108 494 l 1,27,-1
 38 470 l 2,28,29
 24 463 24 463 12 472.5 c 128,-1,30
 0 482 0 482 0 496 c 2,31,-1
 0 614 l 2,32,33
 0 624 0 624 6 631 c 128,-1,34
 12 638 12 638 20 640 c 2,35,-1
 108 670 l 1,36,-1
 108 964 l 2,37,38
 108 976 108 976 118 985 c 0,39,40
 125 994 125 994 138 994 c 0,41,42
 150 994 150 994 160 985 c 128,-1,43
 170 976 170 976 170 964 c 2,44,-1
 170 692 l 1,45,-1
 327 749 l 1,46,-1
 327 1039 l 2,47,48
 327 1053 327 1053 335.5 1061.5 c 128,-1,49
 344 1070 344 1070 357 1070 c 0,50,51
 371 1070 371 1070 379 1061 c 128,-1,52
 387 1052 387 1052 387 1039 c 2,53,-1
 387 771 l 1,54,-1
 459 794 l 2,55,56
 473 801 473 801 483.5 792 c 128,-1,57
 494 783 494 783 494 766 c 2,58,-1
 494 651 l 2,59,60
 494 641 494 641 488 633.5 c 128,-1,61
 482 626 482 626 474 625 c 2,62,-1
 387 591 l 1,63,-1
 387 297 l 1,64,-1
 459 323 l 2,65,66
 473 330 473 330 483.5 320 c 128,-1,67
 494 310 494 310 494 294 c 2,68,-1
 494 178 l 2,69,70
 494 168 494 168 488 161 c 128,-1,71
 482 154 482 154 474 150 c 2,72,-1
 387 120 l 1,73,-1
 387 -174 l 2,0,1
170 516 m 1,74,-1
 170 219 l 1,75,-1
 327 274 l 1,76,-1
 327 570 l 1,77,-1
 170 516 l 1,74,-1
EndSplineSet
EndChar

StartChar: greater
Encoding: 62 62 33
Width: 0
VWidth: 2274
Flags: W
LayerCount: 2
Fore
SplineSet
90 -912 m 2,0,1
 90 -919 90 -919 84 -924.5 c 128,-1,2
 78 -930 78 -930 67 -930 c 0,3,4
 60 -930 60 -930 55 -924 c 128,-1,5
 50 -918 50 -918 50 -912 c 2,6,-1
 50 -738 l 1,7,-1
 -50 -775 l 1,8,-1
 -50 -963 l 2,9,10
 -50 -970 -50 -970 -55 -974.5 c 128,-1,11
 -60 -979 -60 -979 -67 -979 c 0,12,13
 -77 -979 -77 -979 -83.5 -973 c 128,-1,14
 -90 -967 -90 -967 -90 -963 c 2,15,-1
 -90 -790 l 1,16,-1
 -132 -802 l 1,17,18
 -142 -805 -142 -805 -150 -799.5 c 128,-1,19
 -158 -794 -158 -794 -158 -787 c 2,20,-1
 -158 -712 l 2,21,22
 -158 -700 -158 -700 -144 -696 c 2,23,-1
 -90 -674 l 1,24,-1
 -90 -486 l 1,25,-1
 -132 -502 l 2,26,27
 -142 -506 -142 -506 -150 -502 c 0,28,29
 -158 -495 -158 -495 -158 -486 c 2,30,-1
 -158 -414 l 2,31,32
 -158 -404 -158 -404 -144 -395 c 1,33,-1
 -90 -378 l 1,34,-1
 -90 -189 l 2,35,36
 -90 -182 -90 -182 -84 -176 c 128,-1,37
 -78 -170 -78 -170 -67 -170 c 0,38,39
 -60 -170 -60 -170 -55 -176 c 128,-1,40
 -50 -182 -50 -182 -50 -189 c 2,41,-1
 -50 -362 l 1,42,-1
 50 -328 l 1,43,-1
 50 -142 l 2,44,45
 50 -135 50 -135 55 -129.5 c 128,-1,46
 60 -124 60 -124 67 -124 c 0,47,48
 77 -124 77 -124 83.5 -129.5 c 128,-1,49
 90 -135 90 -135 90 -142 c 2,50,-1
 90 -314 l 1,51,-1
 132 -298 l 1,52,53
 142 -295 142 -295 150 -300.5 c 128,-1,54
 158 -306 158 -306 158 -316 c 2,55,-1
 158 -391 l 2,56,57
 158 -403 158 -403 144 -406 c 2,58,-1
 90 -426 l 1,59,-1
 90 -614 l 1,60,-1
 132 -598 l 2,61,62
 142 -594 142 -594 150 -599 c 128,-1,63
 158 -604 158 -604 158 -614 c 2,64,-1
 158 -690 l 2,65,66
 158 -700 158 -700 144 -707 c 1,67,-1
 90 -726 l 1,68,-1
 90 -912 l 2,0,1
-50 -474 m 1,69,-1
 -50 -662 l 1,70,-1
 50 -628 l 1,71,-1
 50 -442 l 1,72,-1
 -50 -474 l 1,69,-1
EndSplineSet
EndChar

StartChar: question
Encoding: 63 63 34
Width: 0
VWidth: 2274
Flags: W
LayerCount: 2
Fore
SplineSet
-41 -504 m 1,0,-1
 312 -504 l 1,1,-1
 312 -574 l 1,2,-1
 -41 -574 l 1,3,-1
 -41 -504 l 1,0,-1
EndSplineSet
EndChar

StartChar: at
Encoding: 64 64 35
Width: 0
VWidth: 2274
Flags: W
LayerCount: 2
Fore
SplineSet
598 2110 m 1,0,-1
 317 2007 l 1,1,-1
 598 1902 l 1,2,-1
 598 1842 l 1,3,-1
 250 1978 l 1,4,-1
 250 2034 l 1,5,-1
 598 2170 l 1,6,-1
 598 2110 l 1,0,-1
EndSplineSet
EndChar

StartChar: A
Encoding: 65 65 36
Width: 603
VWidth: 2274
Flags: W
LayerCount: 2
Fore
SplineSet
858 1627 m 1,0,-1
 1112 1627 l 1,1,-1
 -189 -144 l 5,2,-1
 -444 -144 l 5,3,-1
 858 1627 l 1,0,-1
EndSplineSet
EndChar

StartChar: B
Encoding: 66 66 37
Width: 0
VWidth: 2274
Flags: W
LayerCount: 2
Fore
SplineSet
20 -754 m 1,0,-1
 20 -766 l 2,1,2
 20 -784 20 -784 21 -803 c 128,-1,3
 22 -822 22 -822 24 -843 c 1,4,5
 44 -827 44 -827 63 -808.5 c 128,-1,6
 82 -790 82 -790 96 -770 c 128,-1,7
 110 -750 110 -750 117.5 -728.5 c 128,-1,8
 125 -707 125 -707 125 -682 c 0,9,10
 125 -668 125 -668 123.5 -653 c 128,-1,11
 122 -638 122 -638 116 -628 c 128,-1,12
 110 -618 110 -618 100.5 -610 c 128,-1,13
 91 -602 91 -602 78 -602 c 0,14,15
 52 -602 52 -602 38 -625 c 0,16,17
 24 -645 24 -645 22 -674 c 2,18,-1
 20 -754 l 1,0,-1
-24 -760 m 1,19,20
 -50 -790 -50 -790 -82 -817 c 0,21,22
 -116 -843 -116 -843 -146 -870 c 0,23,24
 -156 -880 -156 -880 -164 -893.5 c 128,-1,25
 -172 -907 -172 -907 -186 -907 c 0,26,27
 -196 -907 -196 -907 -203 -899.5 c 128,-1,28
 -210 -892 -210 -892 -210 -882 c 2,29,-1
 -222 -195 l 1,30,31
 -208 -187 -208 -187 -195 -184 c 0,32,33
 -181 -184 -181 -184 -166 -195 c 1,34,-1
 -174 -594 l 1,35,36
 -140 -557 -140 -557 -94 -558 c 0,37,38
 -57 -558 -57 -558 -30 -587 c 1,39,-1
 -37 -195 l 1,40,41
 -23 -187 -23 -187 -7 -184 c 256,42,43
 7 -184 7 -184 22 -195 c 1,44,-1
 14 -594 l 1,45,46
 58 -557 58 -557 114 -558 c 0,47,48
 136 -558 136 -558 157 -568.5 c 128,-1,49
 178 -579 178 -579 192 -594.5 c 128,-1,50
 206 -610 206 -610 214 -630 c 0,51,52
 222 -652 222 -652 222 -674 c 0,53,54
 222 -711 222 -711 205 -736.5 c 128,-1,55
 188 -762 188 -762 162 -784 c 128,-1,56
 136 -806 136 -806 105 -826 c 0,57,58
 74 -846 74 -846 46 -870 c 0,59,60
 36 -880 36 -880 27 -893.5 c 128,-1,61
 18 -907 18 -907 3 -907 c 0,62,63
 -7 -907 -7 -907 -14.5 -899.5 c 128,-1,64
 -22 -892 -22 -892 -22 -882 c 2,65,-1
 -24 -760 l 1,19,20
-174 -754 m 1,66,-1
 -174 -766 l 2,67,68
 -174 -804 -174 -804 -172 -847 c 1,69,70
 -138 -813 -138 -813 -113 -771.5 c 128,-1,71
 -88 -730 -88 -730 -88 -682 c 0,72,73
 -88 -668 -88 -668 -89 -653 c 128,-1,74
 -90 -638 -90 -638 -95.5 -628 c 128,-1,75
 -101 -618 -101 -618 -108.5 -610 c 128,-1,76
 -116 -602 -116 -602 -128 -602 c 0,77,78
 -150 -602 -150 -602 -162 -624.5 c 128,-1,79
 -174 -647 -174 -647 -174 -674 c 2,80,-1
 -174 -754 l 1,66,-1
EndSplineSet
EndChar

StartChar: C
Encoding: 67 67 38
Width: 682
VWidth: 2274
Flags: W
LayerCount: 2
Fore
SplineSet
0 954 m 1,0,-1
 174 954 l 1,1,-1
 598 155 l 1,2,-1
 598 954 l 1,3,-1
 722 954 l 1,4,-1
 722 0 l 1,5,-1
 550 0 l 1,6,-1
 125 798 l 1,7,-1
 125 0 l 1,8,-1
 0 0 l 1,9,-1
 0 954 l 1,0,-1
886 -212 m 1,10,-1
 790 -212 l 1,11,-1
 790 580 l 1,12,-1
 886 580 l 1,13,-1
 886 494 l 1,14,15
 943 596 943 596 1066 594 c 0,16,17
 1172 594 1172 594 1239 510 c 0,18,19
 1306 428 1306 428 1303 294 c 0,20,21
 1303 159 1303 159 1239 74 c 256,22,23
 1172 -8 1172 -8 1066 -8 c 0,24,25
 941 -8 941 -8 886 91 c 1,26,-1
 886 -212 l 1,10,-1
1206 294 m 256,27,28
 1206 400 1206 400 1163 457.5 c 128,-1,29
 1120 515 1120 515 1047 515 c 256,30,31
 973 515 973 515 929.5 456.5 c 128,-1,32
 886 398 886 398 886 294 c 256,33,34
 886 188 886 188 928.5 129.5 c 128,-1,35
 971 71 971 71 1047 71 c 256,36,37
 1121 71 1121 71 1163.5 129.5 c 128,-1,38
 1206 188 1206 188 1206 294 c 256,27,28
EndSplineSet
EndChar

StartChar: D
Encoding: 68 68 39
Width: 0
VWidth: 2274
Flags: W
LayerCount: 2
Fore
SplineSet
-67 580 m 1,0,-1
 312 67 l 1,1,-1
 186 67 l 1,2,-1
 -195 580 l 1,3,-1
 -67 580 l 1,0,-1
EndSplineSet
EndChar

StartChar: F
Encoding: 70 70 40
Width: 682
VWidth: 2274
Flags: W
LayerCount: 2
Fore
SplineSet
0 1194 m 1,0,-1
 686 1194 l 1,1,-1
 686 1058 l 1,2,-1
 162 1058 l 1,3,-1
 162 707 l 1,4,-1
 634 707 l 1,5,-1
 634 570 l 1,6,-1
 162 570 l 1,7,-1
 162 0 l 1,8,-1
 0 0 l 1,9,-1
 0 1194 l 1,0,-1
1231 606 m 1,10,11
 1191 630 1191 630 1134 630 c 0,12,13
 1033 630 1033 630 980.5 564 c 128,-1,14
 928 498 928 498 928 378 c 2,15,-1
 928 0 l 1,16,-1
 810 0 l 1,17,-1
 810 719 l 1,18,-1
 928 719 l 1,19,-1
 928 606 l 1,20,21
 1000 734 1000 734 1168 734 c 0,22,23
 1192 734 1192 734 1228 728 c 1,24,-1
 1231 606 l 1,10,11
EndSplineSet
EndChar

StartChar: G
Encoding: 71 71 41
Width: 0
VWidth: 2274
Flags: W
LayerCount: 2
Fore
SplineSet
34 446 m 2,0,1
 44 446 44 446 42 438 c 2,2,-1
 42 274 l 1,3,-1
 208 274 l 2,4,5
 218 274 218 274 218 264 c 2,6,-1
 218 199 l 2,7,8
 218 189 218 189 208 186 c 2,9,-1
 42 186 l 1,10,-1
 42 24 l 2,11,12
 42 14 42 14 34 14 c 2,13,-1
 -31 14 l 2,14,15
 -41 14 -41 14 -42 24 c 2,16,-1
 -42 186 l 1,17,-1
 -206 186 l 2,18,19
 -216 186 -216 186 -216 199 c 2,20,-1
 -216 264 l 2,21,22
 -216 274 -216 274 -206 274 c 2,23,-1
 -42 274 l 1,24,-1
 -42 438 l 2,25,26
 -42 448 -42 448 -31 446 c 2,27,-1
 34 446 l 2,0,1
EndSplineSet
EndChar

StartChar: H
Encoding: 72 72 42
Width: 0
VWidth: 2274
Flags: W
LayerCount: 2
Fore
SplineSet
20 38 m 1,0,-1
 20 26 l 2,1,2
 20 8 20 8 21 -11 c 128,-1,3
 22 -30 22 -30 24 -50 c 1,4,5
 44 -34 44 -34 63 -15.5 c 128,-1,6
 82 3 82 3 96 22.5 c 128,-1,7
 110 42 110 42 117.5 64 c 128,-1,8
 125 86 125 86 125 110 c 0,9,10
 125 124 125 124 123.5 139 c 128,-1,11
 122 154 122 154 116 164 c 128,-1,12
 110 174 110 174 100.5 181.5 c 128,-1,13
 91 189 91 189 78 189 c 0,14,15
 52 189 52 189 38 169 c 0,16,17
 24 149 24 149 22 118 c 2,18,-1
 20 38 l 1,0,-1
-24 31 m 1,19,20
 -50 1 -50 1 -82 -24 c 0,21,22
 -116 -50 -116 -50 -146 -78 c 0,23,24
 -156 -88 -156 -88 -164 -101 c 128,-1,25
 -172 -114 -172 -114 -186 -114 c 0,26,27
 -196 -114 -196 -114 -203 -107.5 c 128,-1,28
 -210 -101 -210 -101 -210 -90 c 2,29,-1
 -222 600 l 1,30,31
 -208 608 -208 608 -195 608 c 0,32,33
 -181 608 -181 608 -166 600 c 1,34,-1
 -174 199 l 1,35,36
 -140 236 -140 236 -94 234 c 0,37,38
 -57 234 -57 234 -30 206 c 1,39,-1
 -37 600 l 1,40,41
 -23 608 -23 608 -7 608 c 256,42,43
 7 608 7 608 22 600 c 1,44,-1
 14 199 l 1,45,46
 58 236 58 236 114 234 c 0,47,48
 136 234 136 234 157 224 c 128,-1,49
 178 214 178 214 192 198 c 128,-1,50
 206 182 206 182 214 162 c 0,51,52
 222 140 222 140 222 118 c 0,53,54
 222 81 222 81 205 55.5 c 128,-1,55
 188 30 188 30 162 8 c 128,-1,56
 136 -14 136 -14 105 -34 c 0,57,58
 74 -54 74 -54 46 -78 c 0,59,60
 36 -88 36 -88 27 -101 c 128,-1,61
 18 -114 18 -114 3 -114 c 0,62,63
 -7 -114 -7 -114 -14.5 -107.5 c 128,-1,64
 -22 -101 -22 -101 -22 -90 c 2,65,-1
 -24 31 l 1,19,20
-174 38 m 1,66,-1
 -174 26 l 2,67,68
 -174 -12 -174 -12 -172 -54 c 1,69,70
 -138 -20 -138 -20 -113 20.5 c 128,-1,71
 -88 61 -88 61 -88 110 c 0,72,73
 -88 124 -88 124 -89 139 c 128,-1,74
 -90 154 -90 154 -95.5 164 c 128,-1,75
 -101 174 -101 174 -108.5 181.5 c 128,-1,76
 -116 189 -116 189 -128 189 c 0,77,78
 -150 189 -150 189 -162 167.5 c 128,-1,79
 -174 146 -174 146 -174 118 c 2,80,-1
 -174 38 l 1,66,-1
EndSplineSet
EndChar

StartChar: I
Encoding: 73 73 43
Width: 0
VWidth: 2274
Flags: W
LayerCount: 2
Fore
SplineSet
30 899 m 1,0,1
 50 879 50 879 78 872.5 c 128,-1,2
 106 866 106 866 135 866 c 0,3,4
 143 866 143 866 142 854 c 2,5,-1
 152 754 l 2,6,7
 152 746 152 746 146 746 c 2,8,-1
 144 746 l 1,9,-1
 42 754 l 2,10,11
 30 754 30 754 30 762 c 0,12,13
 30 789 30 789 25 818.5 c 128,-1,14
 20 848 20 848 0 869 c 1,15,16
 -20 849 -20 849 -25 819.5 c 128,-1,17
 -30 790 -30 790 -30 762 c 0,18,19
 -30 752 -30 752 -42 754 c 2,20,-1
 -144 746 l 1,21,-1
 -146 746 l 2,22,23
 -153 746 -153 746 -152 754 c 2,24,-1
 -142 854 l 2,25,26
 -142 864 -142 864 -135 866 c 0,27,28
 -108 866 -108 866 -79 872 c 128,-1,29
 -50 878 -50 878 -30 899 c 1,30,31
 -50 919 -50 919 -78 923.5 c 128,-1,32
 -106 928 -106 928 -135 928 c 0,33,34
 -143 928 -143 928 -142 938 c 2,35,-1
 -152 1043 l 2,36,37
 -152 1051 -152 1051 -146 1050 c 2,38,-1
 -144 1050 l 1,39,-1
 -42 1040 l 2,40,41
 -30 1040 -30 1040 -30 1031 c 0,42,43
 -30 1004 -30 1004 -25 975 c 128,-1,44
 -20 946 -20 946 0 926 c 1,45,46
 20 946 20 946 26 975 c 0,47,48
 33 1002 33 1002 30 1031 c 0,49,50
 30 1041 30 1041 42 1040 c 2,51,-1
 144 1050 l 1,52,-1
 146 1050 l 2,53,54
 153 1050 153 1050 152 1043 c 2,55,-1
 142 938 l 2,56,57
 142 928 142 928 135 928 c 0,58,59
 108 928 108 928 79 923.5 c 128,-1,60
 50 919 50 919 30 899 c 1,0,1
EndSplineSet
EndChar

StartChar: J
Encoding: 74 74 44
Width: 0
VWidth: 2274
Flags: W
LayerCount: 2
Fore
SplineSet
30 170 m 1,0,1
 50 150 50 150 78 144 c 128,-1,2
 106 138 106 138 135 138 c 0,3,4
 143 138 143 138 142 125 c 2,5,-1
 152 26 l 2,6,7
 152 18 152 18 146 18 c 2,8,-1
 144 18 l 1,9,-1
 42 26 l 2,10,11
 30 26 30 26 30 34 c 0,12,13
 30 61 30 61 25 90.5 c 128,-1,14
 20 120 20 120 0 140 c 1,15,16
 -20 120 -20 120 -25 90.5 c 128,-1,17
 -30 61 -30 61 -30 34 c 0,18,19
 -30 24 -30 24 -42 26 c 2,20,-1
 -144 18 l 1,21,-1
 -146 18 l 2,22,23
 -153 18 -153 18 -152 26 c 2,24,-1
 -142 125 l 2,25,26
 -142 135 -142 135 -135 138 c 0,27,28
 -108 138 -108 138 -78 144 c 0,29,30
 -51 151 -51 151 -30 170 c 1,31,32
 -50 190 -50 190 -78 195 c 128,-1,33
 -106 200 -106 200 -135 200 c 0,34,35
 -143 200 -143 200 -142 210 c 2,36,-1
 -152 314 l 2,37,38
 -152 322 -152 322 -146 323 c 2,39,-1
 -144 323 l 1,40,-1
 -42 312 l 2,41,42
 -30 312 -30 312 -30 302 c 0,43,44
 -30 275 -30 275 -25 246.5 c 128,-1,45
 -20 218 -20 218 0 199 c 1,46,47
 20 219 20 219 25 246.5 c 128,-1,48
 30 274 30 274 30 302 c 0,49,50
 30 312 30 312 42 312 c 2,51,-1
 144 323 l 1,52,-1
 146 323 l 2,53,54
 153 323 153 323 152 314 c 2,55,-1
 142 210 l 2,56,57
 142 200 142 200 135 200 c 0,58,59
 108 200 108 200 79 195 c 128,-1,60
 50 190 50 190 30 170 c 1,0,1
EndSplineSet
EndChar

StartChar: K
Encoding: 75 75 45
Width: 0
VWidth: 2274
Flags: W
LayerCount: 2
Fore
SplineSet
-114 643 m 1,0,1
 -100 650 -100 650 -82 651 c 0,2,3
 -68 651 -68 651 -54 643 c 1,4,-1
 -57 422 l 1,5,-1
 82 442 l 1,6,-1
 86 442 l 2,7,8
 96 442 96 442 102 437 c 128,-1,9
 108 432 108 432 108 422 c 2,10,-1
 114 -306 l 1,11,12
 100 -316 100 -316 86 -316 c 256,13,14
 72 -316 72 -316 57 -306 c 1,15,-1
 57 -86 l 1,16,-1
 -80 -106 l 1,17,-1
 -82 -106 l 2,18,19
 -106 -106 -106 -106 -106 -86 c 2,20,-1
 -114 643 l 1,0,1
61 312 m 1,21,-1
 -57 294 l 1,22,-1
 -61 24 l 1,23,-1
 60 42 l 1,24,-1
 61 312 l 1,21,-1
EndSplineSet
EndChar

StartChar: L
Encoding: 76 76 46
Width: 0
VWidth: 2274
Flags: W
LayerCount: 2
Fore
SplineSet
-80 71 m 2,0,1
 -80 68 -80 68 -81 64 c 128,-1,2
 -82 60 -82 60 -82 54 c 0,3,4
 -82 36 -82 36 -80 14 c 0,5,6
 -77 -6 -77 -6 -78 -26 c 1,7,8
 -56 -8 -56 -8 -34 11 c 128,-1,9
 -12 30 -12 30 5 51 c 128,-1,10
 22 72 22 72 33 96 c 128,-1,11
 44 120 44 120 44 150 c 256,12,13
 44 180 44 180 30 209 c 128,-1,14
 16 238 16 238 -12 238 c 0,15,16
 -42 238 -42 238 -60 214 c 0,17,18
 -78 190 -78 190 -78 158 c 2,19,-1
 -80 71 l 2,0,1
-142 689 m 1,20,21
 -124 699 -124 699 -110 698 c 0,22,23
 -96 698 -96 698 -78 689 c 1,24,-1
 -88 246 l 1,25,26
 -62 264 -62 264 -34.5 275 c 128,-1,27
 -7 286 -7 286 26 286 c 0,28,29
 76 286 76 286 110 246 c 256,30,31
 141 208 141 208 142 158 c 0,32,33
 142 120 142 120 124 90.5 c 128,-1,34
 106 61 106 61 77 36.5 c 128,-1,35
 48 12 48 12 14 -9.5 c 128,-1,36
 -20 -31 -20 -31 -50 -56 c 0,37,38
 -66 -68 -66 -68 -71 -78 c 0,39,40
 -78 -90 -78 -90 -90 -90 c 0,41,42
 -102 -90 -102 -90 -115 -86 c 128,-1,43
 -128 -82 -128 -82 -128 -71 c 2,44,-1
 -142 689 l 1,20,21
EndSplineSet
EndChar

StartChar: M
Encoding: 77 77 47
Width: 0
VWidth: 2274
Flags: W
LayerCount: 2
Fore
SplineSet
-114 -136 m 1,0,1
 -100 -129 -100 -129 -82 -131 c 0,2,3
 -68 -131 -68 -131 -54 -136 c 1,4,-1
 -57 -358 l 1,5,-1
 82 -336 l 1,6,-1
 86 -336 l 2,7,8
 96 -336 96 -336 102 -341 c 128,-1,9
 108 -346 108 -346 108 -358 c 2,10,-1
 114 -1086 l 1,11,12
 100 -1094 100 -1094 86 -1095 c 256,13,14
 72 -1095 72 -1095 57 -1086 c 1,15,-1
 57 -864 l 1,16,-1
 -80 -886 l 1,17,-1
 -82 -886 l 2,18,19
 -106 -886 -106 -886 -106 -866 c 2,20,-1
 -114 -136 l 1,0,1
61 -466 m 1,21,-1
 -57 -486 l 1,22,-1
 -61 -754 l 1,23,-1
 60 -736 l 1,24,-1
 61 -466 l 1,21,-1
EndSplineSet
EndChar

StartChar: N
Encoding: 78 78 48
Width: 0
VWidth: 2274
Flags: W
LayerCount: 2
Fore
SplineSet
30 -622 m 1,0,1
 50 -642 50 -642 78 -647 c 128,-1,2
 106 -652 106 -652 135 -652 c 0,3,4
 143 -652 143 -652 142 -662 c 2,5,-1
 152 -766 l 2,6,7
 152 -774 152 -774 146 -775 c 2,8,-1
 144 -775 l 1,9,-1
 42 -764 l 2,10,11
 30 -764 30 -764 30 -754 c 0,12,13
 30 -727 30 -727 25 -698.5 c 128,-1,14
 20 -670 20 -670 0 -651 c 1,15,16
 -20 -671 -20 -671 -25 -698.5 c 128,-1,17
 -30 -726 -30 -726 -30 -754 c 0,18,19
 -30 -764 -30 -764 -42 -764 c 2,20,-1
 -144 -775 l 1,21,-1
 -146 -775 l 2,22,23
 -153 -775 -153 -775 -152 -766 c 2,24,-1
 -142 -662 l 2,25,26
 -142 -652 -142 -652 -135 -652 c 0,27,28
 -108 -652 -108 -652 -79 -647.5 c 128,-1,29
 -50 -643 -50 -643 -30 -622 c 1,30,31
 -50 -602 -50 -602 -78 -596.5 c 128,-1,32
 -106 -591 -106 -591 -135 -591 c 0,33,34
 -143 -591 -143 -591 -142 -579 c 2,35,-1
 -152 -478 l 2,36,37
 -152 -470 -152 -470 -146 -470 c 2,38,-1
 -144 -470 l 1,39,-1
 -42 -478 l 2,40,41
 -30 -478 -30 -478 -30 -486 c 0,42,43
 -30 -513 -30 -513 -25 -542.5 c 128,-1,44
 -20 -572 -20 -572 0 -592 c 1,45,46
 20 -572 20 -572 25 -543.5 c 128,-1,47
 30 -515 30 -515 30 -486 c 0,48,49
 30 -476 30 -476 42 -478 c 2,50,-1
 144 -470 l 1,51,-1
 146 -470 l 2,52,53
 153 -470 153 -470 152 -478 c 2,54,-1
 142 -579 l 2,55,56
 142 -589 142 -589 135 -591 c 0,57,58
 108 -591 108 -591 79 -596.5 c 128,-1,59
 50 -602 50 -602 30 -622 c 1,0,1
EndSplineSet
EndChar

StartChar: O
Encoding: 79 79 49
Width: 0
VWidth: 2274
Flags: W
LayerCount: 2
Fore
SplineSet
-114 1393 m 1,0,1
 -100 1400 -100 1400 -82 1398 c 0,2,3
 -68 1398 -68 1398 -54 1393 c 1,4,-1
 -57 1171 l 1,5,-1
 82 1193 l 1,6,-1
 86 1193 l 2,7,8
 96 1193 96 1193 102 1187.5 c 128,-1,9
 108 1182 108 1182 108 1171 c 2,10,-1
 114 442 l 1,11,12
 100 434 100 434 86 434 c 256,13,14
 72 434 72 434 57 442 c 1,15,-1
 57 664 l 1,16,-1
 -80 643 l 1,17,-1
 -82 643 l 2,18,19
 -106 643 -106 643 -106 662 c 2,20,-1
 -114 1393 l 1,0,1
61 1062 m 1,21,-1
 -57 1043 l 1,22,-1
 -61 775 l 1,23,-1
 60 792 l 1,24,-1
 61 1062 l 1,21,-1
EndSplineSet
EndChar

StartChar: P
Encoding: 80 80 50
Width: 0
VWidth: 2274
Flags: W
LayerCount: 2
Fore
SplineSet
-80 790 m 2,0,1
 -80 787 -80 787 -81 783.5 c 128,-1,2
 -82 780 -82 780 -82 775 c 0,3,4
 -82 757 -82 757 -80 736 c 0,5,6
 -77 716 -77 716 -78 694 c 1,7,8
 -56 712 -56 712 -34 731 c 128,-1,9
 -12 750 -12 750 5 771 c 128,-1,10
 22 792 22 792 33 816 c 128,-1,11
 44 840 44 840 44 870 c 256,12,13
 44 900 44 900 30 930 c 0,14,15
 16 960 16 960 -12 958 c 0,16,17
 -42 958 -42 958 -60 934 c 0,18,19
 -78 910 -78 910 -78 878 c 2,20,-1
 -80 790 l 2,0,1
-142 1408 m 1,21,22
 -124 1418 -124 1418 -110 1419 c 0,23,24
 -96 1419 -96 1419 -78 1408 c 1,25,-1
 -88 967 l 1,26,27
 -62 985 -62 985 -34.5 995.5 c 128,-1,28
 -7 1006 -7 1006 26 1006 c 0,29,30
 76 1006 76 1006 110 967 c 256,31,32
 141 929 141 929 142 878 c 0,33,34
 142 840 142 840 124 811.5 c 128,-1,35
 106 783 106 783 77 757.5 c 128,-1,36
 48 732 48 732 14 710.5 c 128,-1,37
 -20 689 -20 689 -50 664 c 0,38,39
 -66 652 -66 652 -71 643 c 0,40,41
 -78 633 -78 633 -90 630 c 0,42,43
 -102 630 -102 630 -115 634 c 128,-1,44
 -128 638 -128 638 -128 651 c 2,45,-1
 -142 1408 l 1,21,22
EndSplineSet
EndChar

StartChar: Q
Encoding: 81 81 51
Width: 682
VWidth: 2274
Flags: W
LayerCount: 2
Fore
SplineSet
690 2030 m 1,0,1
 491 1688 491 1688 392.5 1349 c 128,-1,2
 294 1010 294 1010 294 664 c 0,3,4
 294 322 294 322 392 -19.5 c 128,-1,5
 490 -361 490 -361 690 -707 c 1,6,-1
 451 -707 l 1,7,8
 225 -349 225 -349 114 -10.5 c 128,-1,9
 3 328 3 328 3 664 c 0,10,11
 3 998 3 998 113 1338.5 c 128,-1,12
 223 1679 223 1679 451 2030 c 1,13,-1
 690 2030 l 1,0,1
EndSplineSet
EndChar

StartChar: R
Encoding: 82 82 52
Width: 0
VWidth: 2274
Flags: W
LayerCount: 2
Fore
SplineSet
-67 1342 m 1,0,-1
 312 828 l 1,1,-1
 186 828 l 1,2,-1
 -195 1342 l 1,3,-1
 -67 1342 l 1,0,-1
EndSplineSet
EndChar

StartChar: S
Encoding: 83 83 53
Width: 1106
VWidth: 2274
Flags: W
LayerCount: 2
Fore
SplineSet
617 -1070 m 1,0,-1
 1918 -1070 l 1,1,-1
 1918 -1287 l 1,2,-1
 361 -1287 l 1,3,-1
 361 2251 l 1,4,-1
 -942 2251 l 1,5,-1
 -942 2464 l 1,6,-1
 617 2464 l 1,7,-1
 617 -1070 l 1,0,-1
EndSplineSet
EndChar

StartChar: U
Encoding: 85 85 54
Width: 0
VWidth: 2274
Flags: W
LayerCount: 2
Fore
SplineSet
20 762 m 1,0,-1
 20 749 l 2,1,2
 20 731 20 731 21 711.5 c 128,-1,3
 22 692 22 692 24 672 c 1,4,5
 44 688 44 688 63 706 c 128,-1,6
 82 724 82 724 96 744 c 128,-1,7
 110 764 110 764 117.5 786.5 c 128,-1,8
 125 809 125 809 125 835 c 0,9,10
 125 849 125 849 123.5 863 c 128,-1,11
 122 877 122 877 116 888 c 128,-1,12
 110 899 110 899 100.5 905.5 c 128,-1,13
 91 912 91 912 78 912 c 0,14,15
 52 912 52 912 37 891 c 128,-1,16
 22 870 22 870 22 840 c 2,17,-1
 20 762 l 1,0,-1
-24 754 m 1,18,19
 -50 724 -50 724 -82 700 c 0,20,21
 -116 674 -116 674 -146 647 c 0,22,23
 -156 637 -156 637 -164 623.5 c 128,-1,24
 -172 610 -172 610 -186 610 c 0,25,26
 -196 610 -196 610 -203 616 c 128,-1,27
 -210 622 -210 622 -210 634 c 2,28,-1
 -222 1322 l 1,29,30
 -208 1330 -208 1330 -195 1330 c 0,31,32
 -181 1330 -181 1330 -166 1322 c 1,33,-1
 -174 922 l 1,34,35
 -140 956 -140 956 -94 956 c 0,36,37
 -57 956 -57 956 -30 930 c 1,38,-1
 -37 1322 l 1,39,40
 -23 1330 -23 1330 -7 1330 c 256,41,42
 7 1330 7 1330 22 1322 c 1,43,-1
 14 922 l 1,44,45
 58 956 58 956 114 956 c 0,46,47
 136 956 136 956 157 947 c 128,-1,48
 178 938 178 938 192 922.5 c 128,-1,49
 206 907 206 907 214 886.5 c 128,-1,50
 222 866 222 866 222 843 c 0,51,52
 222 806 222 806 205 780 c 128,-1,53
 188 754 188 754 162 732.5 c 128,-1,54
 136 711 136 711 105 690.5 c 128,-1,55
 74 670 74 670 46 647 c 0,56,57
 36 637 36 637 27 623.5 c 128,-1,58
 18 610 18 610 3 610 c 0,59,60
 -7 610 -7 610 -14.5 616 c 128,-1,61
 -22 622 -22 622 -22 634 c 2,62,-1
 -24 754 l 1,18,19
-174 762 m 1,63,-1
 -174 749 l 2,64,65
 -174 711 -174 711 -172 670 c 1,66,67
 -138 704 -138 704 -113 745.5 c 128,-1,68
 -88 787 -88 787 -88 835 c 0,69,70
 -88 849 -88 849 -89 863 c 128,-1,71
 -90 877 -90 877 -95.5 888 c 128,-1,72
 -101 899 -101 899 -108.5 905.5 c 128,-1,73
 -116 912 -116 912 -128 912 c 0,74,75
 -150 912 -150 912 -162 890.5 c 128,-1,76
 -174 869 -174 869 -174 840 c 2,77,-1
 -174 762 l 1,63,-1
EndSplineSet
EndChar

StartChar: V
Encoding: 86 86 55
Width: 0
VWidth: 2274
Flags: W
LayerCount: 2
Fore
SplineSet
34 -317 m 2,0,1
 44 -317 44 -317 42 -331 c 2,2,-1
 42 -490 l 1,3,-1
 208 -490 l 2,4,5
 218 -490 218 -490 218 -502 c 2,6,-1
 218 -568 l 2,7,8
 218 -578 218 -578 208 -579 c 2,9,-1
 42 -579 l 1,10,-1
 42 -742 l 2,11,12
 42 -752 42 -752 34 -753 c 2,13,-1
 -31 -753 l 2,14,15
 -41 -753 -41 -753 -42 -742 c 2,16,-1
 -42 -579 l 1,17,-1
 -206 -579 l 2,18,19
 -216 -579 -216 -579 -216 -568 c 2,20,-1
 -216 -502 l 2,21,22
 -216 -492 -216 -492 -206 -490 c 2,23,-1
 -42 -490 l 1,24,-1
 -42 -331 l 2,25,26
 -42 -321 -42 -321 -31 -317 c 2,27,-1
 34 -317 l 2,0,1
EndSplineSet
EndChar

StartChar: W
Encoding: 87 87 56
Width: 682
VWidth: 2274
Flags: W
LayerCount: 2
Fore
SplineSet
169 2030 m 1,0,1
 395 1676 395 1676 506 1337 c 128,-1,2
 617 998 617 998 617 664 c 0,3,4
 617 328 617 328 506 -10 c 128,-1,5
 395 -348 395 -348 169 -707 c 1,6,-1
 -72 -707 l 1,7,8
 127 -361 127 -361 225.5 -19 c 128,-1,9
 324 323 324 323 324 664 c 0,10,11
 324 1010 324 1010 224.5 1350.5 c 128,-1,12
 125 1691 125 1691 -72 2030 c 1,13,-1
 169 2030 l 1,0,1
EndSplineSet
EndChar

StartChar: X
Encoding: 88 88 57
Width: 0
VWidth: 2274
Flags: W
LayerCount: 2
Fore
SplineSet
-67 -210 m 1,0,-1
 312 -726 l 1,1,-1
 186 -726 l 1,2,-1
 -195 -210 l 1,3,-1
 -67 -210 l 1,0,-1
EndSplineSet
EndChar

StartChar: Y
Encoding: 89 89 58
Width: 0
VWidth: 2274
Flags: W
LayerCount: 2
Fore
SplineSet
34 1194 m 2,0,1
 44 1194 44 1194 42 1186 c 2,2,-1
 42 1022 l 1,3,-1
 208 1022 l 2,4,5
 218 1022 218 1022 218 1013 c 2,6,-1
 218 946 l 2,7,8
 218 936 218 936 208 934 c 2,9,-1
 42 934 l 1,10,-1
 42 772 l 2,11,12
 42 762 42 762 34 762 c 2,13,-1
 -31 762 l 2,14,15
 -41 762 -41 762 -42 772 c 2,16,-1
 -42 934 l 1,17,-1
 -206 934 l 2,18,19
 -216 934 -216 934 -216 946 c 2,20,-1
 -216 1013 l 2,21,22
 -216 1023 -216 1023 -206 1022 c 2,23,-1
 -42 1022 l 1,24,-1
 -42 1186 l 2,25,26
 -42 1196 -42 1196 -31 1194 c 2,27,-1
 34 1194 l 2,0,1
EndSplineSet
EndChar

StartChar: Z
Encoding: 90 90 59
Width: 682
VWidth: 2274
Flags: W
LayerCount: 2
Fore
SplineSet
1013 1239 m 1,0,1
 827 1357 827 1357 643 1356 c 0,2,3
 499 1356 499 1356 414 1291 c 1,4,5
 332 1224 332 1224 332 1111 c 0,6,7
 332 1010 332 1010 387 958 c 0,8,9
 414 932 414 932 464.5 911 c 128,-1,10
 515 890 515 890 591 873 c 2,11,-1
 696 848 l 2,12,13
 802 824 802 824 878 786.5 c 128,-1,14
 954 749 954 749 1002 694.5 c 128,-1,15
 1050 640 1050 640 1074.5 569 c 128,-1,16
 1099 498 1099 498 1099 408 c 0,17,18
 1099 194 1099 194 969 82 c 128,-1,19
 839 -30 839 -30 583 -30 c 0,20,21
 373 -30 373 -30 158 61 c 1,22,-1
 158 276 l 1,23,24
 272 202 272 202 375 168.5 c 128,-1,25
 478 135 478 135 583 135 c 0,26,27
 737 135 737 135 822 203 c 0,28,29
 907 270 907 270 907 395 c 0,30,31
 907 507 907 507 847 566 c 0,32,33
 817 596 817 596 766 618 c 128,-1,34
 715 640 715 640 643 658 c 2,35,-1
 534 682 l 2,36,37
 432 706 432 706 357 741 c 128,-1,38
 282 776 282 776 234 824 c 0,39,40
 140 918 140 918 138 1078 c 0,41,42
 138 1278 138 1278 274 1398 c 1,43,44
 409 1520 409 1520 630 1521 c 0,45,46
 800 1521 800 1521 1013 1442 c 1,47,-1
 1013 1239 l 1,0,1
EndSplineSet
EndChar

StartChar: bracketleft
Encoding: 91 91 60
Width: 1081
VWidth: 2274
Flags: W
LayerCount: 2
Fore
SplineSet
462 101 m 1,0,-1
 462 78 l 2,1,2
 462 44 462 44 464 11 c 128,-1,3
 466 -22 466 -22 470 -54 c 1,4,5
 504 -27 504 -27 536 3.5 c 128,-1,6
 568 34 568 34 593 69.5 c 128,-1,7
 618 105 618 105 633 142.5 c 128,-1,8
 648 180 648 180 648 223 c 0,9,10
 648 249 648 249 643 273.5 c 128,-1,11
 638 298 638 298 628 318 c 128,-1,12
 618 338 618 338 603 350 c 128,-1,13
 588 362 588 362 566 362 c 0,14,15
 544 362 544 362 525 352 c 128,-1,16
 506 342 506 342 492 324 c 128,-1,17
 478 306 478 306 471 284.5 c 128,-1,18
 464 263 464 263 464 238 c 2,19,-1
 462 101 l 1,0,-1
384 90 m 1,20,21
 362 64 362 64 336 40 c 128,-1,22
 310 16 310 16 283 -7 c 128,-1,23
 256 -30 256 -30 227.5 -53 c 128,-1,24
 199 -76 199 -76 174 -101 c 0,25,26
 164 -109 164 -109 157 -120 c 128,-1,27
 150 -131 150 -131 142.5 -140.5 c 128,-1,28
 135 -150 135 -150 126.5 -157.5 c 128,-1,29
 118 -165 118 -165 105 -165 c 0,30,31
 87 -165 87 -165 74 -152.5 c 128,-1,32
 61 -140 61 -140 61 -122 c 2,33,-1
 41 1077 l 1,34,35
 53 1084 53 1084 64.5 1087.5 c 128,-1,36
 76 1091 76 1091 90 1091 c 256,37,38
 104 1091 104 1091 116 1086.5 c 128,-1,39
 128 1082 128 1082 140 1077 c 1,40,-1
 128 378 l 1,41,42
 154 408 154 408 190 423 c 128,-1,43
 226 438 226 438 264 438 c 0,44,45
 298 438 298 438 326 426 c 128,-1,46
 354 414 354 414 378 392 c 1,47,-1
 365 1077 l 1,48,49
 377 1084 377 1084 388.5 1087.5 c 128,-1,50
 400 1091 400 1091 414 1091 c 256,51,52
 428 1091 428 1091 441.5 1086.5 c 128,-1,53
 455 1082 455 1082 466 1077 c 1,54,-1
 452 378 l 1,55,56
 526 438 526 438 625 438 c 0,57,58
 665 438 665 438 699.5 422 c 128,-1,59
 734 406 734 406 760.5 378.5 c 128,-1,60
 787 351 787 351 800.5 315.5 c 128,-1,61
 814 280 814 280 814 240 c 0,62,63
 814 179 814 179 784 132.5 c 128,-1,64
 754 86 754 86 708 47 c 128,-1,65
 662 8 662 8 609.5 -26.5 c 128,-1,66
 557 -61 557 -61 508 -101 c 0,67,68
 498 -111 498 -111 490 -121 c 128,-1,69
 482 -131 482 -131 472 -140.5 c 128,-1,70
 462 -150 462 -150 452 -157.5 c 128,-1,71
 442 -165 442 -165 430 -165 c 0,72,73
 412 -165 412 -165 400 -152.5 c 128,-1,74
 388 -140 388 -140 388 -122 c 2,75,-1
 384 90 l 1,20,21
122 101 m 1,76,-1
 122 78 l 2,77,78
 122 44 122 44 123.5 11 c 128,-1,79
 125 -22 125 -22 131 -57 c 1,80,81
 161 -30 161 -30 186.5 2 c 128,-1,82
 212 34 212 34 231 70 c 128,-1,83
 250 106 250 106 262 144 c 128,-1,84
 274 182 274 182 274 223 c 0,85,86
 274 249 274 249 271 273.5 c 128,-1,87
 268 298 268 298 260.5 318 c 128,-1,88
 253 338 253 338 239.5 350 c 128,-1,89
 226 362 226 362 206 362 c 0,90,91
 186 362 186 362 170.5 352 c 128,-1,92
 155 342 155 342 145 324 c 128,-1,93
 135 306 135 306 129.5 284.5 c 128,-1,94
 124 263 124 263 124 238 c 2,95,-1
 122 101 l 1,76,-1
EndSplineSet
EndChar

StartChar: backslash
Encoding: 92 92 61
Width: 1368
VWidth: 2274
Flags: W
LayerCount: 2
Fore
SplineSet
294 1495 m 1,0,-1
 1078 -189 l 1,1,-1
 890 -189 l 1,2,-1
 102 1495 l 1,3,-1
 294 1495 l 1,0,-1
EndSplineSet
EndChar

StartChar: bracketright
Encoding: 93 93 62
Width: 775
VWidth: 2274
Flags: W
LayerCount: 2
Fore
SplineSet
37 1111 m 1,0,1
 59 1123 59 1123 84 1122 c 0,2,3
 110 1122 110 1122 131 1111 c 1,4,-1
 125 760 l 1,5,-1
 344 794 l 2,6,7
 347 794 347 794 347.5 795 c 128,-1,8
 348 796 348 796 350 796 c 0,9,10
 364 796 364 796 374 786 c 128,-1,11
 384 776 384 776 384 762 c 2,12,-1
 396 -391 l 1,13,14
 374 -403 374 -403 350 -402 c 256,15,16
 324 -402 324 -402 304 -391 c 1,17,-1
 308 -41 l 1,18,-1
 88 -74 l 2,19,20
 85 -74 85 -74 85.5 -75 c 128,-1,21
 86 -76 86 -76 84 -76 c 0,22,23
 70 -76 70 -76 60 -66 c 128,-1,24
 50 -56 50 -56 50 -42 c 2,25,-1
 37 1111 l 1,0,1
314 588 m 1,26,-1
 124 558 l 1,27,-1
 118 132 l 1,28,-1
 310 162 l 1,29,-1
 314 588 l 1,26,-1
EndSplineSet
EndChar

StartChar: asciicircum
Encoding: 94 94 63
Width: 0
VWidth: 2274
Flags: W
LayerCount: 2
Fore
SplineSet
50 971 m 0,0,1
 4 971 4 971 -19 944.5 c 128,-1,2
 -42 918 -42 918 -42 877 c 0,3,4
 -42 831 -42 831 -17.5 807 c 128,-1,5
 7 783 7 783 50 783 c 0,6,7
 96 783 96 783 118 806.5 c 128,-1,8
 140 830 140 830 140 877 c 0,9,10
 140 919 140 919 116 945 c 128,-1,11
 92 971 92 971 50 971 c 0,0,1
-131 870 m 0,12,13
 -131 976 -131 976 -46 1010 c 1,14,15
 -80 1028 -80 1028 -100 1057 c 128,-1,16
 -120 1086 -120 1086 -120 1129 c 0,17,18
 -120 1200 -120 1200 -73.5 1237 c 128,-1,19
 -27 1274 -27 1274 50 1274 c 256,20,21
 128 1274 128 1274 173.5 1236 c 128,-1,22
 219 1198 219 1198 219 1129 c 0,23,24
 219 1087 219 1087 199.5 1057 c 128,-1,25
 180 1027 180 1027 144 1010 c 1,26,27
 185 992 185 992 207.5 956 c 128,-1,28
 230 920 230 920 230 870 c 0,29,30
 230 796 230 796 182.5 751.5 c 128,-1,31
 135 707 135 707 50 707 c 256,32,33
 -36 707 -36 707 -83.5 749.5 c 128,-1,34
 -131 792 -131 792 -131 870 c 0,12,13
-27 1122 m 0,35,36
 -27 1044 -27 1044 50 1044 c 0,37,38
 126 1044 126 1044 125 1122 c 0,39,40
 125 1202 125 1202 50 1202 c 0,41,42
 -27 1202 -27 1202 -27 1122 c 0,35,36
EndSplineSet
EndChar

StartChar: underscore
Encoding: 95 95 64
Width: 0
VWidth: 2274
Flags: W
LayerCount: 2
Fore
SplineSet
-80 1551 m 2,0,1
 -80 1548 -80 1548 -81 1543.5 c 128,-1,2
 -82 1539 -82 1539 -82 1534 c 0,3,4
 -82 1516 -82 1516 -80 1495.5 c 128,-1,5
 -78 1475 -78 1475 -78 1453 c 1,6,7
 -56 1471 -56 1471 -34 1490.5 c 128,-1,8
 -12 1510 -12 1510 5 1530.5 c 128,-1,9
 22 1551 22 1551 33 1574.5 c 128,-1,10
 44 1598 44 1598 44 1628 c 256,11,12
 44 1658 44 1658 30 1688 c 0,13,14
 16 1718 16 1718 -12 1718 c 0,15,16
 -42 1718 -42 1718 -60 1694.5 c 128,-1,17
 -78 1671 -78 1671 -78 1638 c 2,18,-1
 -80 1551 l 2,0,1
-142 2166 m 1,19,20
 -124 2176 -124 2176 -110 2178 c 0,21,22
 -96 2178 -96 2178 -78 2166 c 1,23,-1
 -88 1726 l 1,24,25
 -62 1744 -62 1744 -34.5 1754.5 c 128,-1,26
 -7 1765 -7 1765 26 1765 c 0,27,28
 76 1765 76 1765 110 1726 c 256,29,30
 141 1688 141 1688 142 1638 c 0,31,32
 142 1600 142 1600 124 1570 c 128,-1,33
 106 1540 106 1540 77 1515.5 c 128,-1,34
 48 1491 48 1491 14 1468.5 c 128,-1,35
 -20 1446 -20 1446 -50 1423 c 0,36,37
 -66 1411 -66 1411 -71 1401 c 0,38,39
 -78 1391 -78 1391 -90 1390 c 0,40,41
 -102 1390 -102 1390 -115 1394 c 128,-1,42
 -128 1398 -128 1398 -128 1408 c 2,43,-1
 -142 2166 l 1,19,20
EndSplineSet
EndChar

StartChar: grave
Encoding: 96 96 65
Width: 1368
VWidth: 2274
Flags: W
LayerCount: 2
Fore
SplineSet
478 1638 m 1,0,-1
 758 1262 l 1,1,-1
 604 1262 l 1,2,-1
 278 1638 l 1,3,-1
 478 1638 l 1,0,-1
EndSplineSet
EndChar

StartChar: a
Encoding: 97 97 66
Width: 1190
VWidth: 2274
Flags: W
LayerCount: 2
Fore
SplineSet
990 874 m 1,0,1
 838 1016 838 1016 643 1016 c 0,2,3
 448 1016 448 1016 348 899 c 0,4,5
 246 780 246 780 246 558 c 256,6,7
 246 336 246 336 348.5 219 c 128,-1,8
 451 102 451 102 643 102 c 0,9,10
 839 102 839 102 990 246 c 1,11,-1
 990 86 l 1,12,13
 832 -22 832 -22 634 -22 c 0,14,15
 381 -22 381 -22 234 135 c 1,16,17
 88 290 88 290 86 558 c 256,18,19
 86 828 86 828 234 984 c 1,20,21
 380 1139 380 1139 634 1141 c 0,22,23
 837 1141 837 1141 990 1035 c 1,24,-1
 990 874 l 1,0,1
EndSplineSet
EndChar

StartChar: b
Encoding: 98 98 67
Width: 1081
VWidth: 2274
Flags: W
LayerCount: 2
Fore
SplineSet
698 430 m 0,0,1
 698 580 698 580 636 663 c 128,-1,2
 574 746 574 746 462 746 c 0,3,4
 352 746 352 746 290 662 c 0,5,6
 229 580 229 580 226 430 c 256,7,8
 226 280 226 280 288 198 c 128,-1,9
 350 116 350 116 462 116 c 256,10,11
 574 116 574 116 634 199 c 1,12,13
 698 280 698 280 698 430 c 0,0,1
836 105 m 2,14,15
 836 -109 836 -109 741 -214 c 0,16,17
 648 -319 648 -319 451 -317 c 0,18,19
 377 -317 377 -317 312 -308 c 0,20,21
 248 -296 248 -296 186 -274 c 1,22,-1
 186 -142 l 1,23,24
 306 -209 306 -209 426 -206 c 0,25,26
 696 -206 696 -206 698 80 c 2,27,-1
 698 148 l 1,28,29
 612 0 612 0 429 0 c 0,30,31
 275 0 275 0 178 118 c 256,32,33
 84 236 84 236 85 430.5 c 128,-1,34
 86 625 86 625 178 742 c 0,35,36
 272 860 272 860 429 860 c 0,37,38
 615 860 615 860 698 715 c 1,39,-1
 698 840 l 1,40,-1
 836 840 l 1,41,-1
 836 105 l 2,14,15
EndSplineSet
EndChar

StartChar: c
Encoding: 99 99 68
Width: 1048
VWidth: 2274
Flags: W
LayerCount: 2
Fore
SplineSet
862 387 m 1,0,-1
 230 387 l 1,1,2
 240 245 240 245 315.5 169.5 c 128,-1,3
 391 94 391 94 530 94 c 0,4,5
 610 94 610 94 684 114.5 c 128,-1,6
 758 135 758 135 830 174 c 1,7,-1
 830 42 l 1,8,9
 756 11 756 11 679 -7 c 0,10,11
 605 -23 605 -23 523 -22 c 0,12,13
 320 -22 320 -22 203 94 c 256,14,15
 87 212 87 212 86 412 c 0,16,17
 86 618 86 618 196 739 c 128,-1,18
 306 860 306 860 498 860 c 0,19,20
 668 860 668 860 764 750 c 0,21,22
 862 640 862 640 862 455 c 2,23,-1
 862 387 l 1,0,-1
726 494 m 1,24,25
 726 606 726 606 662 677 c 1,26,27
 601 744 601 744 498 742 c 0,28,29
 382 742 382 742 314 678 c 0,30,31
 243 611 243 611 234 494 c 1,32,-1
 726 494 l 1,24,25
EndSplineSet
EndChar

StartChar: d
Encoding: 100 100 69
Width: 1077
VWidth: 2274
Flags: W
LayerCount: 2
Fore
SplineSet
150 1120 m 1,0,-1
 858 1120 l 1,1,-1
 858 992 l 1,2,-1
 302 992 l 1,3,-1
 302 662 l 1,4,-1
 836 662 l 1,5,-1
 836 534 l 1,6,-1
 302 534 l 1,7,-1
 302 128 l 1,8,-1
 873 128 l 1,9,-1
 873 0 l 1,10,-1
 150 0 l 1,11,-1
 150 1120 l 1,0,-1
EndSplineSet
EndChar

StartChar: e
Encoding: 101 101 70
Width: 1482
VWidth: 2274
Flags: W
LayerCount: 2
Fore
SplineSet
131 1120 m 1,0,-1
 314 1120 l 1,1,-1
 314 0 l 1,2,-1
 131 0 l 1,3,-1
 131 1120 l 1,0,-1
131 1556 m 1,4,-1
 314 1556 l 1,5,-1
 314 1322 l 1,6,-1
 131 1322 l 1,7,-1
 131 1556 l 1,4,-1
638 1120 m 1,8,-1
 822 1120 l 1,9,-1
 822 0 l 1,10,-1
 638 0 l 1,11,-1
 638 1120 l 1,8,-1
638 1556 m 1,12,-1
 822 1556 l 1,13,-1
 822 1322 l 1,14,-1
 638 1322 l 1,15,-1
 638 1556 l 1,12,-1
1150 1120 m 1,16,-1
 1334 1120 l 1,17,-1
 1334 0 l 1,18,-1
 1150 0 l 1,19,-1
 1150 1120 l 1,16,-1
1150 1556 m 1,20,-1
 1334 1556 l 1,21,-1
 1334 1322 l 1,22,-1
 1150 1322 l 1,23,-1
 1150 1556 l 1,20,-1
EndSplineSet
EndChar

StartChar: f
Encoding: 102 102 71
Width: 979
VWidth: 2274
Flags: W
LayerCount: 2
Fore
SplineSet
150 1120 m 1,0,-1
 794 1120 l 1,1,-1
 794 992 l 1,2,-1
 302 992 l 1,3,-1
 302 662 l 1,4,-1
 746 662 l 1,5,-1
 746 534 l 1,6,-1
 302 534 l 1,7,-1
 302 0 l 1,8,-1
 150 0 l 1,9,-1
 150 1120 l 1,0,-1
EndSplineSet
EndChar

StartChar: g
Encoding: 103 103 72
Width: 1319
VWidth: 2274
Flags: W
LayerCount: 2
Fore
SplineSet
915 462 m 1,0,-1
 666 462 l 1,1,-1
 666 587 l 1,2,-1
 1065 587 l 1,3,-1
 1065 105 l 1,4,5
 977 44 977 44 871 10 c 0,6,7
 768 -21 768 -21 647 -22 c 0,8,9
 384 -22 384 -22 234 131 c 0,10,11
 86 285 86 285 86 558 c 0,12,13
 86 832 86 832 234 986 c 256,14,15
 382 1140 382 1140 647 1141 c 0,16,17
 757 1141 757 1141 853.5 1113.5 c 128,-1,18
 950 1086 950 1086 1035 1035 c 1,19,-1
 1035 873 l 1,20,21
 866 1017 866 1017 658 1016 c 0,22,23
 246 1016 246 1016 246 558 c 0,24,25
 246 329 246 329 348.5 215.5 c 128,-1,26
 451 102 451 102 658 102 c 0,27,28
 740 102 740 102 802 116.5 c 128,-1,29
 864 131 864 131 915 159 c 1,30,-1
 915 462 l 1,0,-1
EndSplineSet
EndChar

StartChar: h
Encoding: 104 104 73
Width: 1165
VWidth: 2274
Flags: W
LayerCount: 2
Fore
SplineSet
527 971 m 1,0,-1
 317 414 l 1,1,-1
 730 414 l 1,2,-1
 527 971 l 1,0,-1
440 1120 m 1,3,-1
 610 1120 l 1,4,-1
 1039 0 l 1,5,-1
 882 0 l 1,6,-1
 779 286 l 1,7,-1
 274 286 l 1,8,-1
 172 0 l 1,9,-1
 12 0 l 1,10,-1
 440 1120 l 1,3,-1
EndSplineSet
EndChar

StartChar: i
Encoding: 105 105 74
Width: 0
VWidth: 2274
Flags: W
LayerCount: 2
Fore
SplineSet
-1402 835 m 1,0,-1
 102 835 l 1,1,-1
 102 692 l 1,2,-1
 -1402 692 l 1,3,-1
 -1402 835 l 1,0,-1
EndSplineSet
EndChar

StartChar: j
Encoding: 106 106 75
Width: 1168
VWidth: 2274
Flags: W
LayerCount: 2
Fore
SplineSet
302 534 m 1,0,-1
 302 125 l 1,1,-1
 546 125 l 2,2,3
 668 125 668 125 727.5 175.5 c 128,-1,4
 787 226 787 226 787 331 c 0,5,6
 787 437 787 437 727.5 485.5 c 128,-1,7
 668 534 668 534 546 534 c 2,8,-1
 302 534 l 1,0,-1
302 994 m 1,9,-1
 302 658 l 1,10,-1
 527 658 l 2,11,12
 637 658 637 658 691.5 699.5 c 128,-1,13
 746 741 746 741 746 826 c 0,14,15
 746 995 746 995 527 994 c 2,16,-1
 302 994 l 1,9,-1
150 1120 m 1,17,-1
 538 1120 l 2,18,19
 712 1120 712 1120 805.5 1049.5 c 128,-1,20
 899 979 899 979 899 843 c 0,21,22
 899 741 899 741 850.5 679.5 c 128,-1,23
 802 618 802 618 711 604 c 1,24,25
 823 580 823 580 884.5 505 c 128,-1,26
 946 430 946 430 946 314 c 0,27,28
 946 164 946 164 843 82 c 0,29,30
 741 0 741 0 554 0 c 2,31,-1
 150 0 l 1,32,-1
 150 1120 l 1,17,-1
EndSplineSet
EndChar

StartChar: k
Encoding: 107 107 76
Width: 0
VWidth: 2274
Flags: W
LayerCount: 2
Fore
SplineSet
-1910 854 m 1,0,-1
 122 854 l 1,1,-1
 122 712 l 1,2,-1
 -1910 712 l 1,3,-1
 -1910 854 l 1,0,-1
EndSplineSet
EndChar

StartChar: l
Encoding: 108 108 77
Width: 1428
VWidth: 2274
Flags: W
LayerCount: 2
Fore
SplineSet
1138 915 m 1,0,-1
 1138 822 l 1,1,-1
 1032 822 l 2,2,3
 972 822 972 822 949 798.5 c 128,-1,4
 926 775 926 775 926 711 c 2,5,-1
 926 652 l 1,6,-1
 1108 652 l 1,7,-1
 1108 566 l 1,8,-1
 926 566 l 1,9,-1
 926 -20 l 1,10,-1
 817 -20 l 1,11,-1
 817 566 l 1,12,-1
 711 566 l 1,13,-1
 711 652 l 1,14,-1
 817 652 l 1,15,-1
 817 698 l 2,16,17
 817 812 817 812 868.5 863.5 c 128,-1,18
 920 915 920 915 1035 915 c 2,19,-1
 1138 915 l 1,0,-1
366 594 m 0,20,21
 276 594 276 594 226 527 c 256,22,23
 176 456 176 456 174 334 c 0,24,25
 174 214 174 214 225 145 c 128,-1,26
 276 76 276 76 366 76 c 0,27,28
 454 76 454 76 506 146 c 0,29,30
 558 218 558 218 558 334 c 256,31,32
 558 452 558 452 506 524 c 1,33,34
 454 594 454 594 366 594 c 0,20,21
366 689 m 0,35,36
 510 689 510 689 592 594 c 1,37,38
 674 503 674 503 674 334 c 0,39,40
 674 168 674 168 592 76 c 256,41,42
 510 -18 510 -18 366 -18 c 0,43,44
 220 -18 220 -18 138 76 c 256,45,46
 56 170 56 170 57 334 c 0,47,48
 57 500 57 500 138 594 c 0,49,50
 220 689 220 689 366 689 c 0,35,36
EndSplineSet
EndChar

StartChar: m
Encoding: 109 109 78
Width: 1081
VWidth: 2274
Flags: W
LayerCount: 2
Fore
SplineSet
749 418 m 256,0,1
 749 570 749 570 686 658 c 0,2,3
 625 746 625 746 515 746 c 0,4,5
 405 746 405 746 342 658 c 1,6,7
 281 570 281 570 278 418 c 256,8,9
 278 266 278 266 342 180 c 1,10,11
 403 94 403 94 515 94 c 0,12,13
 625 94 625 94 686 180 c 0,14,15
 749 266 749 266 749 418 c 256,0,1
278 715 m 1,16,17
 364 861 364 861 546 860 c 0,18,19
 698 860 698 860 794 738 c 0,20,21
 889 616 889 616 890 418 c 256,22,23
 890 219 890 219 794 101 c 0,24,25
 699 -21 699 -21 546 -22 c 0,26,27
 364 -22 364 -22 278 125 c 1,28,-1
 278 0 l 1,29,-1
 140 0 l 1,30,-1
 140 1167 l 1,31,-1
 278 1167 l 1,32,-1
 278 715 l 1,16,17
EndSplineSet
EndChar

StartChar: n
Encoding: 110 110 79
Width: 1043
VWidth: 2274
Flags: W
LayerCount: 2
Fore
SplineSet
527 422 m 2,0,1
 357 422 357 422 294 384 c 1,2,3
 227 346 227 346 230 253 c 0,4,5
 230 179 230 179 278.5 136.5 c 128,-1,6
 327 94 327 94 410 94 c 0,7,8
 524 94 524 94 594 174 c 1,9,10
 665 258 665 258 664 392 c 2,11,-1
 664 422 l 1,12,-1
 527 422 l 2,0,1
802 0 m 1,13,-1
 664 0 l 1,14,-1
 664 128 l 1,15,16
 616 50 616 50 546 14 c 128,-1,17
 476 -22 476 -22 374 -22 c 0,18,19
 243 -22 243 -22 169 50 c 0,20,21
 93 124 93 124 91 246 c 0,22,23
 91 532 91 532 470 530 c 2,24,-1
 664 530 l 1,25,-1
 664 544 l 2,26,27
 664 638 664 638 601 690 c 128,-1,28
 538 742 538 742 426 742 c 0,29,30
 280 742 280 742 154 674 c 1,31,-1
 154 802 l 1,32,33
 304 859 304 859 440 860 c 0,34,35
 622 860 622 860 712 766 c 128,-1,36
 802 672 802 672 802 478 c 2,37,-1
 802 0 l 1,13,-1
EndSplineSet
EndChar

StartChar: o
Encoding: 111 111 80
Width: 4000
VWidth: 2274
Flags: W
LayerCount: 2
Fore
SplineSet
1974 736 m 1,0,-1
 2093 736 l 1,1,-1
 2093 8 l 2,2,3
 2093 -128 2093 -128 2038 -189 c 0,4,5
 1986 -249 1986 -249 1872 -250 c 2,6,-1
 1826 -250 l 1,7,-1
 1826 -150 l 1,8,-1
 1858 -150 l 2,9,10
 1925 -150 1925 -150 1951 -120 c 0,11,12
 1975 -90 1975 -90 1974 8 c 2,13,-1
 1974 736 l 1,0,-1
1974 1014 m 1,14,-1
 2093 1014 l 1,15,-1
 2093 866 l 1,16,-1
 1974 866 l 1,17,-1
 1974 1014 l 1,14,-1
1547 361 m 2,18,19
 1403 361 1403 361 1347 327 c 0,20,21
 1293 296 1293 296 1295 216 c 0,22,23
 1295 155 1295 155 1334.5 117.5 c 128,-1,24
 1374 80 1374 80 1446 80 c 0,25,26
 1544 80 1544 80 1602.5 149.5 c 129,-1,27
 1661 219 1661 219 1662 334 c 2,28,-1
 1662 361 l 1,29,-1
 1547 361 l 2,18,19
1781 0 m 1,30,-1
 1662 0 l 1,31,-1
 1662 110 l 1,32,33
 1621 43 1621 43 1561.5 12.5 c 128,-1,34
 1502 -18 1502 -18 1415 -18 c 0,35,36
 1303 -18 1303 -18 1239 42 c 0,37,38
 1172 103 1172 103 1175 210 c 0,39,40
 1175 454 1175 454 1499 455 c 2,41,-1
 1662 455 l 1,42,-1
 1662 464 l 2,43,44
 1662 546 1662 546 1609 590 c 128,-1,45
 1556 634 1556 634 1458 634 c 0,46,47
 1397 634 1397 634 1340 620 c 128,-1,48
 1283 606 1283 606 1227 574 c 1,49,-1
 1227 685 l 1,50,51
 1362 735 1362 735 1470 734 c 0,52,53
 1628 734 1628 734 1704.5 654 c 128,-1,54
 1781 574 1781 574 1781 410 c 2,55,-1
 1781 0 l 1,30,-1
2595 634 m 0,56,57
 2547 634 2547 634 2509 615 c 128,-1,58
 2471 596 2471 596 2444.5 560 c 128,-1,59
 2418 524 2418 524 2404.5 473 c 128,-1,60
 2391 422 2391 422 2391 358 c 0,61,62
 2391 227 2391 227 2444.5 154.5 c 128,-1,63
 2498 82 2498 82 2595 82 c 0,64,65
 2686 82 2686 82 2742 155 c 0,66,67
 2796 229 2796 229 2799 358 c 0,68,69
 2799 419 2799 419 2785 471 c 128,-1,70
 2771 523 2771 523 2743.5 558.5 c 128,-1,71
 2716 594 2716 594 2678.5 614 c 128,-1,72
 2641 634 2641 634 2595 634 c 0,56,57
2595 734 m 256,73,74
 2749 734 2749 734 2837 634 c 128,-1,75
 2925 534 2925 534 2923 358 c 256,76,77
 2923 182 2923 182 2836 82 c 128,-1,78
 2749 -18 2749 -18 2595 -18 c 256,79,80
 2441 -18 2441 -18 2353 82 c 0,81,82
 2267 183 2267 183 2267 358 c 0,83,84
 2267 532 2267 532 2353 634 c 1,85,86
 2441 734 2441 734 2595 734 c 256,73,74
3514 608 m 1,87,88
 3494 620 3494 620 3471.5 625 c 128,-1,89
 3449 630 3449 630 3420 630 c 0,90,91
 3319 630 3319 630 3267 566 c 128,-1,92
 3215 502 3215 502 3215 378 c 2,93,-1
 3215 3 l 1,94,-1
 3095 3 l 1,95,-1
 3095 719 l 1,96,-1
 3215 719 l 1,97,-1
 3215 606 l 1,98,99
 3286 737 3286 737 3454 736 c 0,100,101
 3478 736 3478 736 3514 730 c 1,102,-1
 3514 608 l 1,87,88
562 579 m 1,103,104
 608 657 608 657 668 695.5 c 128,-1,105
 728 734 728 734 814 734 c 0,106,107
 926 734 926 734 986.5 657 c 128,-1,108
 1047 580 1047 580 1047 434 c 2,109,-1
 1047 0 l 1,110,-1
 928 0 l 1,111,-1
 928 430 l 2,112,113
 928 633 928 633 780 632 c 0,114,115
 734 632 734 632 698 616 c 128,-1,116
 662 600 662 600 636 571 c 128,-1,117
 610 542 610 542 596.5 500.5 c 128,-1,118
 583 459 583 459 583 406 c 2,119,-1
 583 0 l 1,120,-1
 464 0 l 1,121,-1
 464 430 l 2,122,123
 464 536 464 536 428 584 c 128,-1,124
 392 632 392 632 314 632 c 0,125,126
 268 632 268 632 233.5 616 c 128,-1,127
 199 600 199 600 172.5 571 c 128,-1,128
 146 542 146 542 132 500.5 c 128,-1,129
 118 459 118 459 118 406 c 2,130,-1
 118 0 l 1,131,-1
 0 0 l 1,132,-1
 0 719 l 1,133,-1
 118 719 l 1,134,-1
 118 606 l 1,135,136
 159 673 159 673 214.5 703.5 c 128,-1,137
 270 734 270 734 350 734 c 256,138,139
 428 734 428 734 482 693.5 c 128,-1,140
 536 653 536 653 562 579 c 1,103,104
EndSplineSet
EndChar

StartChar: p
Encoding: 112 112 81
Width: 4093
VWidth: 2274
Flags: W
LayerCount: 2
Fore
SplineSet
1241 715 m 1,0,-1
 1359 715 l 1,1,-1
 1359 -3 l 1,2,-1
 1241 -3 l 1,3,-1
 1241 715 l 1,0,-1
1241 994 m 1,4,-1
 1359 994 l 1,5,-1
 1359 845 l 1,6,-1
 1241 845 l 1,7,-1
 1241 994 l 1,4,-1
2599 634 m 0,8,9
 2551 634 2551 634 2513.5 615 c 128,-1,10
 2476 596 2476 596 2449 560 c 128,-1,11
 2422 524 2422 524 2408.5 473 c 128,-1,12
 2395 422 2395 422 2395 358 c 0,13,14
 2395 227 2395 227 2448.5 154.5 c 128,-1,15
 2502 82 2502 82 2599 82 c 0,16,17
 2692 82 2692 82 2748 155 c 0,18,19
 2803 228 2803 228 2802 358 c 0,20,21
 2802 421 2802 421 2788 472 c 128,-1,22
 2774 523 2774 523 2747 559.5 c 128,-1,23
 2720 596 2720 596 2682.5 615 c 128,-1,24
 2645 634 2645 634 2599 634 c 0,8,9
2599 734 m 256,25,26
 2753 734 2753 734 2840 634 c 0,27,28
 2928 533 2928 533 2928 358 c 256,29,30
 2928 182 2928 182 2840 82 c 0,31,32
 2752 -19 2752 -19 2599 -18 c 256,33,34
 2445 -18 2445 -18 2357 82 c 0,35,36
 2269 183 2269 183 2269 358 c 0,37,38
 2269 533 2269 533 2357 634 c 1,39,40
 2445 734 2445 734 2599 734 c 256,25,26
3520 608 m 1,41,42
 3500 620 3500 620 3476.5 625 c 128,-1,43
 3453 630 3453 630 3424 630 c 0,44,45
 3323 630 3323 630 3271 566.5 c 128,-1,46
 3219 503 3219 503 3219 379 c 2,47,-1
 3219 3 l 1,48,-1
 3100 3 l 1,49,-1
 3100 719 l 1,50,-1
 3219 719 l 1,51,-1
 3219 608 l 1,52,53
 3290 737 3290 737 3458 736 c 0,54,55
 3482 736 3482 736 3518 730 c 1,56,-1
 3520 608 l 1,41,42
562 579 m 1,57,58
 606 657 606 657 667 695.5 c 128,-1,59
 728 734 728 734 813 734 c 0,60,61
 925 734 925 734 986 657 c 128,-1,62
 1047 580 1047 580 1047 434 c 2,63,-1
 1047 0 l 1,64,-1
 928 0 l 1,65,-1
 928 429 l 2,66,67
 928 632 928 632 780 632 c 0,68,69
 736 632 736 632 699 616 c 128,-1,70
 662 600 662 600 636 571 c 128,-1,71
 610 542 610 542 596.5 499.5 c 128,-1,72
 583 457 583 457 583 406 c 2,73,-1
 583 0 l 1,74,-1
 464 0 l 1,75,-1
 464 429 l 2,76,77
 464 535 464 535 428 583.5 c 128,-1,78
 392 632 392 632 314 632 c 0,79,80
 270 632 270 632 233.5 616 c 128,-1,81
 197 600 197 600 171.5 571 c 128,-1,82
 146 542 146 542 132 499.5 c 128,-1,83
 118 457 118 457 118 406 c 2,84,-1
 118 0 l 1,85,-1
 0 0 l 1,86,-1
 0 717 l 1,87,-1
 118 717 l 1,88,-1
 118 606 l 1,89,90
 159 673 159 673 214.5 703.5 c 128,-1,91
 270 734 270 734 349 734 c 256,92,93
 427 734 427 734 481.5 693.5 c 128,-1,94
 536 653 536 653 562 579 c 1,57,58
2143 0 m 1,95,-1
 2025 0 l 1,96,-1
 2025 429 l 2,97,98
 2025 632 2025 632 1867 632 c 0,99,100
 1770 632 1770 632 1716 571.5 c 128,-1,101
 1662 511 1662 511 1662 406 c 2,102,-1
 1662 0 l 1,103,-1
 1543 0 l 1,104,-1
 1543 717 l 1,105,-1
 1662 717 l 1,106,-1
 1662 606 l 1,107,108
 1746 734 1746 734 1893 734 c 0,109,110
 2143 734 2143 734 2143 434 c 2,111,-1
 2143 0 l 1,95,-1
EndSplineSet
EndChar

StartChar: q
Encoding: 113 113 82
Width: 364
VWidth: 2274
Flags: W
LayerCount: 2
Fore
SplineSet
142 1120 m 1,0,-1
 327 1120 l 1,1,-1
 327 0 l 1,2,-1
 142 0 l 1,3,-1
 142 1120 l 1,0,-1
142 1556 m 1,4,-1
 327 1556 l 1,5,-1
 327 1322 l 1,6,-1
 142 1322 l 1,7,-1
 142 1556 l 1,4,-1
EndSplineSet
EndChar

StartChar: r
Encoding: 114 114 83
Width: 1853
VWidth: 2274
Flags: W
LayerCount: 2
Fore
SplineSet
195 1120 m 1,0,-1
 378 1120 l 1,1,-1
 378 0 l 1,2,-1
 195 0 l 1,3,-1
 195 1120 l 1,0,-1
195 1556 m 1,4,-1
 378 1556 l 1,5,-1
 378 1322 l 1,6,-1
 195 1322 l 1,7,-1
 195 1556 l 1,4,-1
579 1120 m 1,8,-1
 772 1120 l 1,9,-1
 1122 180 l 1,10,-1
 1475 1120 l 1,11,-1
 1667 1120 l 1,12,-1
 1246 0 l 1,13,-1
 998 0 l 1,14,-1
 579 1120 l 1,8,-1
EndSplineSet
EndChar

StartChar: s
Encoding: 115 115 84
Width: 1312
VWidth: 2274
Flags: W
LayerCount: 2
Fore
SplineSet
302 994 m 1,0,-1
 302 125 l 1,1,-1
 486 125 l 2,2,3
 719 125 719 125 824 230 c 1,4,5
 932 335 932 335 933 562 c 0,6,7
 933 785 933 785 824 890 c 0,8,9
 718 995 718 995 486 994 c 2,10,-1
 302 994 l 1,0,-1
150 1120 m 1,11,-1
 462 1120 l 2,12,13
 789 1120 789 1120 941 984 c 0,14,15
 1093 849 1093 849 1092 562 c 0,16,17
 1092 272 1092 272 938 136 c 0,18,19
 786 0 786 0 462 0 c 2,20,-1
 150 0 l 1,21,-1
 150 1120 l 1,11,-1
EndSplineSet
EndChar

StartChar: t
Encoding: 116 116 85
Width: 1278
VWidth: 2274
Flags: W
LayerCount: 2
Fore
SplineSet
61 1120 m 1,0,-1
 256 1120 l 1,1,-1
 606 180 l 1,2,-1
 956 1120 l 1,3,-1
 1150 1120 l 1,4,-1
 730 0 l 1,5,-1
 482 0 l 1,6,-1
 61 1120 l 1,0,-1
EndSplineSet
EndChar

StartChar: u
Encoding: 117 117 86
Width: 2222
VWidth: 2274
Flags: W
LayerCount: 2
Fore
SplineSet
61 1120 m 1,0,-1
 256 1120 l 1,1,-1
 606 180 l 1,2,-1
 956 1120 l 1,3,-1
 1150 1120 l 1,4,-1
 730 0 l 1,5,-1
 482 0 l 1,6,-1
 61 1120 l 1,0,-1
1295 1122 m 1,7,-1
 1479 1122 l 1,8,-1
 1479 3 l 1,9,-1
 1295 3 l 1,10,-1
 1295 1122 l 1,7,-1
1295 1559 m 1,11,-1
 1479 1559 l 1,12,-1
 1479 1326 l 1,13,-1
 1295 1326 l 1,14,-1
 1295 1559 l 1,11,-1
1807 1122 m 1,15,-1
 1991 1122 l 1,16,-1
 1991 3 l 1,17,-1
 1807 3 l 1,18,-1
 1807 1122 l 1,15,-1
1807 1559 m 1,19,-1
 1991 1559 l 1,20,-1
 1991 1326 l 1,21,-1
 1807 1326 l 1,22,-1
 1807 1559 l 1,19,-1
EndSplineSet
EndChar

StartChar: v
Encoding: 118 118 87
Width: 599
VWidth: 2274
Flags: W
LayerCount: 2
Fore
SplineSet
570 1167 m 1,0,-1
 570 1052 l 1,1,-1
 438 1052 l 2,2,3
 362 1052 362 1052 334 1022 c 0,4,5
 304 992 304 992 306 915 c 2,6,-1
 306 840 l 1,7,-1
 534 840 l 1,8,-1
 534 734 l 1,9,-1
 306 734 l 1,10,-1
 306 0 l 1,11,-1
 166 0 l 1,12,-1
 166 734 l 1,13,-1
 34 734 l 1,14,-1
 34 840 l 1,15,-1
 166 840 l 1,16,-1
 166 899 l 2,17,18
 166 1037 166 1037 232 1102 c 128,-1,19
 298 1167 298 1167 440 1167 c 2,20,-1
 570 1167 l 1,0,-1
EndSplineSet
EndChar

StartChar: w
Encoding: 119 119 88
Width: 921
VWidth: 2274
Flags: W
LayerCount: 2
Fore
SplineSet
135 1120 m 1,0,-1
 317 1120 l 1,1,-1
 317 0 l 1,2,-1
 135 0 l 1,3,-1
 135 1120 l 1,0,-1
135 1556 m 1,4,-1
 317 1556 l 1,5,-1
 317 1322 l 1,6,-1
 135 1322 l 1,7,-1
 135 1556 l 1,4,-1
643 1120 m 1,8,-1
 826 1120 l 1,9,-1
 826 0 l 1,10,-1
 643 0 l 1,11,-1
 643 1120 l 1,8,-1
643 1556 m 1,12,-1
 826 1556 l 1,13,-1
 826 1322 l 1,14,-1
 643 1322 l 1,15,-1
 643 1556 l 1,12,-1
EndSplineSet
EndChar

StartChar: x
Encoding: 120 120 89
Width: 1081
VWidth: 2274
Flags: W
LayerCount: 2
Fore
SplineSet
698 1167 m 1,0,-1
 836 1167 l 1,1,-1
 836 0 l 1,2,-1
 698 0 l 1,3,-1
 698 125 l 1,4,5
 612 -23 612 -23 429 -22 c 0,6,7
 277 -22 277 -22 180 101 c 0,8,9
 86 221 86 221 86 418 c 0,10,11
 86 618 86 618 180 738 c 0,12,13
 275 860 275 860 429 860 c 0,14,15
 613 860 613 860 698 715 c 1,16,-1
 698 1167 l 1,0,-1
226 418 m 256,17,18
 226 266 226 266 290 180 c 1,19,20
 351 94 351 94 462 94 c 256,21,22
 572 94 572 94 634 180 c 0,23,24
 695 266 695 266 698 418 c 256,25,26
 698 570 698 570 634 658 c 256,27,28
 573 746 573 746 462 746 c 0,29,30
 352 746 352 746 290 658 c 1,31,32
 226 570 226 570 226 418 c 256,17,18
EndSplineSet
EndChar

StartChar: y
Encoding: 121 121 90
Width: 1641
VWidth: 2274
Flags: W
LayerCount: 2
Fore
SplineSet
61 1120 m 1,0,-1
 256 1120 l 1,1,-1
 606 180 l 1,2,-1
 956 1120 l 1,3,-1
 1150 1120 l 1,4,-1
 730 0 l 1,5,-1
 482 0 l 1,6,-1
 61 1120 l 1,0,-1
1295 1122 m 1,7,-1
 1479 1122 l 1,8,-1
 1479 3 l 1,9,-1
 1295 3 l 1,10,-1
 1295 1122 l 1,7,-1
1295 1559 m 1,11,-1
 1479 1559 l 1,12,-1
 1479 1326 l 1,13,-1
 1295 1326 l 1,14,-1
 1295 1559 l 1,11,-1
EndSplineSet
EndChar

StartChar: z
Encoding: 122 122 91
Width: 937
VWidth: 2274
Flags: W
LayerCount: 2
Fore
SplineSet
750 678 m 1,0,1
 634 739 634 739 515 742 c 0,2,3
 380 742 380 742 306 658 c 0,4,5
 232 572 232 572 230 418 c 0,6,7
 230 264 230 264 306 180 c 0,8,9
 380 94 380 94 515 94 c 0,10,11
 633 94 633 94 750 159 c 1,12,-1
 750 31 l 1,13,14
 693 5 693 5 630.5 -8.5 c 128,-1,15
 568 -22 568 -22 498 -22 c 0,16,17
 309 -22 309 -22 199 98 c 1,18,19
 87 216 87 216 86 418 c 0,20,21
 86 624 86 624 199 742 c 1,22,23
 313 860 313 860 506 860 c 0,24,25
 567 860 567 860 629.5 847.5 c 128,-1,26
 692 835 692 835 750 809 c 1,27,-1
 750 678 l 1,0,1
EndSplineSet
EndChar

StartChar: braceleft
Encoding: 123 123 92
Width: 0
VWidth: 2274
Flags: W
LayerCount: 2
Fore
SplineSet
90 608 m 2,0,1
 90 601 90 601 84 596 c 128,-1,2
 78 591 78 591 67 591 c 0,3,4
 60 591 60 591 55 596.5 c 128,-1,5
 50 602 50 602 50 608 c 2,6,-1
 50 783 l 1,7,-1
 -50 746 l 1,8,-1
 -50 560 l 2,9,10
 -50 553 -50 553 -55 547.5 c 128,-1,11
 -60 542 -60 542 -67 542 c 0,12,13
 -77 542 -77 542 -83.5 548 c 128,-1,14
 -90 554 -90 554 -90 560 c 2,15,-1
 -90 730 l 1,16,-1
 -132 719 l 1,17,18
 -142 716 -142 716 -150 721 c 128,-1,19
 -158 726 -158 726 -158 734 c 2,20,-1
 -158 809 l 2,21,22
 -158 821 -158 821 -144 824 c 2,23,-1
 -90 847 l 1,24,-1
 -90 1035 l 1,25,-1
 -132 1018 l 2,26,27
 -142 1014 -142 1014 -150 1018 c 0,28,29
 -158 1025 -158 1025 -158 1035 c 2,30,-1
 -158 1107 l 2,31,32
 -158 1117 -158 1117 -144 1126 c 1,33,-1
 -90 1142 l 1,34,-1
 -90 1330 l 2,35,36
 -90 1337 -90 1337 -84 1344 c 128,-1,37
 -78 1351 -78 1351 -67 1351 c 0,38,39
 -60 1351 -60 1351 -55 1344.5 c 128,-1,40
 -50 1338 -50 1338 -50 1330 c 2,41,-1
 -50 1159 l 1,42,-1
 50 1193 l 1,43,-1
 50 1378 l 2,44,45
 50 1385 50 1385 55 1391 c 128,-1,46
 60 1397 60 1397 67 1397 c 0,47,48
 77 1397 77 1397 83.5 1391.5 c 128,-1,49
 90 1386 90 1386 90 1378 c 2,50,-1
 90 1206 l 1,51,-1
 132 1223 l 1,52,53
 142 1226 142 1226 150 1220 c 128,-1,54
 158 1214 158 1214 158 1205 c 2,55,-1
 158 1130 l 2,56,57
 158 1118 158 1118 144 1114 c 2,58,-1
 90 1095 l 1,59,-1
 90 907 l 1,60,-1
 132 922 l 2,61,62
 142 926 142 926 150 921 c 128,-1,63
 158 916 158 916 158 907 c 2,64,-1
 158 830 l 2,65,66
 158 820 158 820 144 814 c 1,67,-1
 90 794 l 1,68,-1
 90 608 l 2,0,1
-50 1047 m 1,69,-1
 -50 858 l 1,70,-1
 50 892 l 1,71,-1
 50 1078 l 1,72,-1
 -50 1047 l 1,69,-1
EndSplineSet
EndChar

StartChar: bar
Encoding: 124 124 93
Width: 0
VWidth: 2274
Flags: W
LayerCount: 2
Fore
SplineSet
-41 1607 m 1,0,-1
 312 1607 l 1,1,-1
 312 1536 l 1,2,-1
 -41 1536 l 1,3,-1
 -41 1607 l 1,0,-1
EndSplineSet
EndChar

StartChar: braceright
Encoding: 125 125 94
Width: 0
VWidth: 2274
Flags: W
LayerCount: 2
Fore
SplineSet
-41 836 m 1,0,-1
 312 836 l 1,1,-1
 312 766 l 1,2,-1
 -41 766 l 1,3,-1
 -41 836 l 1,0,-1
EndSplineSet
EndChar

StartChar: asciitilde
Encoding: 126 126 95
Width: 0
VWidth: 2274
Flags: W
LayerCount: 2
Fore
SplineSet
166 -342 m 2,0,1
 166 -349 166 -349 162 -351.5 c 128,-1,2
 158 -354 158 -354 152 -350 c 0,3,4
 130 -336 130 -336 106 -330 c 128,-1,5
 82 -324 82 -324 57 -324 c 0,6,7
 -59 -324 -59 -324 -71 -479 c 1,8,9
 -33 -431 -33 -431 37 -432 c 0,10,11
 119 -432 119 -432 162 -481 c 0,12,13
 206 -532 206 -532 206 -622 c 0,14,15
 206 -716 206 -716 160 -764.5 c 128,-1,16
 114 -813 114 -813 30 -813 c 0,17,18
 -68 -813 -68 -813 -113 -745 c 128,-1,19
 -158 -677 -158 -677 -158 -528 c 0,20,21
 -158 -386 -158 -386 -105 -315 c 0,22,23
 -51 -244 -51 -244 54 -244 c 0,24,25
 80 -244 80 -244 106 -248.5 c 128,-1,26
 132 -253 132 -253 159 -267 c 1,27,28
 166 -270 166 -270 166 -274 c 2,29,-1
 166 -342 l 2,0,1
30 -508 m 0,30,31
 -12 -508 -12 -508 -36 -537 c 128,-1,32
 -60 -566 -60 -566 -60 -621.5 c 128,-1,33
 -60 -677 -60 -677 -37 -706.5 c 128,-1,34
 -14 -736 -14 -736 30 -736 c 0,35,36
 114 -736 114 -736 114 -622 c 0,37,38
 114 -508 114 -508 30 -508 c 0,30,31
EndSplineSet
EndChar

StartChar: Euro
Encoding: 8364 8364 96
Width: 721
VWidth: 2274
Flags: W
LayerCount: 2
Fore
SplineSet
1099 170 m 1,0,-1
 1099 0 l 1,1,-1
 150 0 l 1,2,-1
 150 170 l 1,3,4
 207 230 207 230 285 310 c 0,5,6
 359 390 359 390 462 490 c 256,7,8
 563 591 563 591 624.5 655 c 128,-1,9
 686 719 686 719 715 749 c 0,10,11
 765 803 765 803 797.5 848.5 c 128,-1,12
 830 894 830 894 848 933 c 0,13,14
 886 1009 886 1009 886 1082 c 0,15,16
 886 1200 886 1200 802 1274 c 0,17,18
 720 1348 720 1348 587 1351 c 0,19,20
 489 1351 489 1351 385.5 1317.5 c 128,-1,21
 282 1284 282 1284 159 1219 c 1,22,-1
 159 1423 l 1,23,24
 283 1473 283 1473 388.5 1497 c 128,-1,25
 494 1521 494 1521 583 1521 c 0,26,27
 813 1521 813 1521 952 1404 c 1,28,29
 1090 1288 1090 1288 1091 1095 c 0,30,31
 1091 1005 1091 1005 1054 918 c 0,32,33
 1036 876 1036 876 1006 829.5 c 128,-1,34
 976 783 976 783 930 726 c 0,35,36
 906 696 906 696 772 557 c 128,-1,37
 638 418 638 418 395 170 c 1,38,-1
 1099 170 l 1,0,-1
EndSplineSet
EndChar

StartChar: quotesinglbase
Encoding: 8218 8218 97
Width: 721
VWidth: 2274
Flags: W
LayerCount: 2
Fore
SplineSet
651 1360 m 0,0,1
 337 1360 337 1360 338 746 c 0,2,3
 338 132 338 132 651 131 c 0,4,5
 965 131 965 131 965 745.5 c 128,-1,6
 965 1360 965 1360 651 1360 c 0,0,1
651 1521 m 256,7,8
 776 1521 776 1521 873.5 1470.5 c 128,-1,9
 971 1420 971 1420 1035.5 1321.5 c 128,-1,10
 1100 1223 1100 1223 1134 1078 c 0,11,12
 1168 934 1168 934 1167 746 c 256,13,14
 1167 557 1167 557 1133.5 412 c 128,-1,15
 1100 267 1100 267 1035.5 169 c 128,-1,16
 971 71 971 71 875 20.5 c 128,-1,17
 779 -30 779 -30 651 -30 c 256,18,19
 526 -30 526 -30 430 20.5 c 128,-1,20
 334 71 334 71 268.5 169 c 128,-1,21
 203 267 203 267 169 412 c 128,-1,22
 135 557 135 557 135 746 c 256,23,24
 135 935 135 935 169 1079 c 128,-1,25
 203 1223 203 1223 268.5 1321.5 c 128,-1,26
 334 1420 334 1420 430 1470.5 c 128,-1,27
 526 1521 526 1521 651 1521 c 256,7,8
EndSplineSet
EndChar

StartChar: florin
Encoding: 402 402 98
Width: 0
VWidth: 2274
Flags: W
LayerCount: 2
Fore
SplineSet
61 406 m 1,0,-1
 -74 174 l 1,1,-1
 61 174 l 1,2,-1
 61 406 l 1,0,-1
54 515 m 2,3,4
 57 522 57 522 61 519 c 2,5,-1
 146 519 l 2,6,7
 156 519 156 519 154 508 c 2,8,-1
 154 174 l 1,9,-1
 214 174 l 2,10,11
 224 174 224 174 226 165 c 2,12,-1
 226 106 l 2,13,14
 226 96 226 96 214 94 c 2,15,-1
 154 94 l 1,16,-1
 154 -20 l 2,17,18
 154 -30 154 -30 146 -30 c 2,19,-1
 74 -30 l 2,20,21
 64 -30 64 -30 61 -20 c 2,22,-1
 61 94 l 1,23,-1
 -150 94 l 2,24,25
 -160 94 -160 94 -162 106 c 2,26,-1
 -162 176 l 1,27,-1
 54 515 l 2,3,4
EndSplineSet
EndChar

StartChar: quotedblbase
Encoding: 8222 8222 99
Width: 1081
VWidth: 2274
Flags: W
LayerCount: 2
Fore
SplineSet
698 1167 m 1,0,-1
 836 1167 l 1,1,-1
 836 0 l 1,2,-1
 698 0 l 1,3,-1
 698 125 l 1,4,5
 612 -23 612 -23 429 -22 c 0,6,7
 277 -22 277 -22 180 101 c 0,8,9
 86 221 86 221 86 418 c 0,10,11
 86 618 86 618 180 738 c 0,12,13
 275 860 275 860 429 860 c 0,14,15
 613 860 613 860 698 715 c 1,16,-1
 698 1167 l 1,0,-1
226 418 m 256,17,18
 226 266 226 266 290 180 c 1,19,20
 351 94 351 94 462 94 c 256,21,22
 572 94 572 94 634 180 c 0,23,24
 695 266 695 266 698 418 c 256,25,26
 698 570 698 570 634 658 c 256,27,28
 573 746 573 746 462 746 c 0,29,30
 352 746 352 746 290 658 c 1,31,32
 226 570 226 570 226 418 c 256,17,18
EndSplineSet
EndChar

StartChar: ellipsis
Encoding: 8230 8230 100
Width: 0
VWidth: 2274
Flags: W
LayerCount: 2
Fore
SplineSet
50 459 m 0,0,1
 -52 459 -52 459 -54 250 c 256,2,3
 -54 42 -54 42 50 42 c 0,4,5
 152 42 152 42 150 250 c 256,6,7
 152 459 152 459 50 459 c 0,0,1
50 534 m 0,8,9
 144 534 144 534 193 463 c 128,-1,10
 242 392 242 392 242 250 c 0,11,12
 242 110 242 110 192 38 c 0,13,14
 144 -34 144 -34 50 -34 c 0,15,16
 -45 -34 -45 -34 -94.5 38 c 128,-1,17
 -144 110 -144 110 -144 250 c 0,18,19
 -145 534 -145 534 50 534 c 0,8,9
EndSplineSet
EndChar

StartChar: dagger
Encoding: 8224 8224 101
Width: 0
VWidth: 2274
Flags: W
LayerCount: 2
Fore
SplineSet
-124 1258 m 2,0,1
 -124 1266 -124 1266 -114 1266 c 2,2,-1
 154 1266 l 2,3,4
 164 1266 164 1266 162 1258 c 2,5,-1
 162 1198 l 2,6,7
 162 1188 162 1188 154 1190 c 2,8,-1
 -38 1190 l 1,9,-1
 -38 1082 l 1,10,11
 -8 1090 -8 1090 12 1091 c 0,12,13
 100 1091 100 1091 151.5 1038.5 c 128,-1,14
 203 986 203 986 203 899 c 256,15,16
 203 811 203 811 149 761 c 128,-1,17
 95 711 95 711 3 711 c 0,18,19
 -83 711 -83 711 -140 734 c 1,20,21
 -147 737 -147 737 -146 742 c 2,22,-1
 -146 814 l 2,23,24
 -146 821 -146 821 -141 823.5 c 128,-1,25
 -136 826 -136 826 -131 822 c 0,26,27
 -70 788 -70 788 -7 788 c 0,28,29
 50 788 50 788 79 817.5 c 128,-1,30
 108 847 108 847 108 899 c 0,31,32
 108 951 108 951 78 980 c 0,33,34
 51 1007 51 1007 -7 1009 c 0,35,36
 -34 1009 -34 1009 -60 1001.5 c 128,-1,37
 -86 994 -86 994 -110 984 c 0,38,39
 -117 981 -117 981 -120.5 983.5 c 128,-1,40
 -124 986 -124 986 -124 994 c 2,41,-1
 -124 1258 l 2,0,1
EndSplineSet
EndChar

StartChar: daggerdbl
Encoding: 8225 8225 102
Width: 721
VWidth: 2274
Flags: W
LayerCount: 2
Fore
SplineSet
169 1495 m 1,0,-1
 1129 1495 l 1,1,-1
 1129 1406 l 1,2,-1
 587 0 l 1,3,-1
 374 0 l 1,4,-1
 886 1322 l 1,5,-1
 169 1322 l 1,6,-1
 169 1495 l 1,0,-1
EndSplineSet
EndChar

StartChar: circumflex
Encoding: 710 710 103
Width: 1368
VWidth: 2274
Flags: W
LayerCount: 2
Fore
SplineSet
542 1638 m 1,0,-1
 690 1638 l 1,1,-1
 937 1262 l 1,2,-1
 798 1262 l 1,3,-1
 617 1506 l 1,4,-1
 436 1262 l 1,5,-1
 298 1262 l 1,6,-1
 542 1638 l 1,0,-1
EndSplineSet
EndChar

StartChar: perthousand
Encoding: 8240 8240 104
Width: 1368
VWidth: 2274
Flags: W
LayerCount: 2
Fore
SplineSet
72 566 m 1,0,-1
 34 664 l 1,1,-1
 1078 1078 l 1,2,-1
 1118 982 l 1,3,-1
 72 566 l 1,0,-1
166 290 m 0,4,5
 166 218 166 218 214 170 c 0,6,7
 260 122 260 122 331 122 c 0,8,9
 399 122 399 122 446 170 c 256,10,11
 496 220 496 220 496 290 c 0,12,13
 496 357 496 357 446 406 c 256,14,15
 396 456 396 456 331 455 c 0,16,17
 263 455 263 455 214 406 c 1,18,19
 166 357 166 357 166 290 c 0,4,5
46 290 m 0,20,21
 46 412 46 412 125 493 c 0,22,23
 207 575 207 575 331 574 c 256,24,25
 451 574 451 574 534 493 c 256,26,27
 616 411 616 411 617 290 c 0,28,29
 617 168 617 168 532 84 c 0,30,31
 450 0 450 0 331 0 c 0,32,33
 211 0 211 0 125 82 c 0,34,35
 46 166 46 166 46 290 c 0,20,21
122 1146 m 0,36,37
 122 1075 122 1075 170 1027 c 256,38,39
 218 979 218 979 286 979 c 0,40,41
 357 979 357 979 404 1027 c 0,42,43
 454 1077 454 1077 455 1146 c 0,44,45
 455 1213 455 1213 402 1262 c 256,46,47
 352 1312 352 1312 286 1310 c 0,48,49
 215 1310 215 1310 170 1262 c 0,50,51
 122 1217 122 1217 122 1146 c 0,36,37
0 1146 m 0,52,53
 0 1266 0 1266 82 1348 c 1,54,55
 164 1432 164 1432 286 1432 c 0,56,57
 406 1432 406 1432 490 1348 c 0,58,59
 574 1266 574 1266 574 1146 c 0,60,61
 574 1028 574 1028 490 941 c 1,62,63
 406 857 406 857 286 856 c 0,64,65
 164 856 164 856 82 938 c 0,66,67
 0 1024 0 1024 0 1146 c 0,52,53
780 290 m 0,68,69
 780 218 780 218 828 170 c 256,70,71
 876 122 876 122 946 122 c 256,72,73
 1017 122 1017 122 1065 170 c 0,74,75
 1113 220 1113 220 1112 290 c 0,76,77
 1112 357 1112 357 1062 406 c 0,78,79
 1012 456 1012 456 946 455 c 0,80,81
 875 455 875 455 828 406 c 0,82,83
 780 361 780 361 780 290 c 0,68,69
658 290 m 0,84,85
 658 410 658 410 742 493 c 256,86,87
 824 575 824 575 946 574 c 0,88,89
 1066 574 1066 574 1150 493 c 0,90,91
 1234 411 1234 411 1235 290 c 0,92,93
 1235 168 1235 168 1150 84 c 0,94,95
 1068 0 1068 0 946 0 c 0,96,97
 824 0 824 0 742 82 c 0,98,99
 658 168 658 168 658 290 c 0,84,85
EndSplineSet
EndChar

StartChar: guilsinglleft
Encoding: 8249 8249 106
Width: 721
VWidth: 2274
Flags: W
LayerCount: 2
Fore
SplineSet
830 806 m 1,0,1
 976 776 976 776 1058 677 c 1,2,3
 1140 579 1140 579 1138 434 c 0,4,5
 1138 215 1138 215 986 91 c 0,6,7
 836 -31 836 -31 554 -30 c 0,8,9
 368 -30 368 -30 155 46 c 1,10,-1
 155 240 l 1,11,12
 241 190 241 190 340.5 166 c 128,-1,13
 440 142 440 142 550 142 c 0,14,15
 745 142 745 142 841.5 216 c 128,-1,16
 938 290 938 290 938 434 c 0,17,18
 938 501 938 501 914 552.5 c 128,-1,19
 890 604 890 604 845 641 c 128,-1,20
 800 678 800 678 735 696.5 c 128,-1,21
 670 715 670 715 588 715 c 2,22,-1
 414 715 l 1,23,-1
 414 882 l 1,24,-1
 596 882 l 2,25,26
 746 882 746 882 824.5 941.5 c 128,-1,27
 903 1001 903 1001 903 1112 c 0,28,29
 903 1226 903 1226 822.5 1288.5 c 128,-1,30
 742 1351 742 1351 588 1351 c 0,31,32
 502 1351 502 1351 409 1332.5 c 128,-1,33
 316 1314 316 1314 203 1276 c 1,34,-1
 203 1457 l 1,35,36
 429 1518 429 1518 606 1521 c 0,37,38
 836 1521 836 1521 971 1415 c 0,39,40
 1106 1310 1106 1310 1104 1134 c 0,41,42
 1104 1009 1104 1009 1034.5 924.5 c 128,-1,43
 965 840 965 840 830 806 c 1,0,1
EndSplineSet
EndChar

StartChar: OE
Encoding: 338 338 107
Width: 937
VWidth: 2274
Flags: W
LayerCount: 2
Fore
SplineSet
750 678 m 1,0,1
 634 739 634 739 515 742 c 0,2,3
 380 742 380 742 306 658 c 0,4,5
 232 572 232 572 230 418 c 0,6,7
 230 264 230 264 306 180 c 0,8,9
 380 94 380 94 515 94 c 0,10,11
 633 94 633 94 750 159 c 1,12,-1
 750 31 l 1,13,14
 693 5 693 5 630.5 -8.5 c 128,-1,15
 568 -22 568 -22 498 -22 c 0,16,17
 309 -22 309 -22 199 98 c 1,18,19
 87 216 87 216 86 418 c 0,20,21
 86 624 86 624 199 742 c 1,22,23
 313 860 313 860 506 860 c 0,24,25
 567 860 567 860 629.5 847.5 c 128,-1,26
 692 835 692 835 750 809 c 1,27,-1
 750 678 l 1,0,1
EndSplineSet
EndChar

StartChar: quoteleft
Encoding: 8216 8216 108
Width: 0
VWidth: 2274
Flags: W
LayerCount: 2
Fore
SplineSet
-312 -1142 m 1,0,-1
 -626 -924 l 1,1,-1
 -312 -707 l 1,2,-1
 -362 -874 l 1,3,-1
 677 -874 l 1,4,-1
 677 -986 l 1,5,-1
 -362 -986 l 1,6,-1
 -312 -1142 l 1,0,-1
EndSplineSet
EndChar

StartChar: quoteright
Encoding: 8217 8217 109
Width: 1175
VWidth: 2274
Flags: W
LayerCount: 2
Fore
SplineSet
583 1168 m 1,0,-1
 583 722 l 1,1,-1
 1031 722 l 1,2,-1
 1031 587 l 1,3,-1
 583 587 l 1,4,-1
 583 140 l 1,5,-1
 451 140 l 1,6,-1
 451 587 l 1,7,-1
 3 587 l 1,8,-1
 3 722 l 1,9,-1
 451 722 l 1,10,-1
 451 1168 l 1,11,-1
 583 1168 l 1,0,-1
EndSplineSet
EndChar

StartChar: quotedblleft
Encoding: 8220 8220 110
Width: 0
VWidth: 2274
Flags: W
LayerCount: 2
Fore
SplineSet
-41 214 m 1,0,-1
 312 214 l 1,1,-1
 312 146 l 1,2,-1
 -41 146 l 1,3,-1
 -41 214 l 1,0,-1
EndSplineSet
EndChar

StartChar: quotedblright
Encoding: 8221 8221 111
Width: 0
VWidth: 2274
Flags: W
LayerCount: 2
Fore
SplineSet
-41 214 m 1,0,-1
 312 214 l 1,1,-1
 312 146 l 1,2,-1
 -41 146 l 1,3,-1
 -41 214 l 1,0,-1
EndSplineSet
EndChar

StartChar: bullet
Encoding: 8226 8226 112
Width: 0
VWidth: 2274
Flags: W
LayerCount: 2
Fore
SplineSet
50 1676 m 0,0,1
 4 1676 4 1676 -19 1651.5 c 128,-1,2
 -42 1627 -42 1627 -42 1585 c 0,3,4
 -42 1539 -42 1539 -17.5 1515 c 128,-1,5
 7 1491 7 1491 50 1491 c 0,6,7
 96 1491 96 1491 118 1515 c 128,-1,8
 140 1539 140 1539 140 1585 c 0,9,10
 140 1627 140 1627 116 1651.5 c 128,-1,11
 92 1676 92 1676 50 1676 c 0,0,1
-131 1578 m 0,12,13
 -131 1683 -131 1683 -46 1717 c 1,14,15
 -80 1735 -80 1735 -100 1765 c 128,-1,16
 -120 1795 -120 1795 -120 1834 c 0,17,18
 -120 1905 -120 1905 -73.5 1943.5 c 128,-1,19
 -27 1982 -27 1982 50 1982 c 256,20,21
 128 1982 128 1982 173.5 1943.5 c 128,-1,22
 219 1905 219 1905 219 1834 c 0,23,24
 219 1792 219 1792 198.5 1763.5 c 128,-1,25
 178 1735 178 1735 144 1717 c 1,26,27
 185 1699 185 1699 207.5 1663.5 c 128,-1,28
 230 1628 230 1628 230 1578 c 0,29,30
 230 1504 230 1504 182.5 1459.5 c 128,-1,31
 135 1415 135 1415 50 1415 c 256,32,33
 -36 1415 -36 1415 -83.5 1457.5 c 128,-1,34
 -131 1500 -131 1500 -131 1578 c 0,12,13
-27 1829 m 0,35,36
 -27 1753 -27 1753 50 1752 c 0,37,38
 126 1752 126 1752 125 1829 c 0,39,40
 125 1909 125 1909 50 1909 c 0,41,42
 -27 1909 -27 1909 -27 1829 c 0,35,36
EndSplineSet
EndChar

StartChar: endash
Encoding: 8211 8211 113
Width: 0
VWidth: 2274
Flags: W
LayerCount: 2
Fore
SplineSet
142 1248 m 1,0,-1
 82 1248 l 1,1,-1
 82 1479 l 2,2,3
 82 1529 82 1529 64 1551 c 0,4,5
 48 1575 48 1575 10 1574 c 0,6,7
 -32 1574 -32 1574 -56 1544 c 0,8,9
 -80 1514 -80 1514 -80 1458 c 2,10,-1
 -80 1248 l 1,11,-1
 -142 1248 l 1,12,-1
 -142 1619 l 1,13,-1
 -80 1619 l 1,14,-1
 -80 1563 l 1,15,16
 -49 1627 -49 1627 30 1627 c 0,17,18
 142 1627 142 1627 142 1479 c 2,19,-1
 142 1248 l 1,0,-1
EndSplineSet
EndChar

StartChar: emdash
Encoding: 8212 8212 114
Width: 0
VWidth: 2274
Flags: W
LayerCount: 2
Fore
SplineSet
-94 1969 m 1,0,-1
 94 1969 l 1,1,-1
 306 1702 l 1,2,-1
 166 1702 l 1,3,-1
 0 1880 l 1,4,-1
 -166 1702 l 1,5,-1
 -306 1702 l 1,6,-1
 -94 1969 l 1,0,-1
EndSplineSet
EndChar

StartChar: trademark
Encoding: 8482 8482 116
Width: 0
VWidth: 2274
Flags: W
LayerCount: 2
Fore
SplineSet
214 1504 m 2,0,1
 224 1504 224 1504 222 1495 c 2,2,-1
 222 1435 l 2,3,4
 222 1425 222 1425 214 1427 c 2,5,-1
 -110 1427 l 2,6,7
 -120 1427 -120 1427 -118 1435 c 2,8,-1
 -118 1499 l 1,9,10
 -47 1571 -47 1571 0 1624 c 0,11,12
 48 1678 48 1678 67 1702 c 0,13,14
 85 1724 85 1724 95.5 1739.5 c 128,-1,15
 106 1755 106 1755 113 1768.5 c 128,-1,16
 120 1782 120 1782 122 1795 c 0,17,18
 125 1807 125 1807 125 1819 c 0,19,20
 125 1860 125 1860 101.5 1881 c 128,-1,21
 78 1902 78 1902 38 1902 c 0,22,23
 -23 1902 -23 1902 -101 1858 c 0,24,25
 -108 1855 -108 1855 -111 1857.5 c 128,-1,26
 -114 1860 -114 1860 -114 1867 c 2,27,-1
 -114 1939 l 2,28,29
 -114 1946 -114 1946 -110 1947 c 0,30,31
 -72 1965 -72 1965 -34.5 1975.5 c 128,-1,32
 3 1986 3 1986 38 1986 c 0,33,34
 79 1986 79 1986 111.5 1974 c 128,-1,35
 144 1962 144 1962 169.5 1940 c 128,-1,36
 195 1918 195 1918 206.5 1888 c 128,-1,37
 218 1858 218 1858 218 1823 c 0,38,39
 218 1785 218 1785 202 1751 c 128,-1,40
 186 1717 186 1717 150 1675 c 1,41,-1
 150 1675 l 1,42,43
 140 1663 140 1663 125 1647 c 128,-1,44
 110 1631 110 1631 90 1611 c 2,45,-1
 -8 1504 l 1,46,-1
 214 1504 l 2,0,1
EndSplineSet
EndChar

StartChar: guilsinglright
Encoding: 8250 8250 118
Width: 721
VWidth: 2274
Flags: W
LayerCount: 2
Fore
SplineSet
775 1318 m 1,0,-1
 264 520 l 1,1,-1
 775 520 l 1,2,-1
 775 1318 l 1,0,-1
722 1495 m 1,3,-1
 975 1495 l 1,4,-1
 975 520 l 1,5,-1
 1189 520 l 1,6,-1
 1189 351 l 1,7,-1
 975 351 l 1,8,-1
 975 0 l 1,9,-1
 775 0 l 1,10,-1
 775 351 l 1,11,-1
 101 351 l 1,12,-1
 101 546 l 1,13,-1
 722 1495 l 1,3,-1
EndSplineSet
EndChar

StartChar: oe
Encoding: 339 339 119
Width: 0
VWidth: 2274
Flags: W
LayerCount: 2
Fore
SplineSet
-90 783 m 2,0,1
 -90 793 -90 793 -78 792 c 2,2,-1
 30 792 l 1,3,-1
 30 1175 l 1,4,-1
 -86 1150 l 2,5,6
 -98 1147 -98 1147 -98 1159 c 2,7,-1
 -98 1227 l 2,8,9
 -98 1235 -98 1235 -90 1235 c 2,10,-1
 37 1261 l 1,11,-1
 110 1261 l 2,12,13
 118 1261 118 1261 118 1250 c 2,14,-1
 118 792 l 1,15,-1
 226 792 l 2,16,17
 236 792 236 792 234 783 c 2,18,-1
 234 722 l 2,19,20
 234 712 234 712 226 715 c 2,21,-1
 -78 715 l 2,22,23
 -88 715 -88 715 -90 722 c 2,24,-1
 -90 783 l 2,0,1
EndSplineSet
EndChar

StartChar: exclamdown
Encoding: 161 161 122
Width: 0
VWidth: 2274
Flags: W
LayerCount: 2
Fore
SplineSet
-90 1499 m 2,0,1
 -90 1509 -90 1509 -78 1506 c 2,2,-1
 30 1506 l 1,3,-1
 30 1888 l 1,4,-1
 -86 1867 l 2,5,6
 -98 1864 -98 1864 -98 1875 c 2,7,-1
 -98 1940 l 2,8,9
 -98 1948 -98 1948 -90 1951 c 2,10,-1
 37 1977 l 1,11,-1
 110 1977 l 2,12,13
 118 1977 118 1977 118 1966 c 2,14,-1
 118 1506 l 1,15,-1
 226 1506 l 2,16,17
 236 1506 236 1506 234 1499 c 2,18,-1
 234 1438 l 2,19,20
 234 1428 234 1428 226 1428 c 2,21,-1
 -78 1428 l 2,22,23
 -88 1428 -88 1428 -90 1438 c 2,24,-1
 -90 1499 l 2,0,1
EndSplineSet
EndChar

StartChar: cent
Encoding: 162 162 123
Width: 0
VWidth: 2274
Flags: W
LayerCount: 2
Fore
SplineSet
61 1867 m 1,0,-1
 -74 1632 l 1,1,-1
 61 1632 l 1,2,-1
 61 1867 l 1,0,-1
54 1970 m 2,3,4
 57 1977 57 1977 61 1977 c 2,5,-1
 146 1977 l 2,6,7
 156 1977 156 1977 154 1966 c 2,8,-1
 154 1632 l 1,9,-1
 214 1632 l 2,10,11
 224 1632 224 1632 226 1623 c 2,12,-1
 226 1563 l 2,13,14
 226 1553 226 1553 214 1555 c 2,15,-1
 154 1555 l 1,16,-1
 154 1438 l 2,17,18
 154 1428 154 1428 146 1428 c 2,19,-1
 74 1428 l 2,20,21
 64 1428 64 1428 61 1438 c 2,22,-1
 61 1555 l 1,23,-1
 -150 1555 l 2,24,25
 -160 1555 -160 1555 -162 1563 c 2,26,-1
 -162 1634 l 1,27,-1
 54 1970 l 2,3,4
EndSplineSet
EndChar

StartChar: sterling
Encoding: 163 163 124
Width: 0
VWidth: 2274
Flags: W
LayerCount: 2
Fore
SplineSet
204 1841 m 0,0,1
 204 1759 204 1759 131 1726 c 1,2,3
 173 1708 173 1708 194.5 1673 c 128,-1,4
 216 1638 216 1638 216 1590 c 0,5,6
 216 1512 216 1512 165 1468 c 128,-1,7
 114 1424 114 1424 22 1424 c 0,8,9
 -52 1424 -52 1424 -131 1450 c 1,10,11
 -139 1453 -139 1453 -138 1461 c 2,12,-1
 -138 1530 l 2,13,14
 -138 1537 -138 1537 -133 1540 c 128,-1,15
 -128 1543 -128 1543 -122 1540 c 0,16,17
 -84 1522 -84 1522 -53 1513 c 128,-1,18
 -22 1504 -22 1504 14 1504 c 0,19,20
 126 1504 126 1504 125 1597 c 0,21,22
 125 1639 125 1639 98 1663 c 128,-1,23
 71 1687 71 1687 18 1687 c 2,24,-1
 -37 1687 l 2,25,26
 -47 1687 -47 1687 -46 1698 c 2,27,-1
 -46 1756 l 2,28,29
 -46 1766 -46 1766 -37 1766 c 2,30,-1
 18 1766 l 2,31,32
 64 1766 64 1766 89 1784.5 c 128,-1,33
 114 1803 114 1803 114 1838 c 0,34,35
 114 1912 114 1912 24 1910 c 0,36,37
 -37 1910 -37 1910 -108 1883 c 0,38,39
 -115 1880 -115 1880 -118.5 1883.5 c 128,-1,40
 -122 1887 -122 1887 -122 1893 c 2,41,-1
 -122 1958 l 2,42,43
 -122 1966 -122 1966 -114 1969 c 0,44,45
 -68 1981 -68 1981 -35.5 1986 c 128,-1,46
 -3 1991 -3 1991 24 1991 c 0,47,48
 110 1991 110 1991 157 1951.5 c 128,-1,49
 204 1912 204 1912 204 1841 c 0,0,1
EndSplineSet
EndChar

StartChar: currency
Encoding: 164 164 125
Width: 1368
VWidth: 2274
Flags: W
LayerCount: 2
Fore
SplineSet
869 643 m 256,0,1
 869 733 869 733 806 794 c 256,2,3
 745 855 745 855 655 856 c 0,4,5
 565 856 565 856 500 794 c 0,6,7
 439 733 439 733 438 643 c 0,8,9
 438 549 438 549 500 489 c 256,10,11
 561 428 561 428 655 426 c 256,12,13
 745 426 745 426 806 490 c 1,14,15
 869 553 869 553 869 643 c 256,0,1
1010 1091 m 1,16,-1
 1100 998 l 1,17,-1
 934 830 l 1,18,19
 994 732 994 732 994 643 c 0,20,21
 994 593 994 593 978.5 546.5 c 128,-1,22
 963 500 963 500 933 455 c 1,23,-1
 1100 290 l 1,24,-1
 1006 195 l 1,25,-1
 840 362 l 1,26,27
 794 332 794 332 750.5 317 c 128,-1,28
 707 302 707 302 655 302 c 0,29,30
 607 302 607 302 558.5 316.5 c 128,-1,31
 510 331 510 331 462 358 c 1,32,-1
 298 195 l 1,33,-1
 206 286 l 1,34,-1
 370 451 l 1,35,36
 310 552 310 552 310 643 c 0,37,38
 310 693 310 693 327 738 c 0,39,40
 343 784 343 784 374 830 c 1,41,-1
 206 994 l 1,42,-1
 298 1091 l 1,43,-1
 466 922 l 1,44,45
 512 952 512 952 557 968 c 0,46,47
 603 982 603 982 655 982 c 0,48,49
 745 982 745 982 844 924 c 1,50,-1
 1010 1091 l 1,16,-1
EndSplineSet
EndChar

StartChar: yen
Encoding: 165 165 126
Width: 0
VWidth: 2274
Flags: W
LayerCount: 2
Fore
SplineSet
166 1178 m 2,0,1
 166 1171 166 1171 162 1169 c 128,-1,2
 158 1167 158 1167 152 1171 c 0,3,4
 130 1185 130 1185 106 1189.5 c 128,-1,5
 82 1194 82 1194 57 1194 c 0,6,7
 -59 1194 -59 1194 -71 1039 c 1,8,9
 -51 1065 -51 1065 -24 1075.5 c 128,-1,10
 3 1086 3 1086 37 1086 c 0,11,12
 119 1086 119 1086 162.5 1038 c 128,-1,13
 206 990 206 990 206 899 c 0,14,15
 206 805 206 805 160 756 c 128,-1,16
 114 707 114 707 30 707 c 0,17,18
 -68 707 -68 707 -113 775 c 128,-1,19
 -158 843 -158 843 -158 990 c 0,20,21
 -158 1132 -158 1132 -105 1205 c 0,22,23
 -51 1276 -51 1276 54 1274 c 0,24,25
 80 1274 80 1274 106 1268 c 128,-1,26
 132 1262 132 1262 159 1254 c 1,27,28
 166 1254 166 1254 166 1246 c 2,29,-1
 166 1178 l 2,0,1
30 1010 m 0,30,31
 -12 1010 -12 1010 -36 981 c 128,-1,32
 -60 952 -60 952 -60 899 c 0,33,34
 -60 845 -60 845 -37 814 c 128,-1,35
 -14 783 -14 783 30 783 c 0,36,37
 114 783 114 783 114 899 c 0,38,39
 114 1010 114 1010 30 1010 c 0,30,31
EndSplineSet
EndChar

StartChar: brokenbar
Encoding: 166 166 127
Width: 1368
VWidth: 2274
Flags: W
LayerCount: 2
Fore
SplineSet
702 1432 m 1,0,-1
 702 674 l 1,1,-1
 530 674 l 1,2,-1
 530 1432 l 1,3,-1
 702 1432 l 1,0,-1
702 408 m 1,4,-1
 702 -350 l 1,5,-1
 530 -350 l 1,6,-1
 530 408 l 1,7,-1
 702 408 l 1,4,-1
EndSplineSet
EndChar

StartChar: section
Encoding: 167 167 128
Width: 0
VWidth: 2274
Flags: W
LayerCount: 2
Fore
SplineSet
166 1884 m 2,0,1
 166 1877 166 1877 162 1876 c 128,-1,2
 158 1875 158 1875 152 1876 c 0,3,4
 130 1890 130 1890 106 1896 c 128,-1,5
 82 1902 82 1902 57 1902 c 0,6,7
 -59 1902 -59 1902 -71 1747 c 1,8,9
 -33 1795 -33 1795 37 1795 c 0,10,11
 119 1795 119 1795 162.5 1745.5 c 128,-1,12
 206 1696 206 1696 206 1607 c 0,13,14
 206 1513 206 1513 160 1464 c 128,-1,15
 114 1415 114 1415 30 1415 c 0,16,17
 -68 1415 -68 1415 -113 1483 c 128,-1,18
 -158 1551 -158 1551 -158 1698 c 0,19,20
 -158 1840 -158 1840 -104 1912.5 c 128,-1,21
 -50 1985 -50 1985 54 1982 c 0,22,23
 80 1982 80 1982 106 1976 c 128,-1,24
 132 1970 132 1970 159 1962 c 1,25,26
 166 1959 166 1959 166 1952 c 2,27,-1
 166 1884 l 2,0,1
30 1718 m 0,28,29
 -12 1718 -12 1718 -36 1688 c 128,-1,30
 -60 1658 -60 1658 -60 1607 c 256,31,32
 -60 1553 -60 1553 -37 1522 c 128,-1,33
 -14 1491 -14 1491 30 1491 c 0,34,35
 114 1491 114 1491 114 1607 c 0,36,37
 114 1718 114 1718 30 1718 c 0,28,29
EndSplineSet
EndChar

StartChar: dieresis
Encoding: 168 168 129
Width: 0
VWidth: 2274
Flags: W
LayerCount: 2
Fore
SplineSet
-135 1250 m 2,0,1
 -135 1260 -135 1260 -124 1258 c 2,2,-1
 208 1258 l 2,3,4
 218 1258 218 1258 218 1250 c 2,5,-1
 218 1219 l 1,6,-1
 27 719 l 2,7,8
 24 712 24 712 18 711 c 2,9,-1
 -57 711 l 2,10,11
 -64 711 -64 711 -65.5 715.5 c 128,-1,12
 -67 720 -67 720 -67 726 c 2,13,-1
 114 1180 l 1,14,-1
 -124 1180 l 2,15,16
 -134 1180 -134 1180 -135 1190 c 2,17,-1
 -135 1250 l 2,0,1
EndSplineSet
EndChar

StartChar: copyright
Encoding: 169 169 130
Width: 0
VWidth: 2274
Flags: W
LayerCount: 2
Fore
SplineSet
-124 519 m 2,0,1
 -124 529 -124 529 -114 527 c 2,2,-1
 154 527 l 2,3,4
 164 527 164 527 162 519 c 2,5,-1
 162 459 l 2,6,7
 162 451 162 451 154 451 c 2,8,-1
 -38 451 l 1,9,-1
 -38 340 l 1,10,11
 -8 348 -8 348 12 348 c 0,12,13
 100 348 100 348 151.5 297 c 128,-1,14
 203 246 203 246 203 158 c 256,15,16
 203 70 203 70 149 20 c 128,-1,17
 95 -30 95 -30 3 -30 c 0,18,19
 -85 -30 -85 -30 -140 -8 c 1,20,21
 -147 -5 -147 -5 -146 3 c 2,22,-1
 -146 74 l 2,23,24
 -146 81 -146 81 -141 83.5 c 128,-1,25
 -136 86 -136 86 -131 82 c 0,26,27
 -100 64 -100 64 -69 55 c 128,-1,28
 -38 46 -38 46 -7 46 c 0,29,30
 50 46 50 46 79 75.5 c 128,-1,31
 108 105 108 105 108 158 c 0,32,33
 108 210 108 210 78 238 c 0,34,35
 51 265 51 265 -7 267 c 0,36,37
 -61 267 -61 267 -110 244 c 0,38,39
 -117 241 -117 241 -120.5 243.5 c 128,-1,40
 -124 246 -124 246 -124 252 c 2,41,-1
 -124 519 l 2,0,1
EndSplineSet
EndChar

StartChar: ordfeminine
Encoding: 170 170 131
Width: 0
VWidth: 2274
Flags: W
LayerCount: 2
Fore
SplineSet
50 1679 m 0,0,1
 92 1679 92 1679 115 1709 c 0,2,3
 139 1740 139 1740 138 1795 c 256,4,5
 138 1849 138 1849 114 1877.5 c 128,-1,6
 90 1906 90 1906 50 1906 c 0,7,8
 -36 1907 -36 1907 -38 1795 c 256,9,10
 -36 1680 -36 1680 50 1679 c 0,0,1
-90 1510 m 2,11,12
 -90 1517 -90 1517 -84 1519.5 c 128,-1,13
 -78 1522 -78 1522 -74 1521 c 0,14,15
 -52 1511 -52 1511 -29.5 1503 c 128,-1,16
 -7 1495 -7 1495 20 1495 c 0,17,18
 80 1495 80 1495 112 1531.5 c 128,-1,19
 144 1568 144 1568 150 1653 c 1,20,21
 109 1603 109 1603 42 1603 c 0,22,23
 -40 1603 -40 1603 -82 1653 c 0,24,25
 -126 1704 -126 1704 -125 1795 c 256,26,27
 -125 1885 -125 1885 -81.5 1933.5 c 128,-1,28
 -38 1982 -38 1982 48 1982 c 0,29,30
 146 1982 146 1982 189 1914 c 0,31,32
 233 1843 233 1843 234 1698 c 0,33,34
 234 1558 234 1558 182.5 1486.5 c 128,-1,35
 131 1415 131 1415 24 1415 c 0,36,37
 -32 1415 -32 1415 -82 1438 c 1,38,39
 -89 1441 -89 1441 -90 1446 c 2,40,-1
 -90 1510 l 2,11,12
EndSplineSet
EndChar

StartChar: guillemotleft
Encoding: 171 171 132
Width: 1368
VWidth: 2274
Flags: W
LayerCount: 2
Fore
SplineSet
588 1058 m 1,0,-1
 588 869 l 1,1,-1
 286 600 l 1,2,-1
 588 332 l 1,3,-1
 588 142 l 1,4,-1
 118 558 l 1,5,-1
 118 643 l 1,6,-1
 588 1058 l 1,0,-1
1043 1058 m 1,7,-1
 1043 869 l 1,8,-1
 742 600 l 1,9,-1
 1043 332 l 1,10,-1
 1043 142 l 1,11,-1
 574 558 l 1,12,-1
 574 643 l 1,13,-1
 1043 1058 l 1,7,-1
EndSplineSet
EndChar

StartChar: logicalnot
Encoding: 172 172 133
Width: 0
VWidth: 2274
Flags: W
LayerCount: 2
Fore
SplineSet
50 230 m 0,0,1
 92 230 92 230 115 260 c 128,-1,2
 138 290 138 290 138 346 c 256,3,4
 138 400 138 400 114 429.5 c 128,-1,5
 90 459 90 459 50 459 c 0,6,7
 -36 459 -36 459 -38 346 c 256,8,9
 -36 230 -36 230 50 230 c 0,0,1
-90 61 m 2,10,11
 -90 68 -90 68 -84 71 c 128,-1,12
 -78 74 -78 74 -74 72 c 0,13,14
 -52 62 -52 62 -29.5 54 c 128,-1,15
 -7 46 -7 46 20 46 c 0,16,17
 80 46 80 46 112 84 c 128,-1,18
 144 122 144 122 150 203 c 1,19,20
 109 155 109 155 42 154 c 0,21,22
 -40 154 -40 154 -82 204 c 0,23,24
 -126 254 -126 254 -125 346 c 256,25,26
 -125 436 -125 436 -81.5 485 c 128,-1,27
 -38 534 -38 534 48 534 c 0,28,29
 146 534 146 534 189 466 c 0,30,31
 233 398 233 398 234 250 c 0,32,33
 234 110 234 110 182.5 38 c 128,-1,34
 131 -34 131 -34 24 -34 c 0,35,36
 -2 -34 -2 -34 -29 -28 c 128,-1,37
 -56 -22 -56 -22 -82 -10 c 1,38,39
 -89 -7 -89 -7 -90 -3 c 2,40,-1
 -90 61 l 2,10,11
EndSplineSet
EndChar

StartChar: sfthyphen
Encoding: 173 173 134
Width: 1368
VWidth: 2274
Flags: W
LayerCount: 2
Fore
SplineSet
357 643 m 1,0,-1
 878 643 l 1,1,-1
 878 478 l 1,2,-1
 357 478 l 1,3,-1
 357 643 l 1,0,-1
EndSplineSet
EndChar

StartChar: registered
Encoding: 174 174 135
Width: 0
VWidth: 2274
Flags: W
LayerCount: 2
Fore
SplineSet
61 1148 m 1,0,-1
 -74 915 l 1,1,-1
 61 915 l 1,2,-1
 61 1148 l 1,0,-1
54 1254 m 2,3,4
 57 1261 57 1261 61 1258 c 2,5,-1
 146 1258 l 2,6,7
 156 1258 156 1258 154 1250 c 2,8,-1
 154 915 l 1,9,-1
 214 915 l 2,10,11
 224 915 224 915 226 907 c 2,12,-1
 226 847 l 2,13,14
 226 837 226 837 214 836 c 2,15,-1
 154 836 l 1,16,-1
 154 722 l 2,17,18
 154 712 154 712 146 711 c 2,19,-1
 74 711 l 2,20,21
 64 711 64 711 61 722 c 2,22,-1
 61 836 l 1,23,-1
 -150 836 l 2,24,25
 -160 836 -160 836 -162 847 c 2,26,-1
 -162 918 l 1,27,-1
 54 1254 l 2,3,4
EndSplineSet
EndChar

StartChar: Mediant
Encoding: 175 175 136
Width: 1962
VWidth: 2274
Flags: W
LayerCount: 2
Fore
SplineSet
203 1495 m 1,0,-1
 502 1495 l 1,1,-1
 882 478 l 1,2,-1
 1266 1495 l 1,3,-1
 1566 1495 l 1,4,-1
 1566 0 l 1,5,-1
 1371 0 l 1,6,-1
 1371 1310 l 1,7,-1
 986 286 l 1,8,-1
 783 286 l 1,9,-1
 398 1310 l 1,10,-1
 398 0 l 1,11,-1
 203 0 l 1,12,-1
 203 1495 l 1,0,-1
EndSplineSet
EndChar

StartChar: degree
Encoding: 176 176 137
Width: 721
VWidth: 2274
Flags: W
LayerCount: 2
Fore
SplineSet
651 711 m 256,0,1
 507 711 507 711 425 632 c 0,2,3
 343 556 343 556 342 421 c 256,4,5
 342 285 342 285 425 208 c 0,6,7
 507 130 507 130 651 131 c 256,8,9
 795 131 795 131 878 208 c 0,10,11
 962 286 962 286 963 421 c 0,12,13
 963 556 963 556 878 632 c 256,14,15
 795 711 795 711 651 711 c 256,0,1
451 794 m 1,16,17
 384 810 384 810 333 842 c 128,-1,18
 282 874 282 874 246 916 c 128,-1,19
 210 958 210 958 192 1014 c 128,-1,20
 174 1070 174 1070 174 1134 c 0,21,22
 174 1314 174 1314 302 1416 c 0,23,24
 430 1521 430 1521 651 1521 c 256,25,26
 873 1521 873 1521 1002 1416 c 0,27,28
 1127 1314 1127 1314 1129 1134 c 0,29,30
 1129 1073 1129 1073 1110 1015.5 c 128,-1,31
 1091 958 1091 958 1055.5 916 c 128,-1,32
 1020 874 1020 874 969 842 c 128,-1,33
 918 810 918 810 854 794 c 1,34,35
 1000 760 1000 760 1082 662 c 256,36,37
 1164 564 1164 564 1163 421 c 0,38,39
 1163 313 1163 313 1129.5 228.5 c 128,-1,40
 1096 144 1096 144 1031.5 87 c 128,-1,41
 967 30 967 30 870 0 c 0,42,43
 775 -30 775 -30 651 -30 c 256,44,45
 529 -30 529 -30 433.5 0 c 128,-1,46
 338 30 338 30 272 87 c 128,-1,47
 206 144 206 144 172 228 c 128,-1,48
 138 312 138 312 138 421 c 0,49,50
 138 567 138 567 222 662 c 0,51,52
 307 760 307 760 451 794 c 1,16,17
374 1114 m 256,53,54
 374 996 374 996 446 933 c 0,55,56
 517 869 517 869 651 869 c 0,57,58
 782 869 782 869 855 933 c 128,-1,59
 928 997 928 997 928 1114 c 256,60,61
 928 1232 928 1232 856 1296 c 0,62,63
 782 1360 782 1360 651 1360 c 0,64,65
 516 1360 516 1360 445 1296 c 128,-1,66
 374 1232 374 1232 374 1114 c 256,53,54
EndSplineSet
EndChar

StartChar: plusminus
Encoding: 177 177 138
Width: 1521
VWidth: 2274
Flags: W
LayerCount: 2
Fore
SplineSet
174 884 m 1,0,-1
 1198 884 l 1,1,-1
 1198 750 l 1,2,-1
 174 750 l 1,3,-1
 174 884 l 1,0,-1
174 558 m 1,4,-1
 1198 558 l 1,5,-1
 1198 422 l 1,6,-1
 174 422 l 1,7,-1
 174 558 l 1,4,-1
EndSplineSet
EndChar

StartChar: twosuperior
Encoding: 178 178 139
Width: 1368
VWidth: 2274
Flags: W
LayerCount: 2
Fore
SplineSet
482 783 m 1,0,-1
 894 783 l 1,1,-1
 894 668 l 1,2,-1
 323 668 l 1,3,-1
 323 779 l 1,4,-1
 554 1005 l 2,5,6
 604 1055 604 1055 639 1092.5 c 128,-1,7
 674 1130 674 1130 694 1163 c 0,8,9
 734 1224 734 1224 734 1274 c 0,10,11
 734 1304 734 1304 722.5 1329.5 c 128,-1,12
 711 1355 711 1355 686.5 1372.5 c 128,-1,13
 662 1390 662 1390 628 1401 c 0,14,15
 594 1411 594 1411 554 1411 c 0,16,17
 456 1411 456 1411 328 1338 c 1,18,-1
 328 1465 l 1,19,20
 395 1492 395 1492 455 1506.5 c 128,-1,21
 515 1521 515 1521 574 1521 c 0,22,23
 716 1521 716 1521 802 1454 c 1,24,25
 888 1387 888 1387 886 1280 c 0,26,27
 886 1223 886 1223 851 1163 c 0,28,29
 813 1102 813 1102 694 986 c 2,30,-1
 482 783 l 1,0,-1
EndSplineSet
EndChar

StartChar: threesuperior
Encoding: 179 179 140
Width: 1368
VWidth: 2274
Flags: W
LayerCount: 2
Fore
SplineSet
730 1120 m 1,0,1
 824 1098 824 1098 874 1045 c 128,-1,2
 924 992 924 992 924 911 c 0,3,4
 924 786 924 786 830 720.5 c 128,-1,5
 736 655 736 655 558 655 c 0,6,7
 501 655 501 655 444 664.5 c 128,-1,8
 387 674 387 674 327 694 c 1,9,-1
 327 814 l 1,10,11
 398 788 398 788 453 775 c 128,-1,12
 508 762 508 762 554 762 c 0,13,14
 656 762 656 762 715 802 c 0,15,16
 772 843 772 843 772 911 c 0,17,18
 772 1061 772 1061 554 1062 c 2,19,-1
 486 1062 l 1,20,-1
 486 1171 l 1,21,-1
 562 1171 l 2,22,23
 656 1171 656 1171 704.5 1201.5 c 128,-1,24
 753 1232 753 1232 753 1292 c 0,25,26
 753 1349 753 1349 705.5 1380 c 128,-1,27
 658 1411 658 1411 570 1411 c 0,28,29
 524 1411 524 1411 469 1398.5 c 128,-1,30
 414 1386 414 1386 354 1364 c 1,31,-1
 354 1487 l 1,32,33
 425 1505 425 1505 481.5 1513 c 128,-1,34
 538 1521 538 1521 591 1521 c 0,35,36
 733 1521 733 1521 818 1462 c 1,37,38
 902 1405 902 1405 903 1303 c 0,39,40
 902 1158 902 1158 730 1120 c 1,0,1
EndSplineSet
EndChar

StartChar: acute
Encoding: 180 180 141
Width: 0
VWidth: 2274
Flags: W
LayerCount: 2
Fore
SplineSet
204 1122 m 0,0,1
 204 1040 204 1040 131 1010 c 1,2,3
 217 972 217 972 216 873 c 0,4,5
 216 795 216 795 165 751 c 128,-1,6
 114 707 114 707 22 707 c 0,7,8
 -52 707 -52 707 -131 734 c 1,9,10
 -139 734 -139 734 -138 742 c 2,11,-1
 -138 814 l 2,12,13
 -138 821 -138 821 -133 822.5 c 128,-1,14
 -128 824 -128 824 -122 822 c 0,15,16
 -84 804 -84 804 -53 795.5 c 128,-1,17
 -22 787 -22 787 14 787 c 0,18,19
 126 787 126 787 125 878 c 0,20,21
 125 920 125 920 98 945.5 c 128,-1,22
 71 971 71 971 18 971 c 2,23,-1
 -37 971 l 2,24,25
 -47 971 -47 971 -46 980 c 2,26,-1
 -46 1039 l 2,27,28
 -46 1049 -46 1049 -37 1048 c 2,29,-1
 18 1048 l 2,30,31
 64 1048 64 1048 89 1067 c 128,-1,32
 114 1086 114 1086 114 1120 c 0,33,34
 114 1194 114 1194 24 1194 c 0,35,36
 -37 1194 -37 1194 -108 1167 c 0,37,38
 -115 1164 -115 1164 -118.5 1167.5 c 128,-1,39
 -122 1171 -122 1171 -122 1175 c 2,40,-1
 -122 1242 l 2,41,42
 -122 1250 -122 1250 -114 1250 c 0,43,44
 -68 1260 -68 1260 -35.5 1267 c 128,-1,45
 -3 1274 -3 1274 24 1274 c 0,46,47
 110 1274 110 1274 157 1233.5 c 128,-1,48
 204 1193 204 1193 204 1122 c 0,0,1
EndSplineSet
EndChar

StartChar: mu
Encoding: 181 181 142
Width: 0
VWidth: 2274
Flags: W
LayerCount: 2
Fore
SplineSet
-135 -270 m 2,0,1
 -135 -260 -135 -260 -124 -260 c 2,2,-1
 208 -260 l 2,3,4
 218 -260 218 -260 218 -270 c 2,5,-1
 218 -302 l 1,6,-1
 27 -802 l 2,7,8
 24 -809 24 -809 18 -809 c 2,9,-1
 -57 -809 l 2,10,11
 -64 -809 -64 -809 -65.5 -803.5 c 128,-1,12
 -67 -798 -67 -798 -67 -794 c 2,13,-1
 114 -338 l 1,14,-1
 -124 -338 l 2,15,16
 -134 -338 -134 -338 -135 -331 c 2,17,-1
 -135 -270 l 2,0,1
EndSplineSet
EndChar

StartChar: paragraph
Encoding: 182 182 143
Width: 0
VWidth: 2274
Flags: W
LayerCount: 2
Fore
SplineSet
-135 1957 m 2,0,1
 -135 1967 -135 1967 -124 1966 c 2,2,-1
 208 1966 l 2,3,4
 218 1966 218 1966 218 1957 c 2,5,-1
 218 1927 l 1,6,-1
 27 1427 l 2,7,8
 24 1420 24 1420 18 1419 c 2,9,-1
 -57 1419 l 2,10,11
 -64 1419 -64 1419 -65.5 1423 c 128,-1,12
 -67 1427 -67 1427 -67 1432 c 2,13,-1
 114 1887 l 1,14,-1
 -124 1887 l 2,15,16
 -134 1887 -134 1887 -135 1898 c 2,17,-1
 -135 1957 l 2,0,1
EndSplineSet
EndChar

StartChar: periodcentered
Encoding: 183 183 144
Width: 721
VWidth: 2274
Flags: W
LayerCount: 2
Fore
SplineSet
226 214 m 1,0,1
 302 177 302 177 380.5 159.5 c 128,-1,2
 459 142 459 142 532 142 c 0,3,4
 735 142 735 142 838.5 276 c 128,-1,5
 942 410 942 410 958 685 c 1,6,7
 901 597 901 597 811.5 551.5 c 128,-1,8
 722 506 722 506 614 506 c 0,9,10
 388 506 388 506 259 643 c 0,11,12
 128 779 128 779 131 1013 c 0,13,14
 131 1243 131 1243 267 1382 c 256,15,16
 403 1520 403 1520 626 1521 c 0,17,18
 757 1521 757 1521 855.5 1470.5 c 128,-1,19
 954 1420 954 1420 1022.5 1321.5 c 128,-1,20
 1091 1223 1091 1223 1125 1078 c 0,21,22
 1159 934 1159 934 1159 746 c 0,23,24
 1159 392 1159 392 990 182 c 0,25,26
 824 -28 824 -28 542 -30 c 0,27,28
 466 -30 466 -30 388 -14 c 0,29,30
 312 2 312 2 226 30 c 1,31,-1
 226 214 l 1,0,1
626 664 m 0,32,33
 761 664 761 664 843 758 c 1,34,35
 923 852 923 852 922 1013 c 0,36,37
 922 1171 922 1171 843 1266 c 0,38,39
 763 1360 763 1360 626 1360 c 0,40,41
 488 1360 488 1360 410 1266 c 1,42,43
 332 1176 332 1176 332 1013 c 0,44,45
 332 848 332 848 410 758 c 1,46,47
 488 664 488 664 626 664 c 0,32,33
EndSplineSet
EndChar

StartChar: onesuperior
Encoding: 185 185 146
Width: 1368
VWidth: 2274
Flags: W
LayerCount: 2
Fore
SplineSet
362 779 m 1,0,-1
 566 779 l 1,1,-1
 566 1390 l 1,2,-1
 344 1348 l 1,3,-1
 344 1465 l 1,4,-1
 574 1502 l 1,5,-1
 711 1502 l 1,6,-1
 711 779 l 1,7,-1
 915 779 l 1,8,-1
 915 668 l 1,9,-1
 362 668 l 1,10,-1
 362 779 l 1,0,-1
EndSplineSet
EndChar

StartChar: ordmasculine
Encoding: 186 186 147
Width: 0
VWidth: 2274
Flags: W
LayerCount: 2
Fore
SplineSet
50 1906 m 0,0,1
 -52 1906 -52 1906 -54 1698 c 256,2,3
 -54 1490 -54 1490 50 1491 c 0,4,5
 152 1491 152 1491 150 1698 c 256,6,7
 152 1906 152 1906 50 1906 c 0,0,1
50 1982 m 0,8,9
 144 1982 144 1982 193 1911.5 c 128,-1,10
 242 1841 242 1841 242 1698 c 0,11,12
 242 1558 242 1558 192 1487 c 0,13,14
 144 1415 144 1415 50 1415 c 0,15,16
 -45 1415 -45 1415 -94.5 1487 c 128,-1,17
 -144 1559 -144 1559 -144 1698 c 0,18,19
 -144 1840 -144 1840 -94.5 1911 c 128,-1,20
 -45 1982 -45 1982 50 1982 c 0,8,9
EndSplineSet
EndChar

StartChar: guillemotright
Encoding: 187 187 148
Width: 1136
VWidth: 2274
Flags: W
LayerCount: 2
Fore
SplineSet
963 1246 m 1,0,-1
 604 1054 l 1,1,-1
 963 858 l 1,2,-1
 907 760 l 1,3,-1
 570 963 l 1,4,-1
 570 587 l 1,5,-1
 455 587 l 1,6,-1
 455 963 l 1,7,-1
 118 760 l 1,8,-1
 61 858 l 1,9,-1
 421 1054 l 1,10,-1
 61 1246 l 1,11,-1
 118 1347 l 1,12,-1
 455 1142 l 1,13,-1
 455 1521 l 1,14,-1
 570 1521 l 1,15,-1
 570 1142 l 1,16,-1
 907 1347 l 1,17,-1
 963 1246 l 1,0,-1
EndSplineSet
EndChar

StartChar: questiondown
Encoding: 191 191 152
Width: 1344
VWidth: 2274
Flags: W
LayerCount: 2
Fore
SplineSet
61 1120 m 1,0,-1
 256 1120 l 1,1,-1
 606 180 l 1,2,-1
 956 1120 l 1,3,-1
 1150 1120 l 1,4,-1
 730 0 l 1,5,-1
 482 0 l 1,6,-1
 61 1120 l 1,0,-1
EndSplineSet
EndChar

StartChar: Napolitan
Encoding: 197 197 158
Width: 1299
VWidth: 2274
Flags: W
LayerCount: 2
Fore
SplineSet
3 1495 m 1,0,-1
 274 1495 l 1,1,-1
 934 244 l 1,2,-1
 934 1495 l 1,3,-1
 1130 1495 l 1,4,-1
 1130 0 l 1,5,-1
 858 0 l 1,6,-1
 199 1250 l 1,7,-1
 199 0 l 1,8,-1
 3 0 l 1,9,-1
 3 1495 l 1,0,-1
1496 -344 m 1,10,-1
 1348 -344 l 1,11,-1
 1348 894 l 1,12,-1
 1496 894 l 1,13,-1
 1496 758 l 1,14,15
 1542 840 1542 840 1612.5 877.5 c 128,-1,16
 1683 915 1683 915 1782 915 c 0,17,18
 1944 915 1944 915 2046 787 c 0,19,20
 2148 656 2148 656 2149 445 c 128,-1,21
 2150 234 2150 234 2046 102 c 0,22,23
 1944 -29 1944 -29 1782 -26 c 0,24,25
 1681 -26 1681 -26 1612 12 c 0,26,27
 1541 50 1541 50 1496 131 c 1,28,-1
 1496 -344 l 1,10,-1
1999 444 m 256,29,30
 1999 609 1999 609 1931 698 c 0,31,32
 1863 789 1863 789 1747 790 c 0,33,34
 1690 790 1690 790 1642 767.5 c 128,-1,35
 1594 745 1594 745 1562 700 c 128,-1,36
 1530 655 1530 655 1513 591 c 128,-1,37
 1496 527 1496 527 1496 444 c 0,38,39
 1496 279 1496 279 1563 189 c 0,40,41
 1630 98 1630 98 1747 98 c 0,42,43
 1863 98 1863 98 1931 189 c 0,44,45
 1999 279 1999 279 1999 444 c 256,29,30
EndSplineSet
EndChar

StartChar: dominant
Encoding: 198 198 159
Width: 1441
VWidth: 2274
Flags: W
LayerCount: 2
Fore
SplineSet
930 1556 m 1,0,-1
 1114 1556 l 1,1,-1
 1114 0 l 1,2,-1
 930 0 l 1,3,-1
 930 169 l 1,4,5
 873 68 873 68 785.5 19 c 128,-1,6
 698 -30 698 -30 570 -30 c 0,7,8
 366 -30 366 -30 240 135 c 1,9,10
 115 294 115 294 114 558 c 256,11,12
 114 825 114 825 240 986 c 1,13,14
 365 1148 365 1148 570 1146 c 0,15,16
 695 1146 695 1146 784 1098 c 128,-1,17
 873 1050 873 1050 930 950 c 1,18,-1
 930 1556 l 1,0,-1
302 558 m 0,19,20
 302 355 302 355 387 240 c 1,21,22
 471 126 471 126 617 125 c 256,23,24
 763 125 763 125 847 240 c 256,25,26
 931 354 931 354 930 558 c 0,27,28
 930 761 930 761 847 878 c 256,29,30
 763 994 763 994 617 994 c 256,31,32
 471 994 471 994 387 878 c 0,33,34
 302 761 302 761 302 558 c 0,19,20
EndSplineSet
EndChar

StartChar: Italian
Encoding: 205 205 166
Width: 659
VWidth: 2274
Flags: W
LayerCount: 2
Fore
SplineSet
3 1495 m 1,0,-1
 203 1495 l 1,1,-1
 203 0 l 1,2,-1
 3 0 l 1,3,-1
 3 1495 l 1,0,-1
610 1150 m 1,4,-1
 610 896 l 1,5,-1
 915 896 l 1,6,-1
 915 783 l 1,7,-1
 610 783 l 1,8,-1
 610 294 l 2,9,10
 610 184 610 184 640 154 c 256,11,12
 670 123 670 123 762 122 c 2,13,-1
 915 122 l 1,14,-1
 915 0 l 1,15,-1
 762 0 l 2,16,17
 590 0 590 0 527 61 c 0,18,19
 460 128 460 128 462 294 c 2,20,-1
 462 783 l 1,21,-1
 354 783 l 1,22,-1
 354 896 l 1,23,-1
 462 896 l 1,24,-1
 462 1150 l 1,25,-1
 610 1150 l 1,4,-1
EndSplineSet
EndChar

StartChar: French
Encoding: 206 206 167
Width: 952
VWidth: 2274
Flags: W
LayerCount: 2
Fore
SplineSet
3 1495 m 1,0,-1
 858 1495 l 1,1,-1
 858 1322 l 1,2,-1
 203 1322 l 1,3,-1
 203 882 l 1,4,-1
 794 882 l 1,5,-1
 794 715 l 1,6,-1
 203 715 l 1,7,-1
 203 0 l 1,8,-1
 3 0 l 1,9,-1
 3 1495 l 1,0,-1
1484 758 m 1,10,11
 1458 772 1458 772 1429.5 779.5 c 128,-1,12
 1401 787 1401 787 1367 787 c 0,13,14
 1242 787 1242 787 1174.5 706.5 c 128,-1,15
 1107 626 1107 626 1107 472 c 2,16,-1
 1107 0 l 1,17,-1
 958 0 l 1,18,-1
 958 896 l 1,19,-1
 1107 896 l 1,20,-1
 1107 758 l 1,21,22
 1198 920 1198 920 1408 918 c 0,23,24
 1424 918 1424 918 1442.5 916.5 c 128,-1,25
 1461 915 1461 915 1483 911 c 1,26,-1
 1484 758 l 1,10,11
EndSplineSet
EndChar

StartChar: Idieresis
Encoding: 207 207 168
Width: 1181
VWidth: 2274
Flags: W
LayerCount: 2
Fore
SplineSet
1103 614 m 1,0,-1
 775 614 l 1,1,-1
 775 780 l 1,2,-1
 1303 780 l 1,3,-1
 1303 138 l 1,4,5
 1067 -31 1067 -31 745 -30 c 0,6,7
 394 -30 394 -30 196 174 c 0,8,9
 -3 378 -3 378 -3 746 c 0,10,11
 -3 1111 -3 1111 196 1314 c 1,12,13
 395 1520 395 1520 745 1521 c 0,14,15
 893 1521 893 1521 1022.5 1485 c 128,-1,16
 1152 1449 1152 1449 1265 1378 c 1,17,-1
 1265 1163 l 1,18,19
 1042 1352 1042 1352 762 1355 c 0,20,21
 212 1355 212 1355 212 746 c 0,22,23
 212 138 212 138 762 138 c 0,24,25
 872 138 872 138 954 155 c 0,26,27
 1036 175 1036 175 1103 214 c 1,28,-1
 1103 614 l 1,0,-1
1974 758 m 1,29,30
 1948 772 1948 772 1921 780 c 0,31,32
 1891 787 1891 787 1854 787 c 0,33,34
 1729 787 1729 787 1663.5 706.5 c 128,-1,35
 1598 626 1598 626 1598 472 c 2,36,-1
 1598 0 l 1,37,-1
 1450 0 l 1,38,-1
 1450 896 l 1,39,-1
 1598 896 l 1,40,-1
 1598 758 l 1,41,42
 1689 920 1689 920 1898 918 c 0,43,44
 1914 918 1914 918 1932 916 c 0,45,46
 1950 913 1950 913 1974 911 c 1,47,-1
 1974 758 l 1,29,30
EndSplineSet
EndChar

StartChar: Eth
Encoding: 208 208 169
Width: 1368
VWidth: 2274
Flags: W
LayerCount: 2
Fore
SplineSet
436 1495 m 2,0,1
 606 1495 606 1495 732 1448.5 c 128,-1,2
 858 1402 858 1402 940 1310.5 c 128,-1,3
 1022 1219 1022 1219 1062.5 1078.5 c 128,-1,4
 1103 938 1103 938 1103 746 c 0,5,6
 1103 365 1103 365 938 182 c 0,7,8
 776 0 776 0 436 0 c 2,9,-1
 135 0 l 1,10,-1
 135 711 l 1,11,-1
 8 711 l 1,12,-1
 8 858 l 1,13,-1
 135 858 l 1,14,-1
 135 1495 l 1,15,-1
 436 1495 l 2,0,1
436 166 m 2,16,17
 689 166 689 166 792 290 c 1,18,19
 894 418 894 418 894 746 c 0,20,21
 894 1077 894 1077 792 1202 c 0,22,23
 690 1327 690 1327 436 1326 c 2,24,-1
 340 1326 l 1,25,-1
 340 858 l 1,26,-1
 604 858 l 1,27,-1
 604 711 l 1,28,-1
 340 711 l 1,29,-1
 340 166 l 1,30,-1
 436 166 l 2,16,17
EndSplineSet
EndChar

StartChar: subdominant
Encoding: 210 210 171
Width: 1181
VWidth: 2274
Flags: W
LayerCount: 2
Fore
SplineSet
907 915 m 1,0,1
 749 995 749 995 570 994 c 0,2,3
 296 994 296 994 298 826 c 0,4,5
 298 765 298 765 346 724 c 0,6,7
 394 687 394 687 542 655 c 2,8,-1
 606 643 l 2,9,10
 802 599 802 599 884 523 c 0,11,12
 966 447 966 447 967 310 c 0,13,14
 967 155 967 155 843 61 c 1,15,16
 721 -30 721 -30 504 -30 c 0,17,18
 324 -30 324 -30 110 42 c 1,19,-1
 110 230 l 1,20,21
 313 124 313 124 508 125 c 0,22,23
 640 125 640 125 709 170 c 0,24,25
 778 214 778 214 779 294 c 0,26,27
 779 368 779 368 726 410 c 0,28,29
 702 430 702 430 648 448 c 128,-1,30
 594 466 594 466 506 486 c 2,31,-1
 442 502 l 2,32,33
 356 522 356 522 295 550.5 c 128,-1,34
 234 579 234 579 194.5 615.5 c 128,-1,35
 155 652 155 652 136.5 702.5 c 128,-1,36
 118 753 118 753 118 818 c 0,37,38
 118 896 118 896 147 957 c 128,-1,39
 176 1018 176 1018 231 1060.5 c 128,-1,40
 286 1103 286 1103 366 1125 c 0,41,42
 446 1147 446 1147 550 1146 c 0,43,44
 756 1146 756 1146 907 1086 c 1,45,-1
 907 915 l 1,0,1
EndSplineSet
EndChar

StartChar: tonic
Encoding: 211 211 172
Width: 891
VWidth: 2274
Flags: W
LayerCount: 2
Fore
SplineSet
374 1438 m 1,0,-1
 374 1120 l 1,1,-1
 754 1120 l 1,2,-1
 754 979 l 1,3,-1
 374 979 l 1,4,-1
 374 370 l 2,5,6
 374 232 374 232 412 195 c 1,7,8
 450 157 450 157 566 154 c 2,9,-1
 754 154 l 1,10,-1
 754 0 l 1,11,-1
 566 0 l 2,12,13
 352 0 352 0 270 78 c 1,14,15
 188 156 188 156 189 370 c 2,16,-1
 189 979 l 1,17,-1
 54 979 l 1,18,-1
 54 1120 l 1,19,-1
 189 1120 l 1,20,-1
 189 1438 l 1,21,-1
 374 1438 l 1,0,-1
EndSplineSet
EndChar

StartChar: Subdominant
Encoding: 212 212 173
Width: 1441
VWidth: 2274
Flags: W
LayerCount: 2
Fore
SplineSet
1096 1246 m 1,0,1
 982 1300 982 1300 880.5 1328 c 128,-1,2
 779 1356 779 1356 682 1356 c 0,3,4
 516 1356 516 1356 427 1292 c 128,-1,5
 338 1228 338 1228 338 1111 c 0,6,7
 338 1010 338 1010 398 963 c 0,8,9
 428 937 428 937 483 916.5 c 128,-1,10
 538 896 538 896 622 878 c 2,11,-1
 746 854 l 2,12,13
 972 808 972 808 1079 701 c 128,-1,14
 1186 594 1186 594 1186 412 c 0,15,16
 1186 193 1186 193 1042.5 81.5 c 128,-1,17
 899 -30 899 -30 614 -30 c 0,18,19
 508 -30 508 -30 389 -6 c 128,-1,20
 270 18 270 18 142 67 c 1,21,-1
 142 274 l 1,22,23
 267 203 267 203 382.5 169 c 128,-1,24
 498 135 498 135 614 135 c 0,25,26
 788 135 788 135 881.5 202.5 c 128,-1,27
 975 270 975 270 975 398 c 0,28,29
 975 508 975 508 907 570 c 0,30,31
 836 631 836 631 686 662 c 2,32,-1
 562 686 l 2,33,34
 336 728 336 728 236 826 c 0,35,36
 134 921 134 921 135 1095 c 0,37,38
 135 1294 135 1294 274 1406 c 256,39,40
 412 1520 412 1520 658 1521 c 0,41,42
 870 1521 870 1521 1096 1445 c 1,43,-1
 1096 1246 l 1,0,1
EndSplineSet
EndChar

StartChar: multiply
Encoding: 215 215 176
Width: 1368
VWidth: 2274
Flags: W
LayerCount: 2
Fore
SplineSet
150 294 m 1,0,-1
 500 643 l 1,1,-1
 150 990 l 1,2,-1
 267 1108 l 1,3,-1
 617 758 l 1,4,-1
 967 1108 l 1,5,-1
 1082 990 l 1,6,-1
 734 643 l 1,7,-1
 1082 294 l 1,8,-1
 967 174 l 1,9,-1
 617 524 l 1,10,-1
 268 174 l 1,11,-1
 150 294 l 1,0,-1
EndSplineSet
EndChar

StartChar: Oslash
Encoding: 216 216 177
Width: 1368
VWidth: 2274
Flags: W
LayerCount: 2
Fore
SplineSet
370 302 m 1,0,1
 400 224 400 224 466 179.5 c 128,-1,2
 532 135 532 135 617 135 c 0,3,4
 771 135 771 135 839 274 c 1,5,6
 907 418 907 418 907 746 c 0,7,8
 907 856 907 856 900.5 923 c 128,-1,9
 894 990 894 990 886 1036 c 1,10,-1
 370 302 l 1,0,1
843 1190 m 1,11,12
 817 1272 817 1272 762 1314 c 128,-1,13
 707 1356 707 1356 617 1356 c 0,14,15
 459 1356 459 1356 395 1210 c 0,16,17
 328 1064 328 1064 328 686 c 0,18,19
 328 604 328 604 331 555 c 128,-1,20
 334 506 334 506 338 470 c 1,21,-1
 843 1190 l 1,11,12
1032 1246 m 1,22,23
 1074 1164 1074 1164 1095 1039 c 0,24,25
 1116 914 1116 914 1116 746 c 0,26,27
 1116 355 1116 355 993 162.5 c 128,-1,28
 870 -30 870 -30 617 -30 c 0,29,30
 375 -30 375 -30 253 135 c 1,31,-1
 110 -71 l 1,32,-1
 8 0 l 1,33,-1
 186 252 l 1,34,35
 155 326 155 326 135 456 c 0,36,37
 117 587 117 587 118 746 c 0,38,39
 118 1137 118 1137 241.5 1329 c 128,-1,40
 365 1521 365 1521 617 1521 c 0,41,42
 847 1521 847 1521 963 1359 c 1,43,-1
 1100 1559 l 1,44,-1
 1201 1487 l 1,45,-1
 1032 1246 l 1,22,23
EndSplineSet
EndChar

StartChar: Dominant
Encoding: 218 218 179
Width: 1750
VWidth: 2274
Flags: W
LayerCount: 2
Fore
SplineSet
402 1326 m 1,0,-1
 402 166 l 1,1,-1
 647 166 l 2,2,3
 957 166 957 166 1099 306 c 1,4,5
 1243 444 1243 444 1242 749 c 0,6,7
 1242 1047 1242 1047 1099 1186 c 0,8,9
 957 1326 957 1326 647 1326 c 2,10,-1
 402 1326 l 1,0,-1
203 1495 m 1,11,-1
 617 1495 l 2,12,13
 1051 1495 1051 1495 1254 1312 c 1,14,15
 1457 1132 1457 1132 1457 749 c 0,16,17
 1457 362 1457 362 1253 182 c 1,18,19
 1050 0 1050 0 617 0 c 2,20,-1
 203 0 l 1,21,-1
 203 1495 l 1,11,-1
EndSplineSet
EndChar

StartChar: Thorn
Encoding: 222 222 183
Width: 1368
VWidth: 2274
Flags: W
LayerCount: 2
Fore
SplineSet
402 1058 m 1,0,-1
 402 532 l 1,1,-1
 638 532 l 2,2,3
 952 532 952 532 952 795 c 128,-1,4
 952 1058 952 1058 638 1058 c 2,5,-1
 402 1058 l 1,0,-1
203 1495 m 1,6,-1
 402 1495 l 1,7,-1
 402 1223 l 1,8,-1
 658 1223 l 2,9,10
 918 1223 918 1223 1042.5 1118.5 c 128,-1,11
 1167 1014 1167 1014 1167 795 c 128,-1,12
 1167 576 1167 576 1043 472 c 0,13,14
 921 367 921 367 658 366 c 2,15,-1
 402 366 l 1,16,-1
 402 0 l 1,17,-1
 203 0 l 1,18,-1
 203 1495 l 1,6,-1
EndSplineSet
EndChar

StartChar: germandbls
Encoding: 223 223 184
Width: 0
VWidth: 2274
Flags: W
LayerCount: 2
Fore
SplineSet
214 41 m 2,0,1
 224 41 224 41 222 30 c 2,2,-1
 222 -27 l 2,3,4
 222 -37 222 -37 214 -38 c 2,5,-1
 -110 -38 l 2,6,7
 -120 -38 -120 -38 -118 -27 c 2,8,-1
 -118 34 l 1,9,10
 -47 106 -47 106 0 159 c 0,11,12
 48 213 48 213 67 238 c 0,13,14
 85 260 85 260 95.5 275 c 128,-1,15
 106 290 106 290 113 303.5 c 128,-1,16
 120 317 120 317 122 331 c 0,17,18
 125 343 125 343 125 354 c 0,19,20
 125 394 125 394 101.5 416 c 128,-1,21
 78 438 78 438 38 438 c 0,22,23
 -23 438 -23 438 -101 395 c 0,24,25
 -108 392 -108 392 -111 394 c 128,-1,26
 -114 396 -114 396 -114 402 c 2,27,-1
 -114 474 l 2,28,29
 -114 481 -114 481 -110 482 c 0,30,31
 -72 500 -72 500 -34.5 510 c 128,-1,32
 3 520 3 520 38 520 c 0,33,34
 79 520 79 520 111.5 509 c 128,-1,35
 144 498 144 498 169.5 476.5 c 128,-1,36
 195 455 195 455 206.5 425.5 c 128,-1,37
 218 396 218 396 218 361 c 0,38,39
 218 323 218 323 202 287.5 c 128,-1,40
 186 252 186 252 150 210 c 1,41,-1
 150 210 l 1,42,43
 130 188 130 188 90 146 c 2,44,-1
 -8 41 l 1,45,-1
 214 41 l 2,0,1
EndSplineSet
EndChar

StartChar: aring
Encoding: 229 229 190
Width: 0
VWidth: 2274
Flags: W
LayerCount: 2
Fore
SplineSet
-90 31 m 2,0,1
 -90 41 -90 41 -78 42 c 2,2,-1
 30 42 l 1,3,-1
 30 422 l 1,4,-1
 -86 400 l 2,5,6
 -98 397 -98 397 -98 410 c 2,7,-1
 -98 476 l 2,8,9
 -98 483 -98 483 -90 486 c 2,10,-1
 37 510 l 1,11,-1
 110 510 l 2,12,13
 118 510 118 510 118 502 c 2,14,-1
 118 42 l 1,15,-1
 226 42 l 2,16,17
 236 42 236 42 234 31 c 2,18,-1
 234 -26 l 2,19,20
 234 -36 234 -36 226 -37 c 2,21,-1
 -78 -37 l 2,22,23
 -88 -37 -88 -37 -90 -26 c 2,24,-1
 -90 31 l 2,0,1
EndSplineSet
EndChar

StartChar: ae
Encoding: 230 230 191
Width: 1368
VWidth: 2274
Flags: W
LayerCount: 2
Fore
SplineSet
542 515 m 1,0,-1
 494 515 l 2,1,2
 325 515 325 515 267 470 c 256,3,4
 207 424 207 424 206 310 c 0,5,6
 206 220 206 220 249.5 172.5 c 128,-1,7
 293 125 293 125 378 125 c 0,8,9
 468 125 468 125 506 189 c 1,10,11
 543 256 543 256 542 442 c 2,12,-1
 542 515 l 1,0,-1
1036 658 m 1,13,-1
 1036 711 l 2,14,15
 1036 785 1036 785 1027 838.5 c 128,-1,16
 1018 892 1018 892 998.5 927.5 c 128,-1,17
 979 963 979 963 947 978.5 c 128,-1,18
 915 994 915 994 873 994 c 0,19,20
 829 994 829 994 797.5 978.5 c 128,-1,21
 766 963 766 963 746 926.5 c 128,-1,22
 726 890 726 890 718.5 834.5 c 128,-1,23
 711 779 711 779 711 700 c 2,24,-1
 711 658 l 1,25,-1
 1036 658 l 1,13,-1
1201 515 m 1,26,-1
 711 515 l 1,27,28
 708 501 708 501 707.5 482.5 c 128,-1,29
 707 464 707 464 707 430 c 0,30,31
 707 268 707 268 758.5 196.5 c 128,-1,32
 810 125 810 125 920 125 c 0,33,34
 1078 125 1078 125 1178 226 c 1,35,-1
 1178 54 l 1,36,37
 1124 12 1124 12 1058 -9 c 128,-1,38
 992 -30 992 -30 920 -30 c 0,39,40
 808 -30 808 -30 736 12 c 0,41,42
 665 54 665 54 630 131 c 1,43,44
 552 -28 552 -28 361 -30 c 0,45,46
 203 -30 203 -30 122.5 56 c 128,-1,47
 42 142 42 142 42 306 c 0,48,49
 42 480 42 480 140 569 c 128,-1,50
 238 658 238 658 432 658 c 2,51,-1
 550 658 l 1,52,-1
 550 746 l 2,53,54
 550 868 550 868 500.5 931 c 128,-1,55
 451 994 451 994 357 994 c 0,56,57
 300 994 300 994 234 972 c 0,58,59
 170 950 170 950 106 911 c 1,60,-1
 106 1078 l 1,61,62
 184 1112 184 1112 249 1129 c 128,-1,63
 314 1146 314 1146 374 1146 c 0,64,65
 552 1146 552 1146 626 1020 c 1,66,67
 660 1081 660 1081 725 1114 c 0,68,69
 792 1145 792 1145 882 1146 c 0,70,71
 1056 1146 1056 1146 1126 1028 c 1,72,73
 1200 910 1200 910 1201 604 c 2,74,-1
 1201 515 l 1,26,-1
EndSplineSet
EndChar

StartChar: ccedilla
Encoding: 231 231 192
Width: 0
VWidth: 2274
Flags: W
LayerCount: 2
Fore
SplineSet
204 -395 m 0,0,1
 204 -477 204 -477 131 -508 c 1,2,3
 173 -526 173 -526 194.5 -562 c 128,-1,4
 216 -598 216 -598 216 -647 c 0,5,6
 216 -725 216 -725 165 -769 c 128,-1,7
 114 -813 114 -813 22 -813 c 0,8,9
 -52 -813 -52 -813 -131 -784 c 1,10,11
 -139 -781 -139 -781 -138 -775 c 2,12,-1
 -138 -707 l 2,13,14
 -138 -700 -138 -700 -133 -697 c 128,-1,15
 -128 -694 -128 -694 -122 -696 c 0,16,17
 -84 -714 -84 -714 -53 -722 c 128,-1,18
 -22 -730 -22 -730 14 -730 c 0,19,20
 126 -730 126 -730 125 -638 c 0,21,22
 125 -596 125 -596 98 -572.5 c 128,-1,23
 71 -549 71 -549 18 -549 c 2,24,-1
 -37 -549 l 2,25,26
 -47 -549 -47 -549 -46 -538 c 2,27,-1
 -46 -478 l 2,28,29
 -46 -468 -46 -468 -37 -470 c 2,30,-1
 18 -470 l 2,31,32
 64 -470 64 -470 89 -451 c 128,-1,33
 114 -432 114 -432 114 -398 c 0,34,35
 114 -324 114 -324 24 -324 c 0,36,37
 -37 -324 -37 -324 -108 -351 c 0,38,39
 -115 -354 -115 -354 -118.5 -352 c 128,-1,40
 -122 -350 -122 -350 -122 -342 c 2,41,-1
 -122 -278 l 2,42,43
 -122 -270 -122 -270 -114 -267 c 0,44,45
 -68 -257 -68 -257 -35.5 -250.5 c 128,-1,46
 -3 -244 -3 -244 24 -244 c 0,47,48
 110 -244 110 -244 157 -284 c 128,-1,49
 204 -324 204 -324 204 -395 c 0,0,1
EndSplineSet
EndChar

StartChar: eth
Encoding: 240 240 201
Width: 1368
VWidth: 2274
Flags: W
LayerCount: 2
Fore
SplineSet
719 1326 m 1,0,1
 915 1114 915 1114 1006 926 c 0,2,3
 1096 738 1096 738 1096 534 c 0,4,5
 1096 266 1096 266 971 118 c 1,6,7
 847 -30 847 -30 617 -30 c 0,8,9
 388 -30 388 -30 263 118 c 1,10,11
 139 268 139 268 138 534 c 0,12,13
 138 798 138 798 263 949 c 1,14,15
 388 1097 388 1097 613 1096 c 0,16,17
 647 1096 647 1096 664.5 1095.5 c 128,-1,18
 682 1095 682 1095 696 1092 c 1,19,20
 662 1138 662 1138 626.5 1182.5 c 128,-1,21
 591 1227 591 1227 554 1270 c 1,22,-1
 274 1178 l 1,23,-1
 244 1276 l 1,24,-1
 482 1356 l 1,25,-1
 298 1556 l 1,26,-1
 519 1556 l 1,27,-1
 647 1411 l 1,28,-1
 934 1506 l 1,29,-1
 967 1406 l 1,30,-1
 719 1326 l 1,0,1
794 918 m 1,31,32
 720 944 720 944 630 945 c 0,33,34
 482 945 482 945 407 840.5 c 128,-1,35
 332 736 332 736 332 534 c 0,36,37
 332 335 332 335 405 230 c 128,-1,38
 478 125 478 125 617 125 c 0,39,40
 755 125 755 125 829 231.5 c 128,-1,41
 903 338 903 338 903 534 c 0,42,43
 903 640 903 640 873 746 c 0,44,45
 859 796 859 796 839.5 840 c 128,-1,46
 820 884 820 884 794 918 c 1,31,32
EndSplineSet
EndChar

StartChar: divide
Encoding: 247 247 208
Width: 0
VWidth: 2274
Flags: W
LayerCount: 2
Fore
SplineSet
50 -317 m 0,0,1
 -52 -317 -52 -317 -54 -528 c 0,2,3
 -54 -734 -54 -734 50 -734 c 0,4,5
 152 -734 152 -734 150 -528 c 0,6,7
 152 -317 152 -317 50 -317 c 0,0,1
50 -244 m 0,8,9
 144 -244 144 -244 193 -315.5 c 128,-1,10
 242 -387 242 -387 242 -528 c 0,11,12
 242 -666 242 -666 192 -741 c 0,13,14
 144 -813 144 -813 50 -813 c 0,15,16
 -45 -813 -45 -813 -94.5 -739.5 c 128,-1,17
 -144 -666 -144 -666 -144 -528 c 0,18,19
 -145 -244 -145 -244 50 -244 c 0,8,9
EndSplineSet
EndChar

StartChar: oslash
Encoding: 248 248 209
Width: 0
VWidth: 2274
Flags: W
LayerCount: 2
Fore
SplineSet
50 972 m 0,0,1
 92 972 92 972 115 1002 c 128,-1,2
 138 1032 138 1032 138 1086 c 256,3,4
 138 1140 138 1140 114 1170.5 c 128,-1,5
 90 1201 90 1201 50 1201 c 0,6,7
 -36 1201 -36 1201 -38 1086 c 256,8,9
 -36 972 -36 972 50 972 c 0,0,1
-90 805 m 2,10,11
 -90 812 -90 812 -84 813 c 128,-1,12
 -78 814 -78 814 -74 813 c 0,13,14
 -52 803 -52 803 -29.5 795.5 c 128,-1,15
 -7 788 -7 788 20 788 c 0,16,17
 80 788 80 788 112 825 c 128,-1,18
 144 862 144 862 150 945 c 1,19,20
 109 897 109 897 42 896 c 0,21,22
 -40 896 -40 896 -82.5 945 c 128,-1,23
 -125 994 -125 994 -125 1086 c 256,24,25
 -125 1176 -125 1176 -81.5 1225 c 128,-1,26
 -38 1274 -38 1274 48 1274 c 0,27,28
 146 1274 146 1274 190 1206 c 128,-1,29
 234 1138 234 1138 234 990 c 0,30,31
 234 852 234 852 182.5 779.5 c 128,-1,32
 131 707 131 707 24 707 c 0,33,34
 -30 707 -30 707 -82 730 c 1,35,36
 -89 730 -89 730 -90 738 c 2,37,-1
 -90 805 l 2,10,11
EndSplineSet
EndChar

StartChar: thorn
Encoding: 254 254 215
Width: 1368
VWidth: 2274
Flags: W
LayerCount: 2
Fore
SplineSet
374 -426 m 1,0,-1
 189 -426 l 1,1,-1
 189 1566 l 1,2,-1
 374 1566 l 1,3,-1
 374 979 l 1,4,5
 420 1065 420 1065 497 1105.5 c 128,-1,6
 574 1146 574 1146 674 1146 c 0,7,8
 877 1146 877 1146 992 990 c 0,9,10
 1108 832 1108 832 1108 554 c 0,11,12
 1108 284 1108 284 992 125 c 1,13,14
 876 -30 876 -30 674 -30 c 0,15,16
 466 -30 466 -30 374 142 c 1,17,-1
 374 -426 l 1,0,-1
915 558 m 256,18,19
 915 990 915 990 647 990 c 0,20,21
 511 990 511 990 442 882 c 0,22,23
 374 772 374 772 374 558 c 256,24,25
 374 344 374 344 442 234.5 c 128,-1,26
 510 125 510 125 647 125 c 0,27,28
 915 126 915 126 915 558 c 256,18,19
EndSplineSet
EndChar

StartChar: zero.001
Encoding: 1114114 -1 217
Width: 1368
VWidth: 2274
Flags: W
LayerCount: 2
Fore
SplineSet
482 750 m 0,0,1
 482 804 482 804 523 847 c 1,2,3
 561 888 561 888 614 886 c 0,4,5
 670 886 670 886 711 847 c 256,6,7
 752 806 752 806 750 750 c 0,8,9
 750 694 750 694 711 655 c 0,10,11
 673 617 673 617 614 617 c 0,12,13
 558 617 558 617 520 655 c 0,14,15
 482 693 482 693 482 750 c 0,0,1
617 1360 m 0,16,17
 475 1360 475 1360 405.5 1208 c 128,-1,18
 336 1056 336 1056 336 746 c 0,19,20
 336 436 336 436 405 283.5 c 128,-1,21
 474 131 474 131 617 131 c 0,22,23
 759 131 759 131 829 282.5 c 128,-1,24
 899 434 899 434 899 745 c 128,-1,25
 899 1056 899 1056 829 1208 c 128,-1,26
 759 1360 759 1360 617 1360 c 0,16,17
617 1521 m 256,27,28
 855 1521 855 1521 977.5 1325 c 128,-1,29
 1100 1129 1100 1129 1100 746 c 0,30,31
 1100 365 1100 365 977 167.5 c 128,-1,32
 854 -30 854 -30 617 -30 c 256,33,34
 379 -30 379 -30 256 166 c 0,35,36
 134 362 134 362 134.5 745.5 c 128,-1,37
 135 1129 135 1129 257 1325 c 128,-1,38
 379 1521 379 1521 617 1521 c 256,27,28
EndSplineSet
EndChar

StartChar: one.001
Encoding: 1114115 -1 218
Width: 1368
VWidth: 2274
Flags: W
LayerCount: 2
Fore
SplineSet
270 170 m 1,0,-1
 584 170 l 1,1,-1
 584 1310 l 1,2,-1
 246 1235 l 1,3,-1
 246 1419 l 1,4,-1
 583 1495 l 1,5,-1
 784 1495 l 1,6,-1
 784 170 l 1,7,-1
 1095 170 l 1,8,-1
 1095 0 l 1,9,-1
 270 0 l 1,10,-1
 270 170 l 1,0,-1
EndSplineSet
EndChar

StartChar: I.001
Encoding: 1114116 -1 219
Width: 1368
VWidth: 2274
Flags: W
LayerCount: 2
Fore
SplineSet
203 1495 m 1,0,-1
 402 1495 l 1,1,-1
 402 0 l 1,2,-1
 203 0 l 1,3,-1
 203 1495 l 1,0,-1
EndSplineSet
EndChar

StartChar: V.001
Encoding: 1114117 -1 220
Width: 1368
VWidth: 2274
Flags: W
LayerCount: 2
Fore
SplineSet
617 170 m 1,0,-1
 967 1495 l 1,1,-1
 1176 1495 l 1,2,-1
 738 0 l 1,3,-1
 494 0 l 1,4,-1
 57 1495 l 1,5,-1
 267 1495 l 1,6,-1
 617 170 l 1,0,-1
EndSplineSet
EndChar

StartChar: backslash.001
Encoding: 1114118 -1 221
Width: 0
VWidth: 2274
Flags: W
LayerCount: 2
Fore
SplineSet
617 -574 m 1,0,-1
 617 -690 l 1,1,-1
 -418 -690 l 1,2,-1
 -418 -783 l 1,3,-1
 -617 -630 l 1,4,-1
 -418 -478 l 1,5,-1
 -418 -574 l 1,6,-1
 617 -574 l 1,0,-1
EndSplineSet
EndChar

StartChar: i.001
Encoding: 1114119 -1 222
Width: 1368
VWidth: 2274
Flags: W
LayerCount: 2
Fore
SplineSet
256 1120 m 1,0,-1
 726 1120 l 1,1,-1
 726 142 l 1,2,-1
 1092 142 l 1,3,-1
 1092 0 l 1,4,-1
 178 0 l 1,5,-1
 178 142 l 1,6,-1
 542 142 l 1,7,-1
 542 979 l 1,8,-1
 256 979 l 1,9,-1
 256 1120 l 1,0,-1
542 1556 m 1,10,-1
 726 1556 l 1,11,-1
 726 1322 l 1,12,-1
 542 1322 l 1,13,-1
 542 1556 l 1,10,-1
EndSplineSet
EndChar

StartChar: v.001
Encoding: 1114120 -1 223
Width: 1368
VWidth: 2274
Flags: W
LayerCount: 2
Fore
SplineSet
101 1120 m 1,0,-1
 290 1120 l 1,1,-1
 617 180 l 1,2,-1
 942 1120 l 1,3,-1
 1134 1120 l 1,4,-1
 734 0 l 1,5,-1
 498 0 l 1,6,-1
 101 1120 l 1,0,-1
EndSplineSet
EndChar

StartChar: x.001
Encoding: 1114121 -1 224
Width: 1368
VWidth: 2274
Flags: W
LayerCount: 2
Fore
SplineSet
1118 1120 m 1,0,-1
 719 584 l 1,1,-1
 1159 0 l 1,2,-1
 945 0 l 1,3,-1
 617 451 l 1,4,-1
 290 0 l 1,5,-1
 76 0 l 1,6,-1
 516 584 l 1,7,-1
 114 1120 l 1,8,-1
 317 1120 l 1,9,-1
 617 715 l 1,10,-1
 911 1120 l 1,11,-1
 1118 1120 l 1,0,-1
EndSplineSet
EndChar

StartChar: exclamdown.001
Encoding: 1114122 -1 225
Width: 0
VWidth: 2274
Flags: W
LayerCount: 2
Fore
SplineSet
-106 1300 m 1,0,-1
 -22 1300 l 1,1,-1
 -22 1586 l 1,2,-1
 -112 1566 l 1,3,-1
 -112 1615 l 1,4,-1
 -22 1631 l 1,5,-1
 27 1631 l 1,6,-1
 27 1300 l 1,7,-1
 110 1300 l 1,8,-1
 110 1258 l 1,9,-1
 -106 1258 l 1,10,-1
 -106 1300 l 1,0,-1
EndSplineSet
EndChar

StartChar: dcroat
Encoding: 273 273 243
Width: 1368
VWidth: 2274
Flags: W
LayerCount: 2
Fore
SplineSet
858 1287 m 1,0,-1
 554 1287 l 1,1,-1
 554 1406 l 1,2,-1
 858 1406 l 1,3,-1
 858 1556 l 1,4,-1
 1043 1556 l 1,5,-1
 1043 1406 l 1,6,-1
 1235 1406 l 1,7,-1
 1235 1287 l 1,8,-1
 1043 1287 l 1,9,-1
 1043 0 l 1,10,-1
 858 0 l 1,11,-1
 858 142 l 1,12,13
 812 56 812 56 735 13 c 128,-1,14
 658 -30 658 -30 558 -30 c 0,15,16
 355 -30 355 -30 238 128 c 1,17,18
 122 286 122 286 122 562 c 0,19,20
 122 836 122 836 240 990 c 0,21,22
 358 1145 358 1145 558 1146 c 0,23,24
 660 1146 660 1146 738 1104 c 0,25,26
 814 1062 814 1062 858 979 c 1,27,-1
 858 1287 l 1,0,-1
317 558 m 256,28,29
 317 126 317 126 587 125 c 0,30,31
 722 125 722 125 790 234.5 c 128,-1,32
 858 344 858 344 858 558 c 256,33,34
 858 772 858 772 790 881 c 128,-1,35
 722 990 722 990 587 990 c 0,36,37
 317 990 317 990 317 558 c 256,28,29
EndSplineSet
EndChar

StartChar: Hbar
Encoding: 294 294 264
Width: 1368
VWidth: 2274
Flags: W
LayerCount: 2
Fore
SplineSet
138 1495 m 1,0,-1
 338 1495 l 1,1,-1
 338 1270 l 1,2,-1
 894 1270 l 1,3,-1
 894 1495 l 1,4,-1
 1095 1495 l 1,5,-1
 1095 1270 l 1,6,-1
 1231 1270 l 1,7,-1
 1231 1107 l 1,8,-1
 1095 1107 l 1,9,-1
 1095 0 l 1,10,-1
 894 0 l 1,11,-1
 894 711 l 1,12,-1
 338 711 l 1,13,-1
 338 0 l 1,14,-1
 138 0 l 1,15,-1
 138 1107 l 1,16,-1
 3 1107 l 1,17,-1
 3 1270 l 1,18,-1
 138 1270 l 1,19,-1
 138 1495 l 1,0,-1
338 1107 m 1,20,-1
 338 882 l 1,21,-1
 894 882 l 1,22,-1
 894 1107 l 1,23,-1
 338 1107 l 1,20,-1
EndSplineSet
EndChar

StartChar: hbar
Encoding: 295 295 265
Width: 1368
VWidth: 2274
Flags: W
LayerCount: 2
Fore
SplineSet
1050 0 m 1,0,-1
 866 0 l 1,1,-1
 866 694 l 2,2,3
 866 844 866 844 813 915 c 128,-1,4
 760 986 760 986 647 986 c 0,5,6
 516 986 516 986 448 896 c 0,7,8
 380 806 380 806 378 634 c 2,9,-1
 378 0 l 1,10,-1
 195 0 l 1,11,-1
 195 1270 l 1,12,-1
 71 1270 l 1,13,-1
 71 1435 l 1,14,-1
 195 1435 l 1,15,-1
 195 1556 l 1,16,-1
 378 1556 l 1,17,-1
 378 1435 l 1,18,-1
 732 1435 l 1,19,-1
 732 1270 l 1,20,-1
 378 1270 l 1,21,-1
 378 952 l 1,22,23
 428 1050 428 1050 512 1098 c 128,-1,24
 596 1146 596 1146 711 1146 c 0,25,26
 885 1146 885 1146 967.5 1035 c 128,-1,27
 1050 924 1050 924 1050 694 c 2,28,-1
 1050 0 l 1,0,-1
EndSplineSet
EndChar

StartChar: dotlessi
Encoding: 305 305 275
Width: 1368
VWidth: 2274
Flags: W
LayerCount: 2
Fore
SplineSet
256 1120 m 1,0,-1
 726 1120 l 1,1,-1
 726 142 l 1,2,-1
 1092 142 l 1,3,-1
 1092 0 l 1,4,-1
 178 0 l 1,5,-1
 178 142 l 1,6,-1
 542 142 l 1,7,-1
 542 979 l 1,8,-1
 256 979 l 1,9,-1
 256 1120 l 1,0,-1
EndSplineSet
EndChar

StartChar: IJ
Encoding: 306 306 276
Width: 1368
VWidth: 2274
Flags: W
LayerCount: 2
Fore
SplineSet
652 300 m 1,0,1
 774 138 774 138 916 138 c 0,2,3
 1014 138 1014 138 1052 212 c 0,4,5
 1090 286 1090 286 1091 490 c 2,6,-1
 1091 1326 l 1,7,-1
 830 1326 l 1,8,-1
 830 1496 l 1,9,-1
 1228 1496 l 1,10,-1
 1228 490 l 2,11,12
 1228 208 1228 208 1156 90 c 256,13,14
 1084 -28 1084 -28 916 -26 c 0,15,16
 848 -26 848 -26 787 -4 c 0,17,18
 756 6 756 6 721 24 c 128,-1,19
 686 42 686 42 652 61 c 1,20,-1
 652 300 l 1,0,1
-3 1495 m 1,21,-1
 604 1495 l 1,22,-1
 604 1322 l 1,23,-1
 376 1322 l 1,24,-1
 376 170 l 1,25,-1
 604 170 l 1,26,-1
 604 0 l 1,27,-1
 -3 0 l 1,28,-1
 -3 170 l 1,29,-1
 226 170 l 1,30,-1
 226 1322 l 1,31,-1
 -3 1322 l 1,32,-1
 -3 1495 l 1,21,-1
EndSplineSet
EndChar

StartChar: ij
Encoding: 307 307 277
Width: 1368
VWidth: 2274
Flags: W
LayerCount: 2
Fore
SplineSet
979 967 m 1,0,-1
 662 967 l 1,1,-1
 662 1111 l 1,2,-1
 1163 1111 l 1,3,-1
 1163 -30 l 2,4,5
 1163 -229 1163 -229 1074.5 -333.5 c 128,-1,6
 986 -438 986 -438 818 -438 c 2,7,-1
 564 -438 l 1,8,-1
 564 -282 l 1,9,-1
 798 -282 l 2,10,11
 978 -282 978 -282 979 -30 c 2,12,-1
 979 967 l 1,0,-1
979 1547 m 1,13,-1
 1163 1547 l 1,14,-1
 1163 1312 l 1,15,-1
 979 1312 l 1,16,-1
 979 1547 l 1,13,-1
57 1120 m 1,17,-1
 446 1120 l 1,18,-1
 446 142 l 1,19,-1
 746 142 l 1,20,-1
 746 0 l 1,21,-1
 -7 0 l 1,22,-1
 -7 142 l 1,23,-1
 294 142 l 1,24,-1
 294 979 l 1,25,-1
 57 979 l 1,26,-1
 57 1120 l 1,17,-1
294 1556 m 1,27,-1
 446 1556 l 1,28,-1
 446 1322 l 1,29,-1
 294 1322 l 1,30,-1
 294 1556 l 1,27,-1
EndSplineSet
EndChar

StartChar: kgreenlandic
Encoding: 312 312 282
Width: 1368
VWidth: 2274
Flags: W
LayerCount: 2
Fore
SplineSet
236 1120 m 1,0,-1
 426 1120 l 1,1,-1
 426 655 l 1,2,-1
 911 1120 l 1,3,-1
 1134 1120 l 1,4,-1
 692 698 l 1,5,-1
 1202 0 l 1,6,-1
 979 0 l 1,7,-1
 562 579 l 1,8,-1
 426 451 l 1,9,-1
 426 0 l 1,10,-1
 236 0 l 1,11,-1
 236 1120 l 1,0,-1
EndSplineSet
EndChar

StartChar: Lslash
Encoding: 321 321 291
Width: 1368
VWidth: 2274
Flags: W
LayerCount: 2
Fore
SplineSet
214 1495 m 1,0,-1
 418 1495 l 1,1,-1
 418 878 l 1,2,-1
 734 1096 l 1,3,-1
 810 986 l 1,4,-1
 418 711 l 1,5,-1
 418 170 l 1,6,-1
 1138 170 l 1,7,-1
 1138 0 l 1,8,-1
 214 0 l 1,9,-1
 214 570 l 1,10,-1
 71 466 l 1,11,-1
 -10 574 l 1,12,-1
 214 734 l 1,13,-1
 214 1495 l 1,0,-1
EndSplineSet
EndChar

StartChar: lslash
Encoding: 322 322 292
Width: 1368
VWidth: 2274
Flags: W
LayerCount: 2
Fore
SplineSet
638 406 m 2,0,1
 638 156 638 156 818 155 c 2,2,-1
 1035 155 l 1,3,-1
 1035 0 l 1,4,-1
 802 0 l 2,5,6
 636 0 636 0 545.5 105 c 128,-1,7
 455 210 455 210 455 406 c 2,8,-1
 455 698 l 1,9,-1
 155 490 l 1,10,-1
 76 600 l 1,11,-1
 455 864 l 1,12,-1
 455 1423 l 1,13,-1
 159 1423 l 1,14,-1
 159 1566 l 1,15,-1
 638 1566 l 1,16,-1
 638 990 l 1,17,-1
 954 1209 l 1,18,-1
 1035 1099 l 1,19,-1
 638 822 l 1,20,-1
 638 406 l 2,0,1
EndSplineSet
EndChar

StartChar: napostrophe
Encoding: 329 329 299
Width: 1368
VWidth: 2274
Flags: W
LayerCount: 2
Fore
SplineSet
1175 0 m 1,0,-1
 990 0 l 1,1,-1
 990 694 l 2,2,3
 990 844 990 844 936 915 c 128,-1,4
 882 986 882 986 771 986 c 0,5,6
 640 986 640 986 570 896 c 0,7,8
 502 806 502 806 502 634 c 2,9,-1
 502 0 l 1,10,-1
 317 0 l 1,11,-1
 317 1120 l 1,12,-1
 502 1120 l 1,13,-1
 502 952 l 1,14,15
 552 1050 552 1050 635.5 1098 c 128,-1,16
 719 1146 719 1146 835 1146 c 0,17,18
 1009 1146 1009 1146 1092 1035 c 128,-1,19
 1175 924 1175 924 1175 694 c 2,20,-1
 1175 0 l 1,0,-1
122 1556 m 1,21,-1
 374 1556 l 1,22,-1
 374 1351 l 1,23,-1
 178 967 l 1,24,-1
 24 967 l 1,25,-1
 122 1351 l 1,26,-1
 122 1556 l 1,21,-1
EndSplineSet
EndChar

StartChar: Eng
Encoding: 330 330 300
Width: 1368
VWidth: 2274
Flags: W
LayerCount: 2
Fore
SplineSet
1086 -20 m 2,0,1
 1086 -215 1086 -215 997 -317 c 1,2,3
 907 -423 907 -423 742 -426 c 2,4,-1
 536 -426 l 1,5,-1
 536 -270 l 1,6,-1
 702 -270 l 2,7,8
 792 -270 792 -270 839 -208 c 0,9,10
 883 -147 883 -147 882 0 c 2,11,-1
 882 1010 l 2,12,13
 882 1190 882 1190 824 1274.5 c 128,-1,14
 766 1359 766 1359 643 1359 c 0,15,16
 501 1359 501 1359 425 1250 c 0,17,18
 351 1142 351 1142 350 938 c 2,19,-1
 350 0 l 1,20,-1
 146 0 l 1,21,-1
 146 1495 l 1,22,-1
 350 1495 l 1,23,-1
 350 1295 l 1,24,25
 404 1407 404 1407 495.5 1464.5 c 128,-1,26
 587 1522 587 1522 715 1522 c 0,27,28
 1087 1522 1087 1522 1086 998 c 2,29,-1
 1086 -20 l 2,0,1
EndSplineSet
EndChar

StartChar: eng
Encoding: 331 331 301
Width: 1368
VWidth: 2274
Flags: W
LayerCount: 2
Fore
SplineSet
1050 -20 m 2,0,1
 1050 -215 1050 -215 963 -317 c 1,2,3
 873 -423 873 -423 707 -426 c 2,4,-1
 502 -426 l 1,5,-1
 502 -270 l 1,6,-1
 686 -270 l 2,7,8
 776 -270 776 -270 822 -208 c 0,9,10
 866 -147 866 -147 866 -20 c 2,11,-1
 866 694 l 2,12,13
 866 844 866 844 813 915 c 128,-1,14
 760 986 760 986 647 986 c 0,15,16
 516 986 516 986 451 896 c 1,17,18
 380 805 380 805 378 634 c 2,19,-1
 378 0 l 1,20,-1
 195 0 l 1,21,-1
 195 1120 l 1,22,-1
 378 1120 l 1,23,-1
 378 952 l 1,24,25
 404 1002 404 1002 437 1038 c 128,-1,26
 470 1074 470 1074 512 1099 c 0,27,28
 594 1147 594 1147 711 1146 c 0,29,30
 881 1146 881 1146 967 1035 c 1,31,32
 1051 923 1051 923 1050 694 c 2,33,-1
 1050 -20 l 2,0,1
EndSplineSet
EndChar

StartChar: oe.001
Encoding: 1114123 -1 308
Width: 0
VWidth: 2274
Flags: W
LayerCount: 2
Fore
SplineSet
-106 771 m 1,0,-1
 -22 771 l 1,1,-1
 -22 1054 l 1,2,-1
 -112 1039 l 1,3,-1
 -112 1082 l 1,4,-1
 -22 1103 l 1,5,-1
 27 1103 l 1,6,-1
 27 771 l 1,7,-1
 110 771 l 1,8,-1
 110 728 l 1,9,-1
 -106 728 l 1,10,-1
 -106 771 l 1,0,-1
EndSplineSet
EndChar

StartChar: Tbar
Encoding: 358 358 325
Width: 1368
VWidth: 2274
Flags: W
LayerCount: 2
Fore
SplineSet
46 1495 m 1,0,-1
 1186 1495 l 1,1,-1
 1186 1322 l 1,2,-1
 719 1322 l 1,3,-1
 719 746 l 1,4,-1
 984 746 l 1,5,-1
 984 579 l 1,6,-1
 719 579 l 1,7,-1
 719 0 l 1,8,-1
 516 0 l 1,9,-1
 516 579 l 1,10,-1
 250 579 l 1,11,-1
 250 746 l 1,12,-1
 516 746 l 1,13,-1
 516 1322 l 1,14,-1
 46 1322 l 1,15,-1
 46 1495 l 1,0,-1
EndSplineSet
EndChar

StartChar: tbar
Encoding: 359 359 326
Width: 1368
VWidth: 2274
Flags: W
LayerCount: 2
Fore
SplineSet
614 1438 m 1,0,-1
 614 1120 l 1,1,-1
 1032 1120 l 1,2,-1
 1032 979 l 1,3,-1
 614 979 l 1,4,-1
 614 745 l 1,5,-1
 843 745 l 1,6,-1
 843 602 l 1,7,-1
 614 602 l 1,8,-1
 614 370 l 2,9,10
 614 248 614 248 662 196 c 0,11,12
 708 146 708 146 826 146 c 2,13,-1
 1032 146 l 1,14,-1
 1032 0 l 1,15,-1
 806 0 l 2,16,17
 600 0 600 0 515 82 c 0,18,19
 429 164 429 164 430 370 c 2,20,-1
 430 602 l 1,21,-1
 203 602 l 1,22,-1
 203 745 l 1,23,-1
 430 745 l 1,24,-1
 430 979 l 1,25,-1
 131 979 l 1,26,-1
 131 1120 l 1,27,-1
 430 1120 l 1,28,-1
 430 1438 l 1,29,-1
 614 1438 l 1,0,-1
EndSplineSet
EndChar

StartChar: longs
Encoding: 383 383 349
Width: 1368
VWidth: 2274
Flags: W
LayerCount: 2
Fore
SplineSet
678 0 m 1,0,-1
 494 0 l 1,1,-1
 494 979 l 1,2,-1
 195 979 l 1,3,-1
 195 1120 l 1,4,-1
 494 1120 l 1,5,-1
 494 1198 l 2,6,7
 494 1382 494 1382 578 1469 c 128,-1,8
 662 1556 662 1556 843 1556 c 2,9,-1
 1062 1556 l 1,10,-1
 1062 1402 l 1,11,-1
 854 1402 l 2,12,13
 756 1402 756 1402 716 1363 c 0,14,15
 678 1321 678 1321 678 1219 c 2,16,-1
 678 0 l 1,0,-1
EndSplineSet
EndChar

StartChar: uni0180
Encoding: 384 384 350
Width: 1368
VWidth: 2274
Flags: W
LayerCount: 2
Fore
SplineSet
378 979 m 1,0,1
 424 1061 424 1061 499 1103.5 c 128,-1,2
 574 1146 574 1146 678 1146 c 0,3,4
 881 1146 881 1146 997 990 c 0,5,6
 1113 836 1113 836 1112 562 c 0,7,8
 1112 284 1112 284 994 128 c 1,9,10
 880 -30 880 -30 677 -30 c 0,11,12
 576 -30 576 -30 499 13 c 128,-1,13
 422 56 422 56 378 142 c 1,14,-1
 378 0 l 1,15,-1
 195 0 l 1,16,-1
 195 1270 l 1,17,-1
 71 1270 l 1,18,-1
 71 1435 l 1,19,-1
 195 1435 l 1,20,-1
 195 1556 l 1,21,-1
 378 1556 l 1,22,-1
 378 1435 l 1,23,-1
 378 1435 l 1,24,-1
 732 1435 l 1,25,-1
 732 1270 l 1,26,-1
 378 1270 l 1,27,-1
 378 1270 l 1,28,-1
 378 979 l 1,0,1
651 990 m 0,29,30
 515 990 515 990 446 882 c 0,31,32
 378 772 378 772 378 558 c 256,33,34
 378 344 378 344 446.5 234.5 c 128,-1,35
 515 125 515 125 651 125 c 0,36,37
 921 125 921 125 918 558 c 256,38,39
 921 990 921 990 651 990 c 0,29,30
EndSplineSet
EndChar

StartChar: uni0181
Encoding: 385 385 351
Width: 1368
VWidth: 2274
Flags: W
LayerCount: 2
Fore
SplineSet
540 715 m 1,0,-1
 540 166 l 1,1,-1
 660 166 l 2,2,3
 838 166 838 166 911 226 c 1,4,5
 985 287 985 287 986 430 c 0,6,7
 986 576 986 576 907 645.5 c 128,-1,8
 828 715 828 715 660 715 c 2,9,-1
 540 715 l 1,0,-1
540 1326 m 1,10,-1
 540 878 l 1,11,-1
 656 878 l 2,12,13
 802 878 802 878 868 934 c 128,-1,14
 934 990 934 990 934 1114 c 0,15,16
 934 1171 934 1171 918.5 1210.5 c 128,-1,17
 903 1250 903 1250 869 1276.5 c 128,-1,18
 835 1303 835 1303 782.5 1314.5 c 128,-1,19
 730 1326 730 1326 656 1326 c 2,20,-1
 540 1326 l 1,10,-1
660 1495 m 2,21,22
 774 1495 774 1495 863 1468.5 c 128,-1,23
 952 1442 952 1442 1013 1394.5 c 128,-1,24
 1074 1347 1074 1347 1106 1276 c 128,-1,25
 1138 1205 1138 1205 1138 1114 c 0,26,27
 1138 838 1138 838 874 798 c 1,28,29
 1022 776 1022 776 1107 674 c 0,30,31
 1191 569 1191 569 1190 410 c 0,32,33
 1190 0 1190 0 660 0 c 2,34,-1
 338 0 l 1,35,-1
 338 1326 l 1,36,37
 277 1326 277 1326 226 1283 c 256,38,39
 176 1239 176 1239 176 1129 c 2,40,-1
 176 1078 l 1,41,-1
 20 1078 l 1,42,-1
 20 1150 l 2,43,44
 20 1308 20 1308 105 1401 c 0,45,46
 191 1495 191 1495 338 1495 c 2,47,-1
 660 1495 l 2,21,22
EndSplineSet
EndChar

StartChar: uni0183
Encoding: 387 387 353
Width: 1368
VWidth: 2274
Flags: W
LayerCount: 2
Fore
SplineSet
378 979 m 1,0,1
 424 1061 424 1061 499 1103.5 c 128,-1,2
 574 1146 574 1146 678 1146 c 0,3,4
 881 1146 881 1146 997 990 c 0,5,6
 1113 836 1113 836 1112 562 c 0,7,8
 1112 284 1112 284 994 128 c 1,9,10
 880 -30 880 -30 677 -30 c 0,11,12
 576 -30 576 -30 499 13 c 128,-1,13
 422 56 422 56 378 142 c 1,14,-1
 378 0 l 1,15,-1
 195 0 l 1,16,-1
 195 1556 l 1,17,-1
 946 1556 l 1,18,-1
 946 1372 l 1,19,-1
 378 1372 l 1,20,-1
 378 979 l 1,0,1
651 990 m 0,21,22
 515 990 515 990 446 882 c 0,23,24
 378 772 378 772 378 558 c 256,25,26
 378 344 378 344 446.5 234.5 c 128,-1,27
 515 125 515 125 651 125 c 0,28,29
 921 125 921 125 918 558 c 256,30,31
 921 990 921 990 651 990 c 0,21,22
EndSplineSet
EndChar

StartChar: uni0184
Encoding: 388 388 354
Width: 1368
VWidth: 2274
Flags: W
LayerCount: 2
Fore
SplineSet
418 715 m 1,0,-1
 418 166 l 1,1,-1
 656 166 l 2,2,3
 830 166 830 166 907 229 c 0,4,5
 981 290 981 290 982 430 c 0,6,7
 982 576 982 576 903 644 c 0,8,9
 823 715 823 715 656 715 c 2,10,-1
 418 715 l 1,0,-1
418 878 m 1,11,-1
 652 878 l 2,12,13
 841 878 841 878 961.5 822 c 128,-1,14
 1082 766 1082 766 1133 670 c 0,15,16
 1187 568 1187 568 1186 410 c 0,17,18
 1186 207 1186 207 1052 105 c 0,19,20
 917 0 917 0 656 0 c 2,21,-1
 214 0 l 1,22,-1
 214 949 l 1,23,-1
 48 1176 l 1,24,-1
 418 1495 l 1,25,-1
 418 878 l 1,11,-1
EndSplineSet
EndChar

StartChar: uni0185
Encoding: 389 389 355
Width: 1368
VWidth: 2274
Flags: W
LayerCount: 2
Fore
SplineSet
711 990 m 0,0,1
 576 990 576 990 506 882 c 0,2,3
 438 774 438 774 438 558 c 0,4,5
 438 344 438 344 506 238 c 0,6,7
 577 128 577 128 711 125 c 0,8,9
 979 125 979 125 979 558 c 256,10,11
 979 990 979 990 711 990 c 0,0,1
438 979 m 1,12,13
 484 1061 484 1061 559 1103.5 c 128,-1,14
 634 1146 634 1146 738 1146 c 0,15,16
 941 1146 941 1146 1056 992 c 1,17,18
 1172 834 1172 834 1172 562 c 0,19,20
 1172 284 1172 284 1056 128 c 0,21,22
 942 -30 942 -30 736 -30 c 0,23,24
 635 -30 635 -30 560 14 c 0,25,26
 486 58 486 58 438 142 c 1,27,-1
 438 0 l 1,28,-1
 253 0 l 1,29,-1
 253 949 l 1,30,-1
 60 1176 l 1,31,-1
 438 1556 l 1,32,-1
 438 979 l 1,12,13
EndSplineSet
EndChar

StartChar: uni0186
Encoding: 390 390 356
Width: 1368
VWidth: 2274
Flags: W
LayerCount: 2
Fore
SplineSet
138 1438 m 1,0,1
 216 1480 216 1480 298 1500 c 0,2,3
 380 1520 380 1520 470 1521 c 0,4,5
 752 1521 752 1521 915 1314 c 0,6,7
 1074 1108 1074 1108 1074 746 c 0,8,9
 1074 376 1074 376 915 174 c 1,10,11
 757 -30 757 -30 470 -30 c 0,12,13
 380 -30 380 -30 299 -10 c 128,-1,14
 218 10 218 10 138 54 c 1,15,-1
 138 260 l 1,16,17
 212 199 212 199 296.5 167 c 128,-1,18
 381 135 381 135 470 135 c 0,19,20
 865 135 865 135 862 746 c 0,21,22
 862 1356 862 1356 470 1356 c 0,23,24
 382 1356 382 1356 298 1325 c 0,25,26
 214 1294 214 1294 138 1231 c 1,27,-1
 138 1438 l 1,0,1
EndSplineSet
EndChar

StartChar: uni0187
Encoding: 391 391 357
Width: 1368
VWidth: 2274
Flags: W
LayerCount: 2
Fore
SplineSet
994 54 m 1,0,1
 916 12 916 12 835 -9 c 128,-1,2
 754 -30 754 -30 664 -30 c 0,3,4
 378 -30 378 -30 218 174 c 0,5,6
 60 378 60 378 60 746 c 0,7,8
 60 1044 60 1044 218 1246 c 0,9,10
 377 1452 377 1452 664 1453 c 0,11,12
 710 1453 710 1453 752 1447.5 c 128,-1,13
 794 1442 794 1442 835 1432 c 1,14,15
 845 1458 845 1458 861 1483.5 c 128,-1,16
 877 1509 877 1509 899 1534 c 0,17,18
 989 1640 989 1640 1155 1638 c 2,19,-1
 1175 1638 l 1,20,-1
 1175 1483 l 1,21,22
 1091 1483 1091 1483 1039 1423 c 0,23,24
 995 1369 995 1369 994 1235 c 2,25,-1
 994 1163 l 1,26,27
 920 1224 920 1224 836.5 1256 c 128,-1,28
 753 1288 753 1288 664 1288 c 0,29,30
 465 1288 465 1288 370 1137 c 256,31,32
 272 985 272 985 270 746 c 0,33,34
 270 136 270 136 664 135 c 0,35,36
 752 135 752 135 837 167 c 128,-1,37
 922 199 922 199 994 260 c 1,38,-1
 994 54 l 1,0,1
EndSplineSet
EndChar

StartChar: uni0188
Encoding: 392 392 358
Width: 1368
VWidth: 2274
Flags: W
LayerCount: 2
Fore
SplineSet
963 57 m 1,0,1
 813 -29 813 -29 647 -30 c 0,2,3
 384 -30 384 -30 240 125 c 0,4,5
 94 280 94 280 94 558 c 256,6,7
 94 834 94 834 240.5 990 c 128,-1,8
 387 1146 387 1146 647 1146 c 0,9,10
 721 1146 721 1146 784 1130 c 1,11,12
 802 1244 802 1244 864 1317 c 1,13,14
 954 1423 954 1423 1118 1423 c 2,15,-1
 1138 1423 l 1,16,-1
 1138 1266 l 1,17,18
 1048 1266 1048 1266 1005 1205 c 0,19,20
 963 1144 963 1144 963 1016 c 2,21,-1
 963 869 l 1,22,23
 889 936 889 936 815 963 c 128,-1,24
 741 990 741 990 647 990 c 0,25,26
 473 990 473 990 380 881 c 0,27,28
 289 769 289 769 287 558 c 0,29,30
 287 348 287 348 380.5 236.5 c 128,-1,31
 474 125 474 125 647 125 c 0,32,33
 745 125 745 125 818 155 c 0,34,35
 894 185 894 185 963 248 c 1,36,-1
 963 57 l 1,0,1
EndSplineSet
EndChar

StartChar: uni018A
Encoding: 394 394 360
Width: 1368
VWidth: 2274
Flags: W
LayerCount: 2
Fore
SplineSet
558 1495 m 2,0,1
 728 1495 728 1495 855 1448.5 c 128,-1,2
 982 1402 982 1402 1064 1310.5 c 128,-1,3
 1146 1219 1146 1219 1186.5 1078.5 c 128,-1,4
 1227 938 1227 938 1227 746 c 0,5,6
 1227 365 1227 365 1062 182 c 256,7,8
 900 0 900 0 558 0 c 2,9,-1
 327 0 l 1,10,-1
 327 1326 l 1,11,12
 275 1326 275 1326 212 1280 c 1,13,14
 164 1242 164 1242 165 1129 c 2,15,-1
 165 1078 l 1,16,-1
 8 1078 l 1,17,-1
 8 1150 l 2,18,19
 8 1328 8 1328 105 1411 c 0,20,21
 200 1493 200 1493 327 1495 c 2,22,-1
 558 1495 l 2,0,1
554 166 m 2,23,24
 807 166 807 166 911 290 c 1,25,26
 1013 418 1013 418 1013 746 c 0,27,28
 1013 1077 1013 1077 911 1202 c 0,29,30
 809 1327 809 1327 554 1326 c 2,31,-1
 530 1326 l 1,32,-1
 530 166 l 1,33,-1
 554 166 l 2,23,24
EndSplineSet
EndChar

StartChar: uni018B
Encoding: 395 395 361
Width: 1368
VWidth: 2274
Flags: W
LayerCount: 2
Fore
SplineSet
899 715 m 1,0,-1
 660 715 l 2,1,2
 491 715 491 715 412.5 644.5 c 128,-1,3
 334 574 334 574 334 430 c 0,4,5
 334 288 334 288 410 226 c 1,6,7
 484 165 484 165 660 166 c 2,8,-1
 899 166 l 1,9,-1
 899 715 l 1,0,-1
200 1326 m 1,10,-1
 200 1495 l 1,11,-1
 1103 1495 l 1,12,-1
 1103 0 l 1,13,-1
 660 0 l 2,14,15
 130 0 130 0 131 410 c 0,16,17
 131 569 131 569 184 670 c 0,18,19
 234 765 234 765 354 821.5 c 128,-1,20
 474 878 474 878 664 878 c 2,21,-1
 899 878 l 1,22,-1
 899 1326 l 1,23,-1
 200 1326 l 1,10,-1
EndSplineSet
EndChar

StartChar: uni018C
Encoding: 396 396 362
Width: 1368
VWidth: 2274
Flags: W
LayerCount: 2
Fore
SplineSet
621 125 m 0,0,1
 757 125 757 125 824.5 234.5 c 128,-1,2
 892 344 892 344 892 558 c 256,3,4
 892 772 892 772 824 881 c 128,-1,5
 756 990 756 990 621 990 c 0,6,7
 351 990 351 990 350 558 c 256,8,9
 351 125 351 125 621 125 c 0,0,1
324 1372 m 1,10,-1
 324 1556 l 1,11,-1
 1077 1556 l 1,12,-1
 1077 0 l 1,13,-1
 892 0 l 1,14,-1
 892 142 l 1,15,16
 846 56 846 56 770 13 c 128,-1,17
 694 -30 694 -30 594 -30 c 0,18,19
 391 -30 391 -30 274 128 c 1,20,21
 158 286 158 286 158 562 c 0,22,23
 158 836 158 836 274 990 c 1,24,25
 388 1145 388 1145 591 1146 c 0,26,27
 693 1146 693 1146 770 1102 c 128,-1,28
 847 1058 847 1058 892 979 c 1,29,-1
 892 1372 l 1,30,-1
 324 1372 l 1,10,-1
EndSplineSet
EndChar

StartChar: uni018D
Encoding: 397 397 363
Width: 1368
VWidth: 2274
Flags: W
LayerCount: 2
Fore
SplineSet
617 125 m 0,0,1
 901 125 901 125 900 558 c 0,2,3
 900 772 900 772 829 881 c 128,-1,4
 758 990 758 990 617 990 c 0,5,6
 475 990 475 990 402 882 c 0,7,8
 330 772 330 772 331 558 c 0,9,10
 331 125 331 125 617 125 c 0,0,1
899 50 m 1,11,12
 919 40 919 40 958 3 c 0,13,14
 1019 -58 1019 -58 1018 -150 c 0,15,16
 1018 -286 1018 -286 903 -370 c 256,17,18
 785 -452 785 -452 587 -451 c 0,19,20
 485 -451 485 -451 434 -438 c 2,21,-1
 282 -402 l 1,22,-1
 282 -230 l 1,23,24
 350 -254 350 -254 418 -270 c 1,25,26
 492 -284 492 -284 566 -284 c 2,27,-1
 587 -284 l 1,28,-1
 618 -282 l 2,29,30
 692 -279 692 -279 750 -238 c 2,31,-1
 790 -210 l 1,32,33
 816 -186 816 -186 817 -140 c 0,34,35
 817 -106 817 -106 802 -88 c 0,36,37
 784 -66 784 -66 746 -42 c 0,38,39
 724 -28 724 -28 617 -30 c 0,40,41
 383 -27 383 -27 260 122 c 0,42,43
 136 272 136 272 136 558 c 0,44,45
 136 848 136 848 258.5 997 c 128,-1,46
 381 1146 381 1146 617 1146 c 0,47,48
 853 1146 853 1146 975 998 c 0,49,50
 1097 848 1097 848 1095 558 c 0,51,52
 1095 272 1095 272 972 122 c 0,53,54
 941 84 941 84 899 50 c 1,11,12
EndSplineSet
EndChar

StartChar: uni018E
Encoding: 398 398 364
Width: 1368
VWidth: 2274
Flags: W
LayerCount: 2
Fore
SplineSet
1103 1495 m 1,0,-1
 1103 0 l 1,1,-1
 199 0 l 1,2,-1
 199 170 l 1,3,-1
 900 170 l 1,4,-1
 900 711 l 1,5,-1
 246 711 l 1,6,-1
 246 882 l 1,7,-1
 900 882 l 1,8,-1
 900 1322 l 1,9,-1
 216 1322 l 1,10,-1
 216 1495 l 1,11,-1
 1103 1495 l 1,0,-1
EndSplineSet
EndChar

StartChar: uni018F
Encoding: 399 399 365
Width: 1368
VWidth: 2274
Flags: W
LayerCount: 2
Fore
SplineSet
118 828 m 1,0,-1
 904 828 l 1,1,-1
 904 836 l 2,2,3
 904 1076 904 1076 835 1219 c 256,4,5
 764 1359 764 1359 617 1356 c 0,6,7
 529 1356 529 1356 445.5 1324 c 128,-1,8
 362 1292 362 1292 286 1231 c 1,9,-1
 286 1438 l 1,10,11
 364 1480 364 1480 445.5 1500.5 c 128,-1,12
 527 1521 527 1521 617 1521 c 0,13,14
 870 1521 870 1521 993 1329 c 128,-1,15
 1116 1137 1116 1137 1116 746 c 0,16,17
 1116 355 1116 355 993 162.5 c 128,-1,18
 870 -30 870 -30 617 -30 c 256,19,20
 364 -30 364 -30 241 162 c 128,-1,21
 118 354 118 354 118 746 c 2,22,-1
 118 828 l 1,0,-1
332 644 m 1,23,24
 332 396 332 396 402 265.5 c 128,-1,25
 472 135 472 135 621 135 c 256,26,27
 769 135 769 135 830 263 c 0,28,29
 891 391 891 391 903 644 c 1,30,-1
 332 644 l 1,23,24
EndSplineSet
EndChar

StartChar: uni0190
Encoding: 400 400 366
Width: 1368
VWidth: 2274
Flags: W
LayerCount: 2
Fore
SplineSet
440 798 m 1,0,1
 305 832 305 832 238.5 913 c 128,-1,2
 172 994 172 994 172 1118 c 0,3,4
 172 1300 172 1300 302 1411 c 1,5,6
 433 1521 433 1521 651 1521 c 0,7,8
 797 1521 797 1521 1035 1457 c 1,9,-1
 1035 1270 l 1,10,11
 929 1311 929 1311 835 1330 c 0,12,13
 740 1350 740 1350 651 1351 c 0,14,15
 515 1351 515 1351 443.5 1289 c 128,-1,16
 372 1227 372 1227 372 1112 c 0,17,18
 372 1002 372 1002 450 942 c 128,-1,19
 528 882 528 882 666 882 c 2,20,-1
 822 882 l 1,21,-1
 822 715 l 1,22,-1
 666 715 l 2,23,24
 514 715 514 715 426 638 c 256,25,26
 338 560 338 560 338 432 c 0,27,28
 338 290 338 290 426.5 216 c 128,-1,29
 515 142 515 142 682 142 c 0,30,31
 783 142 783 142 879.5 168.5 c 128,-1,32
 976 195 976 195 1078 246 c 1,33,-1
 1078 46 l 1,34,35
 976 9 976 9 869 -10 c 0,36,37
 761 -30 761 -30 658 -30 c 0,38,39
 412 -30 412 -30 274 88 c 256,40,41
 136 206 136 206 138 412 c 0,42,43
 138 562 138 562 214 661 c 128,-1,44
 290 760 290 760 440 798 c 1,0,1
EndSplineSet
EndChar

StartChar: uni0191
Encoding: 401 401 367
Width: 1368
VWidth: 2274
Flags: W
LayerCount: 2
Fore
SplineSet
380 1495 m 1,0,-1
 1171 1495 l 1,1,-1
 1171 1322 l 1,2,-1
 583 1322 l 1,3,-1
 583 882 l 1,4,-1
 1107 882 l 1,5,-1
 1107 715 l 1,6,-1
 583 715 l 1,7,-1
 583 -20 l 2,8,9
 583 -215 583 -215 494 -317 c 1,10,11
 404 -423 404 -423 238 -426 c 2,12,-1
 61 -426 l 1,13,-1
 61 -270 l 1,14,-1
 203 -270 l 2,15,16
 293 -270 293 -270 336 -208 c 0,17,18
 380 -147 380 -147 380 -20 c 2,19,-1
 380 1495 l 1,0,-1
EndSplineSet
EndChar

StartChar: uni0193
Encoding: 403 403 368
Width: 1368
VWidth: 2274
Flags: W
LayerCount: 2
Fore
SplineSet
1054 122 m 1,0,1
 972 48 972 48 871.5 9 c 128,-1,2
 771 -30 771 -30 652 -30 c 0,3,4
 368 -30 368 -30 210 174 c 1,5,6
 52 380 52 380 52 746 c 0,7,8
 52 1114 52 1114 212 1314 c 1,9,10
 371 1520 371 1520 656 1521 c 0,11,12
 702 1521 702 1521 748 1515.5 c 128,-1,13
 794 1510 794 1510 836 1495 c 2,14,-1
 870 1483 l 1,15,16
 884 1509 884 1509 907 1534 c 0,17,18
 997 1640 997 1640 1163 1638 c 2,19,-1
 1182 1638 l 1,20,-1
 1182 1483 l 1,21,22
 1098 1483 1098 1483 1047 1423 c 0,23,24
 1025 1397 1025 1397 1014 1348 c 0,25,26
 1004 1302 1004 1302 1002 1235 c 2,27,-1
 1002 1206 l 1,28,29
 920 1284 920 1284 837 1320 c 128,-1,30
 754 1356 754 1356 656 1356 c 0,31,32
 261 1356 261 1356 263 746 c 0,33,34
 263 436 263 436 359 285.5 c 128,-1,35
 455 135 455 135 652 135 c 0,36,37
 719 135 719 135 770 150 c 0,38,39
 821 164 821 164 860 199 c 1,40,-1
 860 600 l 1,41,-1
 644 600 l 1,42,-1
 644 766 l 1,43,-1
 1054 766 l 1,44,-1
 1054 122 l 1,0,1
EndSplineSet
EndChar

StartChar: uni0194
Encoding: 404 404 369
Width: 1368
VWidth: 2274
Flags: W
LayerCount: 2
Fore
SplineSet
730 651 m 1,0,1
 1054 200 1054 200 1054 -195 c 0,2,3
 1054 -431 1054 -431 638 -430 c 0,4,5
 198 -430 198 -430 199 -195 c 0,6,7
 199 171 199 171 493 658 c 1,8,-1
 27 1355 l 1,9,-1
 244 1355 l 1,10,-1
 617 798 l 1,11,-1
 988 1355 l 1,12,-1
 1206 1355 l 1,13,-1
 730 651 l 1,0,1
600 494 m 1,14,15
 401 192 401 192 402 -131 c 0,16,17
 402 -269 402 -269 618 -268 c 0,18,19
 822 -268 822 -268 822 -131 c 0,20,21
 822 194 822 194 600 494 c 1,14,15
EndSplineSet
EndChar

StartChar: uni0195
Encoding: 405 405 370
Width: 1368
VWidth: 2274
Flags: W
LayerCount: 2
Fore
SplineSet
754 406 m 1,0,-1
 754 406 l 1,1,2
 754 252 754 252 788 204 c 0,3,4
 822 156 822 156 870 155 c 0,5,6
 877 155 877 155 882 155 c 0,7,8
 904 158 904 158 954 230 c 1,9,10
 1002 297 1002 297 1002 455 c 2,11,-1
 1002 864 l 1,12,-1
 1168 864 l 1,13,-1
 1168 455 l 2,14,15
 1168 225 1168 225 1093 112.5 c 128,-1,16
 1018 0 1018 0 862 0 c 0,17,18
 734 0 734 0 662 95 c 1,19,20
 588 189 588 189 588 406 c 2,21,-1
 588 694 l 2,22,23
 588 844 588 844 540 916 c 0,24,25
 494 987 494 987 426 986 c 0,26,27
 355 986 355 986 292.5 894 c 128,-1,28
 230 802 230 802 230 634 c 2,29,-1
 230 0 l 1,30,-1
 67 0 l 1,31,-1
 67 1556 l 1,32,-1
 230 1556 l 1,33,-1
 230 952 l 1,34,35
 306 1084 306 1084 327 1099 c 1,36,37
 365 1125 365 1125 402 1137 c 0,38,39
 443 1149 443 1149 486 1146 c 0,40,41
 604 1146 604 1146 678 1035 c 0,42,43
 754 923 754 923 754 694 c 2,44,-1
 754 406 l 1,0,-1
EndSplineSet
EndChar

StartChar: uni0196
Encoding: 406 406 371
Width: 1368
VWidth: 2274
Flags: W
LayerCount: 2
Fore
SplineSet
515 1322 m 1,0,-1
 203 1322 l 1,1,-1
 203 1495 l 1,2,-1
 1031 1495 l 1,3,-1
 1031 1322 l 1,4,-1
 719 1322 l 1,5,-1
 719 422 l 2,6,7
 719 297 719 297 762 234 c 0,8,9
 808 173 808 173 896 170 c 2,10,-1
 1082 170 l 1,11,-1
 1082 0 l 1,12,-1
 866 0 l 2,13,14
 696 0 696 0 602 106 c 0,15,16
 512 211 512 211 515 406 c 2,17,-1
 515 1322 l 1,0,-1
EndSplineSet
EndChar

StartChar: uni0197
Encoding: 407 407 372
Width: 1368
VWidth: 2274
Flags: W
LayerCount: 2
Fore
SplineSet
203 1495 m 1,0,-1
 1031 1495 l 1,1,-1
 1031 1322 l 1,2,-1
 719 1322 l 1,3,-1
 719 746 l 1,4,-1
 719 746 l 1,5,-1
 984 746 l 1,6,-1
 984 579 l 1,7,-1
 719 579 l 1,8,-1
 719 579 l 1,9,-1
 719 170 l 1,10,-1
 1031 170 l 1,11,-1
 1031 0 l 1,12,-1
 203 0 l 1,13,-1
 203 170 l 1,14,-1
 515 170 l 1,15,-1
 515 579 l 1,16,-1
 250 579 l 1,17,-1
 250 746 l 1,18,-1
 515 746 l 1,19,-1
 515 1322 l 1,20,-1
 203 1322 l 1,21,-1
 203 1495 l 1,0,-1
EndSplineSet
EndChar

StartChar: uni0198
Encoding: 408 408 373
Width: 1368
VWidth: 2274
Flags: W
LayerCount: 2
Fore
SplineSet
647 1180 m 2,0,1
 809 1350 809 1350 915 1363 c 0,2,3
 937 1367 937 1367 954 1367 c 0,4,5
 1079 1367 1079 1367 1172 1266 c 2,6,-1
 1219 1214 l 1,7,-1
 1114 1103 l 1,8,-1
 1080 1138 l 2,9,10
 1034 1190 1034 1190 975 1190 c 0,11,12
 953 1190 953 1190 938 1186 c 0,13,14
 871 1172 871 1172 764 1054 c 2,15,-1
 600 882 l 1,16,-1
 1198 0 l 1,17,-1
 954 0 l 1,18,-1
 466 749 l 1,19,-1
 314 584 l 1,20,-1
 314 0 l 1,21,-1
 110 0 l 1,22,-1
 110 1495 l 1,23,-1
 314 1495 l 1,24,-1
 314 830 l 1,25,-1
 647 1180 l 2,0,1
EndSplineSet
EndChar

StartChar: uni0199
Encoding: 409 409 374
Width: 1368
VWidth: 2274
Flags: W
LayerCount: 2
Fore
SplineSet
236 1002 m 1,0,-1
 236 1150 l 2,1,2
 236 1345 236 1345 327 1450 c 1,3,4
 417 1556 417 1556 580 1556 c 2,5,-1
 787 1556 l 1,6,-1
 787 1401 l 1,7,-1
 600 1401 l 2,8,9
 510 1401 510 1401 466 1338 c 0,10,11
 422 1277 422 1277 422 1150 c 1,12,-1
 426 1150 l 1,13,-1
 426 655 l 1,14,-1
 911 1120 l 1,15,-1
 1134 1120 l 1,16,-1
 692 698 l 1,17,-1
 1202 0 l 1,18,-1
 979 0 l 1,19,-1
 562 579 l 1,20,-1
 426 451 l 1,21,-1
 426 0 l 1,22,-1
 236 0 l 1,23,-1
 236 1002 l 1,0,-1
EndSplineSet
EndChar

StartChar: uni019A
Encoding: 410 410 375
Width: 1368
VWidth: 2274
Flags: W
LayerCount: 2
Fore
SplineSet
638 406 m 2,0,1
 638 156 638 156 818 155 c 2,2,-1
 1035 155 l 1,3,-1
 1035 0 l 1,4,-1
 802 0 l 2,5,6
 636 0 636 0 545.5 105 c 128,-1,7
 455 210 455 210 455 406 c 2,8,-1
 455 602 l 1,9,-1
 226 602 l 1,10,-1
 226 745 l 1,11,-1
 455 745 l 1,12,-1
 455 1423 l 1,13,-1
 159 1423 l 1,14,-1
 159 1566 l 1,15,-1
 638 1566 l 1,16,-1
 638 745 l 1,17,-1
 648 745 l 1,18,-1
 870 745 l 1,19,-1
 870 602 l 1,20,-1
 648 602 l 1,21,-1
 638 602 l 1,22,-1
 638 406 l 2,0,1
EndSplineSet
EndChar

StartChar: uni019B
Encoding: 411 411 376
Width: 1368
VWidth: 2274
Flags: W
LayerCount: 2
Fore
SplineSet
579 1214 m 1,0,-1
 926 1454 l 1,1,-1
 1006 1347 l 1,2,-1
 636 1086 l 1,3,-1
 1134 0 l 1,4,-1
 942 0 l 1,5,-1
 622 707 l 1,6,-1
 290 0 l 1,7,-1
 101 0 l 1,8,-1
 527 915 l 1,9,-1
 490 986 l 1,10,-1
 131 736 l 1,11,-1
 50 847 l 1,12,-1
 434 1114 l 1,13,-1
 260 1495 l 1,14,-1
 451 1495 l 1,15,-1
 579 1214 l 1,0,-1
EndSplineSet
EndChar

StartChar: uni019C
Encoding: 412 412 377
Width: 1368
VWidth: 2274
Flags: W
LayerCount: 2
Fore
SplineSet
568 114 m 1,0,1
 534 42 534 42 482 8 c 0,2,3
 430 -26 430 -26 354 -26 c 0,4,5
 219 -26 219 -26 165 78 c 0,6,7
 111 180 111 180 110 470 c 2,8,-1
 110 1495 l 1,9,-1
 278 1495 l 1,10,-1
 278 478 l 2,11,12
 278 240 278 240 303 182.5 c 128,-1,13
 328 125 328 125 400 125 c 0,14,15
 482 125 482 125 510 188 c 1,16,17
 540 249 540 249 538 478 c 2,18,-1
 538 1495 l 1,19,-1
 707 1495 l 1,20,-1
 707 478 l 2,21,22
 707 236 707 236 734 182 c 0,23,24
 764 126 764 126 839 125 c 0,25,26
 911 125 911 125 938 188 c 0,27,28
 968 249 968 249 968 478 c 2,29,-1
 968 1495 l 1,30,-1
 1134 1495 l 1,31,-1
 1134 0 l 1,32,-1
 968 0 l 1,33,-1
 968 95 l 1,34,35
 934 35 934 35 885 4.5 c 128,-1,36
 836 -26 836 -26 775 -26 c 0,37,38
 622 -26 622 -26 568 114 c 1,0,1
EndSplineSet
EndChar

StartChar: uni019D
Encoding: 413 413 378
Width: 1368
VWidth: 2274
Flags: W
LayerCount: 2
Fore
SplineSet
189 1495 m 1,0,-1
 421 1495 l 1,1,-1
 874 264 l 1,2,-1
 874 1495 l 1,3,-1
 1050 1495 l 1,4,-1
 1050 0 l 1,5,-1
 818 0 l 1,6,-1
 366 1231 l 1,7,-1
 366 -20 l 2,8,9
 366 -215 366 -215 286 -317 c 0,10,11
 204 -423 204 -423 56 -426 c 2,12,-1
 30 -426 l 1,13,-1
 30 -270 l 1,14,15
 110 -270 110 -270 150 -208 c 0,16,17
 191 -147 191 -147 189 -20 c 2,18,-1
 189 1495 l 1,0,-1
EndSplineSet
EndChar

StartChar: uni019E
Encoding: 414 414 379
Width: 1368
VWidth: 2274
Flags: W
LayerCount: 2
Fore
SplineSet
1050 -430 m 1,0,-1
 866 -430 l 1,1,-1
 866 694 l 2,2,3
 866 844 866 844 813 915 c 128,-1,4
 760 986 760 986 647 986 c 0,5,6
 516 986 516 986 448 896 c 0,7,8
 380 806 380 806 378 634 c 2,9,-1
 378 0 l 1,10,-1
 195 0 l 1,11,-1
 195 1120 l 1,12,-1
 378 1120 l 1,13,-1
 378 952 l 1,14,15
 428 1050 428 1050 512 1098 c 128,-1,16
 596 1146 596 1146 711 1146 c 0,17,18
 885 1146 885 1146 967.5 1035 c 128,-1,19
 1050 924 1050 924 1050 694 c 2,20,-1
 1050 -430 l 1,0,-1
EndSplineSet
EndChar

StartChar: uni019F
Encoding: 415 415 380
Width: 1368
VWidth: 2274
Flags: W
LayerCount: 2
Fore
SplineSet
1116 746 m 0,0,1
 1116 355 1116 355 993 162.5 c 128,-1,2
 870 -30 870 -30 617 -30 c 256,3,4
 364 -30 364 -30 241 162 c 128,-1,5
 118 354 118 354 118 746 c 0,6,7
 118 1137 118 1137 241.5 1329 c 128,-1,8
 365 1521 365 1521 617 1521 c 0,9,10
 870 1521 870 1521 993 1329 c 128,-1,11
 1116 1137 1116 1137 1116 746 c 0,0,1
904 828 m 1,12,13
 896 1092 896 1092 839 1214 c 1,14,15
 771 1356 771 1356 617 1356 c 0,16,17
 463 1356 463 1356 396 1214 c 0,18,19
 339 1092 339 1092 331 828 c 1,20,-1
 904 828 l 1,12,13
331 644 m 1,21,22
 341 394 341 394 396 276 c 0,23,24
 463 134 463 134 617 135 c 0,25,26
 771 135 771 135 839 276 c 1,27,28
 895 396 895 396 903 644 c 1,29,-1
 331 644 l 1,21,22
EndSplineSet
EndChar

StartChar: uni01A2
Encoding: 418 418 383
Width: 1368
VWidth: 2274
Flags: W
LayerCount: 2
Fore
SplineSet
46 746 m 0,0,1
 46 1420 46 1420 378 1506 c 0,2,3
 434 1520 434 1520 494 1521 c 0,4,5
 700 1521 700 1521 810 1363 c 1,6,-1
 958 1495 l 1,7,-1
 1189 1495 l 1,8,-1
 1189 0 l 1,9,-1
 1014 0 l 1,10,-1
 1014 1231 l 1,11,-1
 835 1070 l 1,12,-1
 835 162 l 1,13,14
 725 -33 725 -33 494 -30 c 256,15,16
 265 -30 265 -30 155.5 162 c 128,-1,17
 46 354 46 354 46 746 c 0,0,1
694 1214 m 1,18,19
 633 1356 633 1356 494 1356 c 0,20,21
 356 1356 356 1356 294 1214 c 0,22,23
 234 1072 234 1072 234 746 c 0,24,25
 234 418 234 418 294 276 c 0,26,27
 355 134 355 134 494 135 c 0,28,29
 632 135 632 135 694 276 c 1,30,-1
 694 1214 l 1,18,19
EndSplineSet
EndChar

StartChar: uni01A3
Encoding: 419 419 384
Width: 1368
VWidth: 2274
Flags: W
LayerCount: 2
Fore
SplineSet
86 558 m 0,0,1
 86 992 86 992 336 1111 c 0,2,3
 416 1148 416 1148 519 1146 c 0,4,5
 729 1146 729 1146 839 997 c 1,6,-1
 839 954 l 1,7,-1
 964 1062 l 1,8,-1
 1194 1062 l 1,9,-1
 1194 -430 l 1,10,-1
 1018 -430 l 1,11,-1
 1018 798 l 1,12,-1
 839 643 l 1,13,-1
 839 122 l 1,14,15
 731 -30 731 -30 519 -30 c 0,16,17
 285 -30 285 -30 172 158 c 0,18,19
 86 305 86 305 86 558 c 0,0,1
263 558 m 0,20,21
 263 163 263 163 478 131 c 0,22,23
 496 127 496 127 519 125 c 0,24,25
 647 125 647 125 711 236 c 1,26,-1
 711 882 l 1,27,28
 650 990 650 990 519 990 c 0,29,30
 313 990 313 990 270 707 c 0,31,32
 263 638 263 638 263 558 c 0,20,21
EndSplineSet
EndChar

StartChar: uni01A4
Encoding: 420 420 385
Width: 1368
VWidth: 2274
Flags: W
LayerCount: 2
Fore
SplineSet
1178 1047 m 0,0,1
 1178 701 1178 701 866 622 c 0,2,3
 824 612 824 612 775 606 c 0,4,5
 727 599 727 599 670 600 c 2,6,-1
 574 600 l 1,7,-1
 574 0 l 1,8,-1
 374 0 l 1,9,-1
 374 1326 l 1,10,11
 322 1326 322 1326 260 1280 c 1,12,13
 212 1242 212 1242 212 1129 c 2,14,-1
 212 1078 l 1,15,-1
 56 1078 l 1,16,-1
 56 1150 l 2,17,18
 56 1330 56 1330 152 1412 c 1,19,20
 247 1494 247 1494 374 1495 c 2,21,-1
 670 1495 l 2,22,23
 1076 1495 1076 1495 1159 1202 c 0,24,25
 1178 1135 1178 1135 1178 1047 c 0,0,1
670 766 m 2,26,27
 880 766 880 766 945 922 c 0,28,29
 967 976 967 976 967 1047 c 0,30,31
 967 1182 967 1182 890 1254 c 128,-1,32
 813 1326 813 1326 670 1326 c 2,33,-1
 574 1326 l 1,34,-1
 574 766 l 1,35,-1
 670 766 l 2,26,27
EndSplineSet
EndChar

StartChar: uni01A5
Encoding: 421 421 386
Width: 1368
VWidth: 2274
Flags: W
LayerCount: 2
Fore
SplineSet
374 558 m 0,0,1
 374 184 374 184 584 135 c 0,2,3
 598 132 598 132 614 128.5 c 128,-1,4
 630 125 630 125 647 125 c 0,5,6
 915 125 915 125 915 558 c 0,7,8
 915 768 915 768 852.5 879 c 128,-1,9
 790 990 790 990 664 990 c 2,10,-1
 647 990 l 2,11,12
 433 990 433 990 387 719 c 0,13,14
 374 646 374 646 374 558 c 0,0,1
374 979 m 1,15,16
 420 1061 420 1061 491 1103.5 c 128,-1,17
 562 1146 562 1146 660 1146 c 2,18,-1
 674 1146 l 2,19,20
 877 1146 877 1146 992 990 c 0,21,22
 1108 832 1108 832 1108 554 c 0,23,24
 1108 284 1108 284 992 125 c 1,25,26
 876 -30 876 -30 674 -30 c 0,27,28
 466 -30 466 -30 374 142 c 1,29,-1
 374 -426 l 1,30,-1
 189 -426 l 1,31,-1
 189 1027 l 2,32,33
 189 1327 189 1327 395 1406 c 0,34,35
 456 1432 456 1432 534 1432 c 2,36,-1
 738 1432 l 1,37,-1
 738 1276 l 1,38,-1
 554 1276 l 2,39,40
 388 1276 388 1276 376 1054 c 0,41,42
 376 1047 376 1047 375 1041 c 128,-1,43
 374 1035 374 1035 374 1027 c 2,44,-1
 374 979 l 1,15,16
EndSplineSet
EndChar

StartChar: uni01A6
Encoding: 422 422 387
Width: 1368
VWidth: 2274
Flags: W
LayerCount: 2
Fore
SplineSet
760 442 m 1,0,1
 838 422 838 422 894 366 c 0,2,3
 921 336 921 336 954.5 281 c 128,-1,4
 988 226 988 226 1031 144 c 2,5,-1
 1235 -264 l 1,6,-1
 1016 -264 l 1,7,-1
 839 114 l 2,8,9
 765 272 765 272 698 317 c 0,10,11
 637 363 637 363 538 366 c 2,12,-1
 346 366 l 1,13,-1
 346 0 l 1,14,-1
 142 0 l 1,15,-1
 142 1495 l 1,16,-1
 346 1495 l 1,17,-1
 346 1231 l 1,18,-1
 558 1231 l 2,19,20
 804 1231 804 1231 935 1118.5 c 128,-1,21
 1066 1006 1066 1006 1066 798 c 0,22,23
 1066 724 1066 724 1046.5 663 c 128,-1,24
 1027 602 1027 602 986.5 556 c 128,-1,25
 946 510 946 510 890 481 c 128,-1,26
 834 452 834 452 760 442 c 1,0,1
346 1062 m 1,27,-1
 346 534 l 1,28,-1
 566 534 l 2,29,30
 712 534 712 534 784 598 c 0,31,32
 855 662 855 662 854 798 c 0,33,34
 854 929 854 929 780.5 995.5 c 128,-1,35
 707 1062 707 1062 558 1062 c 2,36,-1
 346 1062 l 1,27,-1
EndSplineSet
EndChar

StartChar: uni01A7
Encoding: 423 423 388
Width: 1368
VWidth: 2274
Flags: W
LayerCount: 2
Fore
SplineSet
226 1442 m 1,0,1
 436 1520 436 1520 606 1521 c 0,2,3
 828 1521 828 1521 963 1398 c 0,4,5
 1098 1276 1098 1276 1099 1078 c 0,6,7
 1099 916 1099 916 1005 824 c 0,8,9
 957 776 957 776 881.5 741.5 c 128,-1,10
 806 707 806 707 702 682 c 2,11,-1
 594 658 l 2,12,13
 522 640 522 640 471.5 618 c 128,-1,14
 421 596 421 596 391 566 c 0,15,16
 334 509 334 509 332 395 c 0,17,18
 332 270 332 270 416 202.5 c 128,-1,19
 500 135 500 135 655 135 c 0,20,21
 761 135 761 135 862.5 169 c 128,-1,22
 964 203 964 203 1078 276 c 1,23,-1
 1078 61 l 1,24,25
 864 -29 864 -29 655 -30 c 0,26,27
 399 -30 399 -30 268.5 82.5 c 128,-1,28
 138 195 138 195 138 408 c 0,29,30
 138 498 138 498 162 569 c 128,-1,31
 186 640 186 640 235 694.5 c 128,-1,32
 284 749 284 749 360 786.5 c 128,-1,33
 436 824 436 824 542 848 c 2,34,-1
 647 873 l 2,35,36
 793 907 793 907 851 958 c 0,37,38
 907 1010 907 1010 907 1111 c 0,39,40
 907 1225 907 1225 822 1291 c 1,41,42
 740 1358 740 1358 596 1356 c 0,43,44
 410 1356 410 1356 226 1239 c 1,45,-1
 226 1442 l 1,0,1
EndSplineSet
EndChar

StartChar: uni01A8
Encoding: 424 424 389
Width: 1368
VWidth: 2274
Flags: W
LayerCount: 2
Fore
SplineSet
270 1082 m 1,0,1
 352 1116 352 1116 433.5 1131 c 128,-1,2
 515 1146 515 1146 606 1146 c 0,3,4
 810 1146 810 1146 918 1061 c 0,5,6
 1026 973 1026 973 1027 810 c 0,7,8
 1027 685 1027 685 954 611.5 c 128,-1,9
 881 538 881 538 722 506 c 2,10,-1
 652 493 l 1,11,-1
 644 490 l 2,12,13
 522 460 522 460 460 419 c 128,-1,14
 398 378 398 378 398 314 c 0,15,16
 398 224 398 224 464 174.5 c 128,-1,17
 530 125 530 125 655 125 c 0,18,19
 825 125 825 125 1031 230 c 1,20,-1
 1031 42 l 1,21,22
 925 8 925 8 835 -11 c 128,-1,23
 745 -30 745 -30 658 -30 c 0,24,25
 448 -30 448 -30 331 61 c 0,26,27
 213 155 213 155 214 324 c 0,28,29
 214 577 214 577 490 630 c 2,30,-1
 566 647 l 2,31,32
 748 681 748 681 794 719 c 256,33,34
 840 757 840 757 840 830 c 0,35,36
 840 995 840 995 592 994 c 0,37,38
 427 994 427 994 270 903 c 1,39,-1
 270 1082 l 1,0,1
EndSplineSet
EndChar

StartChar: uni01AA
Encoding: 426 426 391
Width: 1368
VWidth: 2274
Flags: W
LayerCount: 2
Fore
SplineSet
568 1284 m 1,0,1
 564 1306 564 1306 557 1324 c 128,-1,2
 550 1342 550 1342 542 1352 c 0,3,4
 508 1400 508 1400 400 1401 c 0,5,6
 275 1401 275 1401 274 1333 c 0,7,8
 274 1285 274 1285 391 1284 c 2,9,-1
 568 1284 l 1,0,1
766 1130 m 1,10,-1
 762 -90 l 2,11,12
 762 -195 762 -195 802 -234 c 1,13,14
 839 -275 839 -275 938 -274 c 2,15,-1
 1114 -274 l 1,16,-1
 1114 -426 l 1,17,-1
 942 -426 l 2,18,19
 747 -426 747 -426 666 -340 c 0,20,21
 580 -250 580 -250 579 -68 c 2,22,-1
 579 1130 l 1,23,-1
 388 1130 l 2,24,25
 118 1130 118 1130 118 1340 c 0,26,27
 118 1556 118 1556 422 1556 c 0,28,29
 512 1556 512 1556 577.5 1533 c 128,-1,30
 643 1510 643 1510 685 1461 c 0,31,32
 711 1430 711 1430 728 1385 c 0,33,34
 744 1341 744 1341 754 1287 c 1,35,-1
 946 1287 l 1,36,-1
 946 1130 l 1,37,-1
 766 1130 l 1,10,-1
EndSplineSet
EndChar

StartChar: uni01AB
Encoding: 427 427 392
Width: 1368
VWidth: 2274
Flags: W
LayerCount: 2
Fore
SplineSet
614 1438 m 1,0,-1
 614 1120 l 1,1,-1
 1032 1120 l 1,2,-1
 1032 979 l 1,3,-1
 614 979 l 1,4,-1
 614 370 l 2,5,6
 614 248 614 248 662 196 c 0,7,8
 708 146 708 146 826 146 c 2,9,-1
 1032 146 l 1,10,-1
 1032 0 l 1,11,-1
 1032 -20 l 2,12,13
 1032 -215 1032 -215 942 -317 c 1,14,15
 852 -423 852 -423 689 -426 c 2,16,-1
 482 -426 l 1,17,-1
 482 -270 l 1,18,-1
 668 -270 l 2,19,20
 758 -270 758 -270 802 -208 c 0,21,22
 846 -147 846 -147 847 -20 c 2,23,-1
 847 0 l 1,24,-1
 806 0 l 2,25,26
 600 0 600 0 515 82 c 0,27,28
 429 164 429 164 430 370 c 2,29,-1
 430 979 l 1,30,-1
 131 979 l 1,31,-1
 131 1120 l 1,32,-1
 430 1120 l 1,33,-1
 430 1438 l 1,34,-1
 614 1438 l 1,0,-1
EndSplineSet
EndChar

StartChar: uni01AC
Encoding: 428 428 393
Width: 1368
VWidth: 2274
Flags: W
LayerCount: 2
Fore
SplineSet
455 1326 m 2,0,1
 437 1329 437 1329 418 1329 c 0,2,3
 312 1329 312 1329 252 1280 c 0,4,5
 202 1242 202 1242 203 1129 c 2,6,-1
 203 1078 l 1,7,-1
 46 1078 l 1,8,-1
 46 1150 l 2,9,10
 46 1328 46 1328 142 1411 c 0,11,12
 237 1493 237 1493 455 1495 c 2,13,-1
 1186 1495 l 1,14,-1
 1186 1322 l 1,15,-1
 719 1322 l 1,16,-1
 719 0 l 1,17,-1
 516 0 l 1,18,-1
 516 1322 l 1,19,-1
 455 1326 l 2,0,1
EndSplineSet
EndChar

StartChar: uni01AD
Encoding: 429 429 394
Width: 1368
VWidth: 2274
Flags: W
LayerCount: 2
Fore
SplineSet
614 1120 m 1,0,-1
 1032 1120 l 1,1,-1
 1032 979 l 1,2,-1
 614 979 l 1,3,-1
 614 370 l 2,4,5
 614 248 614 248 662 196 c 0,6,7
 708 146 708 146 826 146 c 2,8,-1
 1032 146 l 1,9,-1
 1032 0 l 1,10,-1
 806 0 l 2,11,12
 600 0 600 0 515 82 c 0,13,14
 429 164 429 164 430 370 c 2,15,-1
 430 979 l 1,16,-1
 131 979 l 1,17,-1
 131 1120 l 1,18,-1
 430 1120 l 1,19,-1
 430 1150 l 2,20,21
 430 1345 430 1345 519 1450 c 1,22,23
 609 1556 609 1556 775 1556 c 2,24,-1
 979 1556 l 1,25,-1
 979 1401 l 1,26,-1
 794 1401 l 2,27,28
 704 1401 704 1401 658 1338 c 0,29,30
 614 1277 614 1277 614 1150 c 2,31,-1
 614 1120 l 1,0,-1
EndSplineSet
EndChar

StartChar: uni01AE
Encoding: 430 430 395
Width: 1368
VWidth: 2274
Flags: W
LayerCount: 2
Fore
SplineSet
46 1495 m 1,0,-1
 1186 1495 l 1,1,-1
 1186 1322 l 1,2,-1
 719 1322 l 1,3,-1
 719 -20 l 2,4,5
 719 -145 719 -145 762 -208 c 0,6,7
 808 -269 808 -269 899 -270 c 2,8,-1
 1082 -270 l 1,9,-1
 1082 -426 l 1,10,-1
 860 -426 l 2,11,12
 694 -426 694 -426 606 -317 c 1,13,14
 516 -211 516 -211 516 -20 c 2,15,-1
 516 1322 l 1,16,-1
 46 1322 l 1,17,-1
 46 1495 l 1,0,-1
EndSplineSet
EndChar

StartChar: uni01B1
Encoding: 433 433 398
Width: 1368
VWidth: 2274
Flags: W
LayerCount: 2
Fore
SplineSet
1159 1461 m 1,0,-1
 1159 1288 l 1,1,-1
 915 1288 l 1,2,3
 1037 1153 1037 1153 1092 1010 c 1,4,5
 1146 868 1146 868 1146 678 c 0,6,7
 1146 366 1146 366 1002 182 c 0,8,9
 858 0 858 0 618 0 c 0,10,11
 376 0 376 0 233 182 c 0,12,13
 89 364 89 364 88 678 c 0,14,15
 88 867 88 867 142 1010 c 0,16,17
 198 1156 198 1156 323 1288 c 1,18,-1
 74 1288 l 1,19,-1
 74 1461 l 1,20,-1
 538 1461 l 1,21,-1
 538 1288 l 1,22,23
 418 1212 418 1212 350 1047 c 1,24,25
 282 885 282 885 282 662 c 0,26,27
 282 432 282 432 374 298 c 0,28,29
 464 166 464 166 618 166 c 256,30,31
 772 166 772 166 860 298 c 0,32,33
 950 433 950 433 950 662 c 0,34,35
 950 885 950 885 882 1047 c 1,36,37
 815 1213 815 1213 696 1288 c 1,38,-1
 696 1461 l 1,39,-1
 1159 1461 l 1,0,-1
EndSplineSet
EndChar

StartChar: uni01B2
Encoding: 434 434 399
Width: 1368
VWidth: 2274
Flags: W
LayerCount: 2
Fore
SplineSet
506 0 m 0,0,1
 336 0 336 0 244 106 c 1,2,3
 154 208 154 208 154 406 c 2,4,-1
 154 1495 l 1,5,-1
 358 1495 l 1,6,-1
 358 422 l 2,7,8
 358 297 358 297 402 234 c 256,9,10
 446 173 446 173 536 170 c 0,11,12
 690 170 690 170 780 302 c 0,13,14
 870 437 870 437 870 666 c 0,15,16
 870 892 870 892 802 1052 c 1,17,18
 735 1218 735 1218 617 1295 c 1,19,-1
 835 1295 l 1,20,21
 957 1160 957 1160 1010 1014 c 1,22,23
 1064 872 1064 872 1066 682 c 0,24,25
 1066 372 1066 372 922 188 c 0,26,27
 776 0 776 0 506 0 c 0,0,1
EndSplineSet
EndChar

StartChar: uni01B3
Encoding: 435 435 400
Width: 1368
VWidth: 2274
Flags: W
LayerCount: 2
Fore
SplineSet
630 670 m 1,0,-1
 630 0 l 1,1,-1
 446 0 l 1,2,-1
 446 670 l 1,3,-1
 18 1495 l 1,4,-1
 210 1495 l 1,5,-1
 538 835 l 1,6,-1
 738 1235 l 2,7,8
 836 1435 836 1435 946 1479 c 0,9,10
 992 1497 992 1497 1036 1495 c 0,11,12
 1116 1495 1116 1495 1190 1438 c 2,13,-1
 1219 1419 l 1,14,-1
 1146 1287 l 1,15,-1
 1134 1295 l 2,16,17
 1100 1326 1100 1326 1062 1326 c 0,18,19
 1048 1326 1048 1326 1033 1322 c 128,-1,20
 1018 1318 1018 1318 1002 1310 c 0,21,22
 976 1296 976 1296 945.5 1255 c 128,-1,23
 915 1214 915 1214 874 1141 c 2,24,-1
 630 670 l 1,0,-1
EndSplineSet
EndChar

StartChar: uni01B4
Encoding: 436 436 401
Width: 1368
VWidth: 2274
Flags: W
LayerCount: 2
Fore
SplineSet
622 -105 m 2,0,1
 540 -308 540 -308 470 -366 c 0,2,3
 396 -427 396 -427 272 -426 c 2,4,-1
 125 -426 l 1,5,-1
 125 -272 l 1,6,-1
 234 -272 l 2,7,8
 310 -272 310 -272 350 -236 c 0,9,10
 372 -218 372 -218 395 -176.5 c 128,-1,11
 418 -135 418 -135 444 -67 c 2,12,-1
 478 18 l 1,13,-1
 24 1120 l 1,14,-1
 218 1120 l 1,15,-1
 570 244 l 1,16,-1
 848 942 l 2,17,18
 898 1067 898 1067 979 1111 c 0,19,20
 1021 1133 1021 1133 1074 1133 c 0,21,22
 1120 1133 1120 1133 1178 1112 c 2,23,-1
 1227 1095 l 1,24,-1
 1172 949 l 1,25,-1
 1144 958 l 2,26,27
 1114 970 1114 970 1095 971 c 0,28,29
 1053 971 1053 971 1035 928 c 2,30,-1
 622 -105 l 2,0,1
EndSplineSet
EndChar

StartChar: uni01B5
Encoding: 437 437 402
Width: 1368
VWidth: 2274
Flags: W
LayerCount: 2
Fore
SplineSet
178 1495 m 1,0,-1
 1146 1495 l 1,1,-1
 1146 1338 l 1,2,-1
 753 746 l 1,3,-1
 984 746 l 1,4,-1
 984 579 l 1,5,-1
 719 579 l 1,6,-1
 638 579 l 1,7,-1
 366 170 l 1,8,-1
 1171 170 l 1,9,-1
 1171 0 l 1,10,-1
 155 0 l 1,11,-1
 155 154 l 1,12,-1
 430 579 l 1,13,-1
 250 579 l 1,14,-1
 250 746 l 1,15,-1
 542 746 l 1,16,-1
 915 1322 l 1,17,-1
 178 1322 l 1,18,-1
 178 1495 l 1,0,-1
EndSplineSet
EndChar

StartChar: uni01B6
Encoding: 438 438 403
Width: 1368
VWidth: 2274
Flags: W
LayerCount: 2
Fore
SplineSet
222 1122 m 1,0,-1
 1035 1122 l 1,1,-1
 1035 954 l 1,2,-1
 766 617 l 1,3,-1
 1078 617 l 1,4,-1
 1078 452 l 1,5,-1
 722 452 l 1,6,-1
 634 452 l 1,7,-1
 392 150 l 1,8,-1
 1035 150 l 1,9,-1
 1035 0 l 1,10,-1
 199 0 l 1,11,-1
 199 170 l 1,12,-1
 422 452 l 1,13,-1
 155 452 l 1,14,-1
 155 617 l 1,15,-1
 554 617 l 1,16,-1
 843 975 l 1,17,-1
 222 975 l 1,18,-1
 222 1122 l 1,0,-1
EndSplineSet
EndChar

StartChar: uni01B7
Encoding: 439 439 404
Width: 1368
VWidth: 2274
Flags: W
LayerCount: 2
Fore
SplineSet
229 434 m 1,0,1
 229 292 229 292 328 218 c 0,2,3
 426 144 426 144 617 142 c 256,4,5
 806 142 806 142 907 218 c 0,6,7
 1008 292 1008 292 1006 434 c 0,8,9
 1006 569 1006 569 915 643 c 1,10,11
 821 717 821 717 656 716 c 2,12,-1
 482 716 l 1,13,-1
 482 882 l 1,14,-1
 852 1322 l 1,15,-1
 114 1322 l 1,16,-1
 114 1495 l 1,17,-1
 1084 1495 l 1,18,-1
 1084 1326 l 1,19,-1
 708 884 l 1,20,21
 810 884 810 884 942 828 c 1,22,23
 1040 786 1040 786 1126 678 c 1,24,25
 1206 573 1206 573 1206 434 c 0,26,27
 1206 215 1206 215 1054 94 c 0,28,29
 904 -28 904 -28 622 -27 c 0,30,31
 476 -27 476 -27 364.5 3.5 c 128,-1,32
 253 34 253 34 177.5 93 c 128,-1,33
 102 152 102 152 64 238 c 128,-1,34
 26 324 26 324 26 434 c 1,35,-1
 229 434 l 1,0,1
EndSplineSet
EndChar

StartChar: uni01B8
Encoding: 440 440 405
Width: 1368
VWidth: 2274
Flags: W
LayerCount: 2
Fore
SplineSet
1206 434 m 1,0,1
 1206 324 1206 324 1168 238 c 128,-1,2
 1130 152 1130 152 1054.5 93 c 128,-1,3
 979 34 979 34 867.5 3.5 c 128,-1,4
 756 -27 756 -27 610 -27 c 0,5,6
 328 -27 328 -27 178 94 c 0,7,8
 26 216 26 216 26 434 c 0,9,10
 26 572 26 572 108 678 c 0,11,12
 194 786 194 786 293 828 c 0,13,14
 425 884 425 884 527 884 c 1,15,-1
 150 1326 l 1,16,-1
 150 1495 l 1,17,-1
 1118 1495 l 1,18,-1
 1118 1322 l 1,19,-1
 381 1322 l 1,20,-1
 753 882 l 1,21,-1
 753 716 l 1,22,-1
 579 716 l 2,23,24
 413 716 413 716 317 643 c 256,25,26
 226 569 226 569 229 434 c 0,27,28
 229 292 229 292 328 218 c 0,29,30
 426 144 426 144 617 142 c 256,31,32
 806 142 806 142 907 218 c 0,33,34
 1008 292 1008 292 1006 434 c 1,35,-1
 1206 434 l 1,0,1
EndSplineSet
EndChar

StartChar: uni01B9
Encoding: 441 441 406
Width: 1368
VWidth: 2274
Flags: W
LayerCount: 2
Fore
SplineSet
214 952 m 1,0,-1
 214 1120 l 1,1,-1
 1086 1120 l 1,2,-1
 1086 975 l 1,3,-1
 421 975 l 1,4,-1
 851 474 l 1,5,-1
 851 308 l 1,6,-1
 677 308 l 2,7,8
 511 308 511 308 418 234 c 0,9,10
 327 160 327 160 327 26 c 0,11,12
 327 -116 327 -116 426 -189 c 0,13,14
 524 -263 524 -263 715 -267 c 0,15,16
 825 -267 825 -267 923.5 -241.5 c 128,-1,17
 1022 -216 1022 -216 1108 -166 c 1,18,-1
 1108 -362 l 1,19,20
 1002 -400 1002 -400 903 -418 c 0,21,22
 805 -436 805 -436 711 -436 c 0,23,24
 429 -436 429 -436 278 -314 c 0,25,26
 126 -192 126 -192 125 26 c 0,27,28
 125 164 125 164 206 270 c 0,29,30
 290 378 290 378 391 421 c 0,31,32
 522 477 522 477 625 476 c 1,33,-1
 214 952 l 1,0,-1
EndSplineSet
EndChar

StartChar: uni01BA
Encoding: 442 442 407
Width: 1368
VWidth: 2274
Flags: W
LayerCount: 2
Fore
SplineSet
698 -274 m 0,0,1
 782 -274 782 -274 860 -253 c 0,2,3
 938 -233 938 -233 1020 -188 c 1,4,-1
 1020 -366 l 1,5,6
 934 -396 934 -396 854 -412 c 0,7,8
 812 -419 812 -419 765.5 -422.5 c 128,-1,9
 719 -426 719 -426 670 -426 c 0,10,11
 191 -426 191 -426 189 -146 c 0,12,13
 189 92 189 92 596 146 c 1,14,15
 880 184 880 184 881 282 c 0,16,17
 881 406 881 406 647 406 c 2,18,-1
 354 406 l 1,19,-1
 840 975 l 1,20,-1
 174 975 l 1,21,-1
 174 1120 l 1,22,-1
 1047 1120 l 1,23,-1
 1047 952 l 1,24,-1
 694 540 l 1,25,26
 1060 540 1060 540 1061 310 c 0,27,28
 1061 36 1061 36 596 -14 c 0,29,30
 370 -38 370 -38 370 -135 c 0,31,32
 367 -274 367 -274 698 -274 c 0,0,1
EndSplineSet
EndChar

StartChar: uni01BB
Encoding: 443 443 408
Width: 1368
VWidth: 2274
Flags: W
LayerCount: 2
Fore
SplineSet
165 1423 m 1,0,1
 373 1521 373 1521 562 1521 c 0,2,3
 780 1521 780 1521 915 1402 c 0,4,5
 1050 1286 1050 1286 1050 1099 c 0,6,7
 1050 1004 1050 1004 1005 907 c 0,8,9
 987 869 987 869 962 829.5 c 128,-1,10
 937 790 937 790 904 746 c 1,11,-1
 984 746 l 1,12,-1
 984 579 l 1,13,-1
 754 579 l 1,14,-1
 698 515 l 1,15,-1
 374 170 l 1,16,-1
 1058 170 l 1,17,-1
 1058 0 l 1,18,-1
 152 0 l 1,19,-1
 152 170 l 1,20,-1
 534 579 l 1,21,-1
 250 579 l 1,22,-1
 250 746 l 1,23,-1
 686 746 l 1,24,25
 791 877 791 877 820 963 c 0,26,27
 842 1020 842 1020 843 1082 c 0,28,29
 843 1268 843 1268 692 1329 c 0,30,31
 638 1351 638 1351 566 1351 c 0,32,33
 384 1351 384 1351 165 1219 c 1,34,-1
 165 1423 l 1,0,1
EndSplineSet
EndChar

StartChar: uni01BC
Encoding: 444 444 409
Width: 1368
VWidth: 2274
Flags: W
LayerCount: 2
Fore
SplineSet
617 142 m 0,0,1
 933 142 933 142 994 342 c 0,2,3
 1008 383 1008 383 1006 434 c 0,4,5
 1006 569 1006 569 915 643 c 1,6,7
 821 717 821 717 656 716 c 2,8,-1
 214 716 l 1,9,-1
 214 1495 l 1,10,-1
 1138 1495 l 1,11,-1
 1138 1322 l 1,12,-1
 418 1322 l 1,13,-1
 418 884 l 1,14,-1
 708 884 l 2,15,16
 810 884 810 884 942 828 c 0,17,18
 1040 786 1040 786 1126 678 c 0,19,20
 1206 576 1206 576 1206 434 c 0,21,22
 1206 215 1206 215 1054 94 c 0,23,24
 904 -28 904 -28 622 -27 c 0,25,26
 192 -27 192 -27 71 229 c 0,27,28
 27 323 27 323 26 434 c 1,29,-1
 229 434 l 1,30,31
 229 252 229 252 387 182 c 1,32,33
 481 142 481 142 617 142 c 0,0,1
EndSplineSet
EndChar

StartChar: uni01BD
Encoding: 445 445 410
Width: 1368
VWidth: 2274
Flags: W
LayerCount: 2
Fore
SplineSet
519 -267 m 0,0,1
 829 -267 829 -267 892 -71 c 0,2,3
 906 -25 906 -25 907 26 c 0,4,5
 907 161 907 161 814 234 c 1,6,7
 720 308 720 308 558 308 c 2,8,-1
 259 308 l 1,9,-1
 259 1120 l 1,10,-1
 1010 1120 l 1,11,-1
 1010 937 l 1,12,-1
 442 937 l 1,13,-1
 442 474 l 1,14,-1
 610 476 l 2,15,16
 715 476 715 476 843 421 c 0,17,18
 941 379 941 379 1027 270 c 0,19,20
 1109 165 1109 165 1108 26 c 0,21,22
 1108 -193 1108 -193 956 -314 c 0,23,24
 806 -436 806 -436 524 -436 c 0,25,26
 338 -436 338 -436 125 -362 c 1,27,-1
 125 -166 l 1,28,29
 296 -267 296 -267 519 -267 c 0,0,1
EndSplineSet
EndChar

StartChar: uni01BE
Encoding: 446 446 411
Width: 1368
VWidth: 2274
Flags: W
LayerCount: 2
Fore
SplineSet
847 438 m 0,0,1
 847 552 847 552 771 632 c 0,2,3
 681 726 681 726 510 726 c 2,4,-1
 446 726 l 1,5,-1
 446 998 l 1,6,-1
 218 998 l 1,7,-1
 218 1163 l 1,8,-1
 446 1163 l 1,9,-1
 446 1438 l 1,10,-1
 651 1438 l 1,11,-1
 651 1163 l 1,12,-1
 881 1163 l 1,13,-1
 881 998 l 1,14,-1
 651 998 l 1,15,-1
 651 874 l 1,16,17
 816 844 816 844 922 734 c 0,18,19
 1038 614 1038 614 1039 438 c 0,20,21
 1039 256 1039 256 930 128 c 1,22,23
 792 -30 792 -30 519 -30 c 0,24,25
 345 -30 345 -30 195 42 c 1,26,-1
 195 214 l 1,27,28
 353 128 353 128 510 125 c 0,29,30
 688 125 688 125 787 242 c 0,31,32
 844 306 844 306 847 438 c 0,0,1
EndSplineSet
EndChar

StartChar: uni01BF
Encoding: 447 447 412
Width: 1368
VWidth: 2274
Flags: W
LayerCount: 2
Fore
SplineSet
310 -426 m 1,0,-1
 125 -426 l 1,1,-1
 125 1120 l 1,2,-1
 310 1120 l 1,3,-1
 310 950 l 1,4,5
 362 1017 362 1017 498 1099 c 0,6,7
 576 1147 576 1147 788 1146 c 0,8,9
 974 1146 974 1146 1050 1035 c 1,10,11
 1128 921 1128 921 1126 771 c 0,12,13
 1126 345 1126 345 310 -122 c 1,14,-1
 310 -426 l 1,0,-1
310 60 m 1,15,16
 936 462 936 462 937 711 c 0,17,18
 937 846 937 846 878 908 c 0,19,20
 822 975 822 975 702 975 c 0,21,22
 483 975 483 975 310 734 c 1,23,-1
 310 60 l 1,15,16
EndSplineSet
EndChar

StartChar: uni01C0
Encoding: 448 448 413
Width: 1368
VWidth: 2274
Flags: W
LayerCount: 2
Fore
SplineSet
516 1495 m 1,0,-1
 719 1495 l 1,1,-1
 719 0 l 1,2,-1
 516 0 l 1,3,-1
 516 1495 l 1,0,-1
EndSplineSet
EndChar

StartChar: uni01C2
Encoding: 450 450 415
Width: 1368
VWidth: 2274
Flags: W
LayerCount: 2
Fore
SplineSet
516 1495 m 1,0,-1
 719 1495 l 1,1,-1
 719 1091 l 1,2,-1
 1069 1091 l 1,3,-1
 1069 922 l 1,4,-1
 719 922 l 1,5,-1
 719 682 l 1,6,-1
 1069 682 l 1,7,-1
 1069 510 l 1,8,-1
 719 510 l 1,9,-1
 719 0 l 1,10,-1
 516 0 l 1,11,-1
 516 510 l 1,12,-1
 165 510 l 1,13,-1
 165 682 l 1,14,-1
 516 682 l 1,15,-1
 516 922 l 1,16,-1
 165 922 l 1,17,-1
 165 1091 l 1,18,-1
 516 1091 l 1,19,-1
 516 1495 l 1,0,-1
EndSplineSet
EndChar

StartChar: uni01D5
Encoding: 469 469 425
Width: 1368
VWidth: 2274
Flags: W
LayerCount: 2
Fore
SplineSet
317 1747 m 1,0,-1
 523 1747 l 1,1,-1
 523 1543 l 1,2,-1
 317 1543 l 1,3,-1
 317 1747 l 1,0,-1
711 1747 m 1,4,-1
 915 1747 l 1,5,-1
 915 1543 l 1,6,-1
 711 1543 l 1,7,-1
 711 1747 l 1,4,-1
146 1495 m 1,8,-1
 350 1495 l 1,9,-1
 350 482 l 2,10,11
 350 372 350 372 357 327 c 256,12,13
 364 281 364 281 378 253 c 1,14,15
 445 133 445 133 617 135 c 256,16,17
 791 135 791 135 856 253 c 0,18,19
 870 279 870 279 878 327 c 256,20,21
 885 373 885 373 882 478 c 2,22,-1
 882 1495 l 1,23,-1
 1086 1495 l 1,24,-1
 1086 574 l 2,25,26
 1086 348 1086 348 1056 246 c 0,27,28
 1029 148 1029 148 958 88 c 0,29,30
 827 -30 827 -30 617 -30 c 0,31,32
 407 -30 407 -30 274 88 c 0,33,34
 203 149 203 149 176 248 c 1,35,36
 146 350 146 350 146 574 c 2,37,-1
 146 1495 l 1,8,-1
317 1952 m 1,38,-1
 915 1952 l 1,39,-1
 915 1804 l 1,40,-1
 317 1804 l 1,41,-1
 317 1952 l 1,38,-1
EndSplineSet
EndChar

StartChar: uni01D6
Encoding: 470 470 426
Width: 1368
VWidth: 2274
Flags: W
LayerCount: 2
Fore
SplineSet
317 1552 m 1,0,-1
 523 1552 l 1,1,-1
 523 1351 l 1,2,-1
 317 1351 l 1,3,-1
 317 1552 l 1,0,-1
711 1552 m 1,4,-1
 915 1552 l 1,5,-1
 915 1351 l 1,6,-1
 711 1351 l 1,7,-1
 711 1552 l 1,4,-1
195 1118 m 1,8,-1
 378 1118 l 1,9,-1
 378 425 l 2,10,11
 378 275 378 275 432 203 c 128,-1,12
 486 131 486 131 598 131 c 0,13,14
 730 131 730 131 798 221.5 c 128,-1,15
 866 312 866 312 866 486 c 2,16,-1
 866 1118 l 1,17,-1
 1050 1118 l 1,18,-1
 1050 0 l 1,19,-1
 866 0 l 1,20,-1
 866 169 l 1,21,22
 816 71 816 71 734 20 c 0,23,24
 650 -30 650 -30 534 -30 c 0,25,26
 360 -30 360 -30 277.5 82.5 c 128,-1,27
 195 195 195 195 195 425 c 2,28,-1
 195 1118 l 1,8,-1
317 1842 m 1,29,-1
 915 1842 l 1,30,-1
 915 1695 l 1,31,-1
 317 1695 l 1,32,-1
 317 1842 l 1,29,-1
EndSplineSet
EndChar

StartChar: uni01D8
Encoding: 472 472 428
Width: 1368
VWidth: 2274
Flags: W
LayerCount: 2
Fore
SplineSet
317 1552 m 1,0,-1
 523 1552 l 1,1,-1
 523 1351 l 1,2,-1
 317 1351 l 1,3,-1
 317 1552 l 1,0,-1
711 1552 m 1,4,-1
 915 1552 l 1,5,-1
 915 1351 l 1,6,-1
 711 1351 l 1,7,-1
 711 1552 l 1,4,-1
195 1118 m 1,8,-1
 378 1118 l 1,9,-1
 378 425 l 2,10,11
 378 275 378 275 432 203 c 128,-1,12
 486 131 486 131 598 131 c 0,13,14
 730 131 730 131 798 221.5 c 128,-1,15
 866 312 866 312 866 486 c 2,16,-1
 866 1118 l 1,17,-1
 1050 1118 l 1,18,-1
 1050 0 l 1,19,-1
 866 0 l 1,20,-1
 866 169 l 1,21,22
 816 71 816 71 734 20 c 0,23,24
 650 -30 650 -30 534 -30 c 0,25,26
 360 -30 360 -30 277.5 82.5 c 128,-1,27
 195 195 195 195 195 425 c 2,28,-1
 195 1118 l 1,8,-1
756 1955 m 1,29,-1
 954 1955 l 1,30,-1
 630 1578 l 1,31,-1
 474 1578 l 1,32,-1
 756 1955 l 1,29,-1
EndSplineSet
EndChar

StartChar: uni01DA
Encoding: 474 474 430
Width: 1368
VWidth: 2274
Flags: W
LayerCount: 2
Fore
SplineSet
317 1552 m 1,0,-1
 523 1552 l 1,1,-1
 523 1351 l 1,2,-1
 317 1351 l 1,3,-1
 317 1552 l 1,0,-1
711 1552 m 1,4,-1
 915 1552 l 1,5,-1
 915 1351 l 1,6,-1
 711 1351 l 1,7,-1
 711 1552 l 1,4,-1
195 1118 m 1,8,-1
 378 1118 l 1,9,-1
 378 425 l 2,10,11
 378 275 378 275 432 203 c 128,-1,12
 486 131 486 131 598 131 c 0,13,14
 730 131 730 131 798 221.5 c 128,-1,15
 866 312 866 312 866 486 c 2,16,-1
 866 1118 l 1,17,-1
 1050 1118 l 1,18,-1
 1050 0 l 1,19,-1
 866 0 l 1,20,-1
 866 169 l 1,21,22
 816 71 816 71 734 20 c 0,23,24
 650 -30 650 -30 534 -30 c 0,25,26
 360 -30 360 -30 277.5 82.5 c 128,-1,27
 195 195 195 195 195 425 c 2,28,-1
 195 1118 l 1,8,-1
542 1578 m 1,29,-1
 298 1955 l 1,30,-1
 436 1955 l 1,31,-1
 617 1710 l 1,32,-1
 798 1955 l 1,33,-1
 937 1955 l 1,34,-1
 690 1578 l 1,35,-1
 542 1578 l 1,29,-1
EndSplineSet
EndChar

StartChar: uni01DC
Encoding: 476 476 432
Width: 1368
VWidth: 2274
Flags: W
LayerCount: 2
Fore
SplineSet
478 1955 m 1,0,-1
 758 1578 l 1,1,-1
 604 1578 l 1,2,-1
 278 1955 l 1,3,-1
 478 1955 l 1,0,-1
195 1118 m 1,4,-1
 378 1118 l 1,5,-1
 378 425 l 2,6,7
 378 275 378 275 432 203 c 128,-1,8
 486 131 486 131 598 131 c 0,9,10
 730 131 730 131 798 221.5 c 128,-1,11
 866 312 866 312 866 486 c 2,12,-1
 866 1118 l 1,13,-1
 1050 1118 l 1,14,-1
 1050 0 l 1,15,-1
 866 0 l 1,16,-1
 866 169 l 1,17,18
 816 71 816 71 734 20 c 0,19,20
 650 -30 650 -30 534 -30 c 0,21,22
 360 -30 360 -30 277.5 82.5 c 128,-1,23
 195 195 195 195 195 425 c 2,24,-1
 195 1118 l 1,4,-1
317 1552 m 1,25,-1
 523 1552 l 1,26,-1
 523 1351 l 1,27,-1
 317 1351 l 1,28,-1
 317 1552 l 1,25,-1
711 1552 m 1,29,-1
 915 1552 l 1,30,-1
 915 1351 l 1,31,-1
 711 1351 l 1,32,-1
 711 1552 l 1,29,-1
EndSplineSet
EndChar

StartChar: uni01DE
Encoding: 478 478 434
Width: 1368
VWidth: 2274
Flags: W
LayerCount: 2
Fore
SplineSet
317 1747 m 1,0,-1
 523 1747 l 1,1,-1
 523 1543 l 1,2,-1
 317 1543 l 1,3,-1
 317 1747 l 1,0,-1
711 1747 m 1,4,-1
 915 1747 l 1,5,-1
 915 1543 l 1,6,-1
 711 1543 l 1,7,-1
 711 1747 l 1,4,-1
317 1952 m 1,8,-1
 915 1952 l 1,9,-1
 915 1804 l 1,10,-1
 317 1804 l 1,11,-1
 317 1952 l 1,8,-1
617 1314 m 1,12,-1
 402 550 l 1,13,-1
 830 550 l 1,14,-1
 617 1314 l 1,12,-1
494 1495 m 1,15,-1
 738 1495 l 1,16,-1
 1197 0 l 1,17,-1
 986 0 l 1,18,-1
 878 391 l 1,19,-1
 354 391 l 1,20,-1
 246 0 l 1,21,-1
 38 0 l 1,22,-1
 494 1495 l 1,15,-1
EndSplineSet
EndChar

StartChar: uni01DF
Encoding: 479 479 435
Width: 1368
VWidth: 2274
Flags: W
LayerCount: 2
Fore
SplineSet
317 1842 m 1,0,-1
 915 1842 l 1,1,-1
 915 1695 l 1,2,-1
 317 1695 l 1,3,-1
 317 1842 l 1,0,-1
702 562 m 1,4,-1
 643 562 l 2,5,6
 319 562 319 562 317 338 c 0,7,8
 317 236 317 236 378 180 c 0,9,10
 438 126 438 126 546 125 c 0,11,12
 700 125 700 125 787 230 c 0,13,14
 875 338 875 338 874 523 c 2,15,-1
 874 562 l 1,16,-1
 702 562 l 1,4,-1
1058 0 m 1,17,-1
 874 0 l 1,18,-1
 874 166 l 1,19,20
 814 65 814 65 726 17.5 c 128,-1,21
 638 -30 638 -30 508 -30 c 0,22,23
 338 -30 338 -30 234 67 c 0,24,25
 132 165 132 165 135 327 c 0,26,27
 135 516 135 516 259 611 c 0,28,29
 383 706 383 706 626 707 c 2,30,-1
 874 707 l 1,31,-1
 874 736 l 2,32,33
 874 871 874 871 806 930.5 c 128,-1,34
 738 990 738 990 592 990 c 0,35,36
 498 990 498 990 402 964 c 0,37,38
 307 938 307 938 214 886 c 1,39,-1
 214 1070 l 1,40,41
 418 1148 418 1148 592 1146 c 0,42,43
 866 1146 866 1146 990 982 c 0,44,45
 1028 932 1028 932 1043 858 c 0,46,47
 1051 824 1051 824 1054 770 c 0,48,49
 1058 713 1058 713 1058 638 c 2,50,-1
 1058 0 l 1,17,-1
317 1552 m 1,51,-1
 523 1552 l 1,52,-1
 523 1351 l 1,53,-1
 317 1351 l 1,54,-1
 317 1552 l 1,51,-1
711 1552 m 1,55,-1
 915 1552 l 1,56,-1
 915 1351 l 1,57,-1
 711 1351 l 1,58,-1
 711 1552 l 1,55,-1
EndSplineSet
EndChar

StartChar: uni01E0
Encoding: 480 480 436
Width: 1368
VWidth: 2274
Flags: W
LayerCount: 2
Fore
SplineSet
317 1952 m 1,0,-1
 915 1952 l 1,1,-1
 915 1804 l 1,2,-1
 317 1804 l 1,3,-1
 317 1952 l 1,0,-1
515 1748 m 1,4,-1
 719 1748 l 1,5,-1
 719 1543 l 1,6,-1
 515 1543 l 1,7,-1
 515 1748 l 1,4,-1
617 1314 m 1,8,-1
 402 550 l 1,9,-1
 830 550 l 1,10,-1
 617 1314 l 1,8,-1
494 1495 m 1,11,-1
 738 1495 l 1,12,-1
 1197 0 l 1,13,-1
 986 0 l 1,14,-1
 878 391 l 1,15,-1
 354 391 l 1,16,-1
 246 0 l 1,17,-1
 38 0 l 1,18,-1
 494 1495 l 1,11,-1
EndSplineSet
EndChar

StartChar: uni01E1
Encoding: 481 481 437
Width: 1368
VWidth: 2274
Flags: W
LayerCount: 2
Fore
SplineSet
317 1842 m 1,0,-1
 915 1842 l 1,1,-1
 915 1695 l 1,2,-1
 317 1695 l 1,3,-1
 317 1842 l 1,0,-1
515 1552 m 1,4,-1
 719 1552 l 1,5,-1
 719 1348 l 1,6,-1
 515 1348 l 1,7,-1
 515 1552 l 1,4,-1
702 562 m 1,8,-1
 643 562 l 2,9,10
 319 562 319 562 317 338 c 0,11,12
 317 236 317 236 378 180 c 0,13,14
 438 126 438 126 546 125 c 0,15,16
 700 125 700 125 787 230 c 0,17,18
 875 338 875 338 874 523 c 2,19,-1
 874 562 l 1,20,-1
 702 562 l 1,8,-1
1058 0 m 1,21,-1
 874 0 l 1,22,-1
 874 166 l 1,23,24
 814 65 814 65 726 17.5 c 128,-1,25
 638 -30 638 -30 508 -30 c 0,26,27
 338 -30 338 -30 234 67 c 0,28,29
 132 165 132 165 135 327 c 0,30,31
 135 516 135 516 259 611 c 0,32,33
 383 706 383 706 626 707 c 2,34,-1
 874 707 l 1,35,-1
 874 736 l 2,36,37
 874 871 874 871 806 930.5 c 128,-1,38
 738 990 738 990 592 990 c 0,39,40
 498 990 498 990 402 964 c 0,41,42
 307 938 307 938 214 886 c 1,43,-1
 214 1070 l 1,44,45
 418 1148 418 1148 592 1146 c 0,46,47
 866 1146 866 1146 990 982 c 0,48,49
 1028 932 1028 932 1043 858 c 0,50,51
 1051 824 1051 824 1054 770 c 0,52,53
 1058 713 1058 713 1058 638 c 2,54,-1
 1058 0 l 1,21,-1
EndSplineSet
EndChar

StartChar: uni01EC
Encoding: 492 492 446
Width: 1368
VWidth: 2274
Flags: W
LayerCount: 2
Fore
SplineSet
317 1841 m 1,0,-1
 915 1841 l 1,1,-1
 915 1692 l 1,2,-1
 317 1692 l 1,3,-1
 317 1841 l 1,0,-1
674 -16 m 1,4,5
 628 -77 628 -77 607.5 -121.5 c 128,-1,6
 587 -166 587 -166 587 -196 c 0,7,8
 587 -287 587 -287 696 -287 c 0,9,10
 757 -287 757 -287 822 -259 c 1,11,-1
 822 -391 l 1,12,13
 742 -411 742 -411 686 -410 c 0,14,15
 562 -410 562 -410 506.5 -368.5 c 128,-1,16
 451 -327 451 -327 451 -230 c 0,17,18
 451 -182 451 -182 476.5 -130 c 128,-1,19
 502 -78 502 -78 557 -16 c 1,20,-1
 674 -16 l 1,4,5
907 746 m 256,21,22
 907 1073 907 1073 839 1214 c 1,23,24
 771 1356 771 1356 617 1356 c 0,25,26
 463 1356 463 1356 395 1214 c 1,27,28
 328 1076 328 1076 328 746 c 0,29,30
 328 415 328 415 395 276 c 1,31,32
 462 134 462 134 617 135 c 0,33,34
 771 135 771 135 839 274 c 1,35,36
 907 419 907 419 907 746 c 256,21,22
1116 746 m 0,37,38
 1116 355 1116 355 993 162.5 c 128,-1,39
 870 -30 870 -30 617 -30 c 256,40,41
 364 -30 364 -30 241 162 c 128,-1,42
 118 354 118 354 118 746 c 0,43,44
 118 1137 118 1137 241.5 1329 c 128,-1,45
 365 1521 365 1521 617 1521 c 0,46,47
 870 1521 870 1521 993 1329 c 128,-1,48
 1116 1137 1116 1137 1116 746 c 0,37,38
EndSplineSet
EndChar

StartChar: uni01ED
Encoding: 493 493 447
Width: 1368
VWidth: 2274
Flags: W
LayerCount: 2
Fore
SplineSet
317 1526 m 1,0,-1
 915 1526 l 1,1,-1
 915 1378 l 1,2,-1
 317 1378 l 1,3,-1
 317 1526 l 1,0,-1
674 -16 m 1,4,5
 628 -77 628 -77 607.5 -121.5 c 128,-1,6
 587 -166 587 -166 587 -196 c 0,7,8
 587 -287 587 -287 696 -287 c 0,9,10
 757 -287 757 -287 822 -259 c 1,11,-1
 822 -391 l 1,12,13
 742 -411 742 -411 686 -410 c 0,14,15
 562 -410 562 -410 506.5 -368.5 c 128,-1,16
 451 -327 451 -327 451 -230 c 0,17,18
 451 -182 451 -182 476.5 -130 c 128,-1,19
 502 -78 502 -78 557 -16 c 1,20,-1
 674 -16 l 1,4,5
617 990 m 0,21,22
 333 990 333 990 332 558 c 0,23,24
 332 344 332 344 403 234.5 c 128,-1,25
 474 125 474 125 617 125 c 0,26,27
 759 125 759 125 831 234.5 c 128,-1,28
 903 344 903 344 903 558 c 0,29,30
 903 990 903 990 617 990 c 0,21,22
617 1146 m 256,31,32
 735 1146 735 1146 823.5 1108 c 128,-1,33
 912 1070 912 1070 973.5 996 c 128,-1,34
 1035 922 1035 922 1065.5 812 c 128,-1,35
 1096 702 1096 702 1096 558 c 0,36,37
 1096 268 1096 268 973.5 119 c 128,-1,38
 851 -30 851 -30 617 -30 c 0,39,40
 381 -30 381 -30 259.5 119 c 128,-1,41
 138 268 138 268 138 558 c 0,42,43
 138 700 138 700 168.5 811 c 128,-1,44
 199 922 199 922 261 996 c 128,-1,45
 323 1070 323 1070 411 1108 c 128,-1,46
 499 1146 499 1146 617 1146 c 256,31,32
EndSplineSet
EndChar

StartChar: uni01F6
Encoding: 502 502 453
Width: 1368
VWidth: 2274
Flags: W
LayerCount: 2
Fore
SplineSet
878 135 m 0,0,1
 932 135 932 135 956 214 c 0,2,3
 990 316 990 316 990 587 c 2,4,-1
 990 882 l 1,5,-1
 1171 882 l 1,6,-1
 1171 562 l 2,7,8
 1171 188 1171 188 1066 48 c 0,9,10
 1009 -30 1009 -30 878 -30 c 0,11,12
 750 -30 750 -30 678 54 c 0,13,14
 543 209 543 209 542 562 c 2,15,-1
 542 711 l 1,16,-1
 244 711 l 1,17,-1
 244 0 l 1,18,-1
 61 0 l 1,19,-1
 61 1495 l 1,20,-1
 244 1495 l 1,21,-1
 244 882 l 1,22,-1
 542 882 l 1,23,-1
 542 1495 l 1,24,-1
 726 1495 l 1,25,-1
 726 587 l 2,26,27
 726 313 726 313 809 174 c 0,28,29
 832 135 832 135 878 135 c 0,0,1
EndSplineSet
EndChar

